<svg width="100%" viewBox="0 0 100 100" fill="none" xmlns="http://www.w3.org/2000/svg">
<path d="M100 51.2523C100 62.4192 96.8207 72.4628 90.4622 81.383C84.1037 90.3032 75.8898 96.4761 65.8203 99.9019C64.6484 100.124 63.7912 99.9686 63.2487 99.4347C62.7062 98.9008 62.4349 98.2335 62.4349 97.4327V83.3517C62.4349 79.0361 61.3064 75.8774 59.0495 73.8753C61.5234 73.6084 63.7478 73.208 65.7227 72.6741C67.6975 72.1402 69.7374 71.2727 71.8424 70.0714C73.9475 68.8702 75.7053 67.3909 77.1159 65.6336C78.5265 63.8762 79.6767 61.5405 80.5664 58.6264C81.4562 55.7124 81.901 52.3645 81.901 48.5829C81.901 43.1996 80.1866 38.6171 76.7578 34.8355C78.3637 30.7869 78.1901 26.249 76.237 21.2216C75.0217 20.8212 73.2639 21.0659 70.9635 21.9557C68.6632 22.8455 66.6667 23.8243 64.974 24.892L62.5 26.4937C58.4635 25.3369 54.2969 24.7586 50 24.7586C45.7031 24.7586 41.5365 25.3369 37.5 26.4937C36.8056 26.0043 35.8832 25.4037 34.7331 24.6918C33.5829 23.98 31.7708 23.1236 29.2969 22.1226C26.8229 21.1215 24.9566 20.8212 23.6979 21.2216C21.7882 26.249 21.6363 30.7869 23.2422 34.8355C19.8134 38.6171 18.099 43.1996 18.099 48.5829C18.099 52.3645 18.5438 55.7012 19.4336 58.5931C20.3234 61.4849 21.4627 63.8206 22.8516 65.6002C24.2405 67.3798 25.9874 68.8702 28.0924 70.0714C30.1975 71.2727 32.2374 72.1402 34.2122 72.6741C36.1871 73.208 38.4115 73.6084 40.8854 73.8753C39.1493 75.477 38.0859 77.7682 37.6953 80.749C36.7839 81.1939 35.8073 81.5276 34.7656 81.75C33.724 81.9725 32.487 82.0837 31.0547 82.0837C29.6224 82.0837 28.201 81.6054 26.7904 80.6489C25.3798 79.6924 24.1753 78.3021 23.1771 76.478C22.3524 75.0543 21.2999 73.8976 20.0195 73.0078C18.7391 72.118 17.6649 71.5841 16.7969 71.4061L15.4948 71.2059C14.5833 71.2059 13.954 71.306 13.6068 71.5062C13.2595 71.7064 13.151 71.9623 13.2812 72.2737C13.4115 72.5851 13.6068 72.8965 13.8672 73.208C14.1276 73.5194 14.4097 73.7863 14.7135 74.0088L15.1693 74.3425C16.1241 74.7874 17.0681 75.6327 18.0013 76.8784C18.9345 78.1241 19.6181 79.2586 20.0521 80.2819L20.7031 81.8168C21.2674 83.5074 22.2222 84.8754 23.5677 85.9209C24.9132 86.9664 26.3672 87.6338 27.9297 87.923C29.4922 88.2122 31.0004 88.3679 32.4544 88.3901C33.9084 88.4124 35.1128 88.3345 36.0677 88.1565L37.5651 87.8896C37.5651 89.5802 37.576 91.56 37.5977 93.829C37.6194 96.098 37.6302 97.2992 37.6302 97.4327C37.6302 98.2335 37.3481 98.9008 36.7839 99.4347C36.2196 99.9686 35.3516 100.124 34.1797 99.9019C24.1102 96.4761 15.8963 90.3032 9.53776 81.383C3.17925 72.4628 0 62.4192 0 51.2523C0 41.9539 2.23524 33.3785 6.70573 25.526C11.1762 17.6736 17.2418 11.4561 24.9023 6.87367C32.5629 2.29122 40.9288 0 50 0C59.0712 0 67.4371 2.29122 75.0977 6.87367C82.7582 11.4561 88.8238 17.6736 93.2943 25.526C97.7648 33.3785 100 41.9539 100 51.2523Z" fill="currentColor"/>
</svg>
