<svg  width="100%" height="auto" viewBox="0 0 32 32" fill="none" xmlns="http://www.w3.org/2000/svg">
<g clip-path="url(#clip0_881_77)">
<path d="M27.1254 4.57411C24.7327 2.18142 22.1768 3.73005 20.5772 5.32959L5.46693 20.4404C3.86739 22.0397 2.19318 24.4699 4.71145 26.9878C7.22971 29.5066 9.6599 27.8321 11.2591 26.2325L26.3697 11.1221C27.9693 9.52241 29.5179 6.96651 27.1254 4.57411Z" fill="currentColor"/>
<path d="M12.6906 3.9549L15.8901 7.15428L19.1469 3.89755C19.368 3.67593 19.5925 3.47026 19.8184 3.2763C19.4773 1.55559 18.4955 0 15.8886 0C13.2768 0 12.2962 1.5617 11.957 3.28614C12.2008 3.49707 12.4442 3.70851 12.6906 3.9549Z" fill="currentColor"/>
<path d="M19.1445 27.7212L15.8898 24.4663L12.6919 27.6639C12.4491 27.9069 12.2074 28.1288 11.9668 28.3374C12.3335 30.0915 13.3714 31.6982 15.8885 31.6982C18.4121 31.6982 19.4486 30.0829 19.813 28.3231C19.5891 28.1305 19.3652 27.9417 19.1445 27.7212Z" fill="currentColor"/>
<path d="M11.3327 11.7114H5.16431C2.90262 11.7114 0 12.424 0 15.8074C0 18.3319 1.61583 19.3686 3.3759 19.7327C3.58429 19.4921 11.3327 11.7114 11.3327 11.7114Z" fill="currentColor"/>
<path d="M28.413 11.8755C28.2178 12.1026 20.4531 19.9029 20.4531 19.9029H26.534C28.7958 19.9029 31.6983 19.3685 31.6983 15.8072C31.6983 13.1957 30.1371 12.2146 28.413 11.8755Z" fill="currentColor"/>
<path d="M13.3536 9.68642L14.4556 8.58442L11.258 5.38632C9.65835 3.78695 7.22849 2.11257 4.71023 4.63084C2.86361 6.47742 3.27377 8.27472 4.25324 9.73372C4.55156 9.71162 13.3536 9.68642 13.3536 9.68642Z" fill="currentColor"/>
<path d="M18.4233 21.9276L17.3184 23.0325L20.5755 26.2893C22.1751 27.889 24.731 29.4373 27.1234 27.0449C28.9085 25.2596 28.4989 23.3844 27.512 21.8823C27.1943 21.9052 18.4233 21.9276 18.4233 21.9276Z" fill="currentColor"/>
</g>
<defs>
<clipPath id="clip0_881_77">
<rect width="32" height="32" fill="white"/>
</clipPath>
</defs>
</svg>
