<?xml version="1.0" encoding="utf-8"?>
<!-- Generator: Adobe Illustrator 18.0.0, SVG Export Plug-In . SVG Version: 6.00 Build 0)  -->
<!DOCTYPE svg PUBLIC "-//W3C//DTD SVG 1.1//EN" "http://www.w3.org/Graphics/SVG/1.1/DTD/svg11.dtd">
<svg version="1.1" id="Layer_1" xmlns="http://www.w3.org/2000/svg" xmlns:xlink="http://www.w3.org/1999/xlink" x="0px" y="0px"
	 width="100%" height="100%" preserveAspectRatio="xMidYMid slice" viewBox="0 0 1400 980" enable-background="new 0 0 1400 980" xml:space="preserve">
<g>
	<defs>
		<rect id="SVGID_1_" width="1400" height="980"/>
	</defs>
	<clipPath id="SVGID_2_">
		<use xlink:href="#SVGID_1_"  overflow="visible"/>
	</clipPath>
	<linearGradient id="SVGID_3_" gradientUnits="userSpaceOnUse" x1="700" y1="17.6831" x2="700" y2="848.8152">
		<stop  offset="0" style="stop-color:#F5C173"/>
		<stop  offset="0.3182" style="stop-color:#F5AE7C"/>
		<stop  offset="0.7" style="stop-color:#F49F84"/>
		<stop  offset="1" style="stop-color:#F49987"/>
	</linearGradient>
	<rect clip-path="url(#SVGID_2_)" fill="url(#SVGID_3_)" width="1400" height="980"/>
	<radialGradient id="SVGID_4_" cx="665.7057" cy="512.7324" r="510.051" gradientUnits="userSpaceOnUse">
		<stop  offset="0" style="stop-color:#FFFFFF"/>
		<stop  offset="0.1904" style="stop-color:#FFFCFB;stop-opacity:0.8096"/>
		<stop  offset="0.3719" style="stop-color:#FEF2F0;stop-opacity:0.6281"/>
		<stop  offset="0.5498" style="stop-color:#FCE2DC;stop-opacity:0.4502"/>
		<stop  offset="0.7256" style="stop-color:#F9CBC1;stop-opacity:0.2744"/>
		<stop  offset="0.8981" style="stop-color:#F6AD9F;stop-opacity:0.1019"/>
		<stop  offset="1" style="stop-color:#F49987;stop-opacity:0"/>
	</radialGradient>
	<circle clip-path="url(#SVGID_2_)" fill="url(#SVGID_4_)" cx="665.7" cy="512.7" r="510.1"/>
	<circle clip-path="url(#SVGID_2_)" fill="#FAF8E2" cx="665.7" cy="512.7" r="231"/>
	<path clip-path="url(#SVGID_2_)" fill="#AF827D" d="M1343.2,478.9c-2-12.9-2.6-30.9-2.2-43.9c-8.7-5.5-13.2-8.4-23.3-10.9
		c-7.5-1.9-13.2-8.1-20.7-10.1c-9.6-2.6-16.2,1.9-23,6.8c-8.2,6-8.7,2.5-19,3.2c-4.2,0.3-7.6,2.5-12,1.8c-3.2-0.5-6.5-4-10-4.8
		c-10.8-2.7-19.4,4.2-30.1,4.8c-4,0.2-5.8-2.6-9.9-1.6c-4.4,1.1-6.6,5.6-10.2,7.8c-11.1,6.8-29.7,10.4-42.8,10
		c-16.6-0.4-31.6-6.3-48-8.8c-10.2-1.5-21.8-6.2-32-5.3c-19.9,1.7-34.5,12.2-54,3.8c-3.8-1.6-5.9-4.9-10-5.8
		c-3.9-0.8-7.6,0.9-11.2,0.3c-4.4-0.8-8.5-4.9-12.8-5.3c-4.3-0.4-8.7,2.3-12.2,2.4c-14.5,0.1-36.2-3.9-48,11.4
		c-2.9,3.8-20.6-17.5-38.4-0.4c-1.2-2.3-2.8-6-4.1-8.1c-10.7,0.2-15.6-1.8-23.5,5.9c-2.6-1.3-6.1-2.1-10-2.4
		c-3.3-1.1-7-1.8-10.7-1.9c-8.9-0.4-16.2-3.1-25.1-3c-2.5,0-3.8,2.7-5.9,3.1c-1.8,0.3-2.6-2.9-5-1.9c-3.8,1.6-6.4,2.4-8,6.6
		c-9.3-9-17.7,0.6-20.2,9.3c-9.1-7.5-17.6-0.6-28.7,1.7c-13.8-3.4-25.9-14.4-39.4-17.9c-17.1-4.4-34.5,2.1-51.2,5.1
		c-7.4,1.4-8.3,9-14.7,10c-5.1,0.8-15.8-6.2-21-6.3c-22.2-0.3-31.8,6.5-54.2,9.8c-19.1,2.8-35-1.5-54,2.4c-17.8,3.7-31,15.8-51,15.1
		c-22.9-0.8-45.8-8.6-70.2-9.1c0.9-0.3,1.2-1.1,0.9-2.3c-21.8-8.2-89.2-39.5-117.2-31.3c-7.5,2.2-15.3,2.9-23,1.2
		c-16.4-3.6-39.3-3.9-48.5-4.3c-20.6-1.1-43.9,1.2-66.2-4.7c-9.7-2.6-18.8-9.1-29.3-10.3c-10.9-1.2-21.5,4.6-30.8,4
		C39,403.4,17,385.7-3.4,407.7L-10,413c-3.2,13.6-5.8,27.9-10,41.9c-7,23.5-4.5,54.1-0.8,78.1c1.6,10.4,2.4,16.5,11.9,20.7
		c31.8,14,77.2,9.8,111,11.6c51,2.6,101.9,8.6,153,8.7c10.1,0,40.6-8,45.8,2c4,7.5,21.9,8.5,30,11.8c12.7,5,24.7,11.2,37.2,16.5
		c35.4,15.2,79.7,25.4,118,28c68.4,4.7,136.9-6.4,205.1-10.1C777.6,617.6,862.7,593,948,579c44.6-7.3,88.5-18.2,133-26.1
		c37.7-6.7,75.8-9.6,113.8-14.7c33.9-4.6,67.3-10.5,101.1-16c11-1.8,22.2-3.7,33.3-5c4.1-0.5,13.8,1,17.5-1.2
		C1357.5,509.4,1345,490.4,1343.2,478.9z"/>
	<path clip-path="url(#SVGID_2_)" fill="#9E716D" d="M-11.1,463.3c27.4,5.8,48.3,17.6,75.9,6.1c21.8-9.1,42.2-18.8,64.2-25.7
		c12.6-3.9,25.3-6.7,38.3-7.4c13.4-0.8,19.1,5.4,31.2,7.8c12,2.3,23.3-3.9,34.8-2.7c8.3,0.9,17.5,7.5,25.7,10.4
		c21.3,7.5,36.4-1.2,56.6-6.4c20.1-5.2,42.2-6.8,63-1.3c20.6,5.4,32.1,17.3,55.3,14.1c10.9-1.5,21.4-4,32.1-1
		c9.7,2.7,18.9,9,28.3,12.9c19.5,8.1,41.9,7.4,61.7,13.8c21.1,6.8,40.3,7.8,63,7.7c32.7-0.1,66.6,1.1,99,2.6
		c11.5,0.6,24.1-0.1,34.8-3.6c12.5-4.1,18.5-15.9,29.5-21c11.1-5.1,29.1-5.1,41.2-6.4c12.2-1.3,18.7-4.5,29.3-10.6
		c20.8-12,42.4,2.1,65.9-1.3c20.2-2.9,37.3-17.6,56.6-20.3c10.4-1.5,20.4,2,30.9,1.3c10.4-0.7,20.3-5.1,30.9-3.9
		c10.9,1.3,24.7,5,36,5.1c12.8,0.2,18.6-4.8,29.9-8.7c22.2-7.8,50.7-2.5,70.3,7.7c16,8.3,30.9,6.7,48.7,9
		c20.8,2.6,22.7-0.5,40.2-11.6c27.2-17.3,54.9-1.7,83.6-11.8c10.7-3.8,16.3-15.5,25.4-22.2c9.4-6.9,17-7,28.4-10.8
		c0.2,2.8,0.9,7,0.2,9.8v197H68.3c-6.4,0-12.5-1.6-19-1.6H-30c4.9-33.5-2.1-65.1,0.9-98.1C-27.9,479.9-22.7,468.9-11.1,463.3z"/>
	<path clip-path="url(#SVGID_2_)" fill="#875755" d="M1423,553c6.7-11.3-17.2-13.6-21.8-14.8c-0.8-0.2-3.8,2.9-5.3,2.9
		c-0.2,0-5-2.2-5.2-2.3c-4.5-1.2-6.3-6.3-11.6-1.9c-1.6-1-3.1-1.9-5.1-3c0.3-5.8-0.5-15.9-7-16.7c0,0.5,0.1,2.1-0.1,2.6
		c-0.6-1.9-2.4-3.1-3.1-4.6c-0.9,0.8-3,1.8-3.7,2.8c-0.6-0.5-0.5-2.1-1.4-2.7c-1,1.1-3.5,2.1-4.8,3.5c-2-4-5.9-3.7-8.4-0.5
		c0.9-1.7,0.6-4.1-1.3-6.8c-0.9,0.9-2.2,1.8-3,2.5c-0.7-1.4-2.6-2.9-3.2-4c-0.7,1.3-2.3,2.3-2.9,4c-4.2-5.9-12.6-4.2-13.2,4
		c-2-4.4-10.9-13.9-12-3c-0.2-0.9-1.7-3.2-2-4.7c-2.6,1.5-4.3,0.5-5.8,4.4c-4.5-6.7-8.5-2-7.2,4.3c-0.1-0.3-0.7-1.8-0.9-2.8
		c-5.3-1.3-10.5,1-13.1,5.8c-4.3-3.6-10.6-11.6-11.5-0.2c-1.9-8.2-10.9-3-15,1c-2.7-5.8-8.6-7.8-11.9-1c-2.6-5.6-10.9-4.6-11.2,2.1
		c-1.9-7.8-7.7-3.6-10.8,1c-2.8-4.7-10.7-7.5-11.2,0c-1.1-7.4-10-4.6-9,2c-0.5-2.5-2.5-5.1-3.3-7.6c-2.1,0.3-3.3,1.1-4.7,2.6
		c1.6,1.1,2.6,3.2,3.8,4.1c-3.1,0.5-7.6,0.1-9.1-0.7c-4.3,4.8-4.9-1.7-9.8-1.2c-4.9,0.5-7,6-10.8,7.1c-6.8,2.1-13-3.1-15,9.6
		c-4.4-5.2-10.2-1.9-12,4c-2.5-5.6-10.7-4.4-10.5,2.3c-11-8.9-12.9-0.5-23.8-0.2c-5.5,0.2-10.7-7.1-15.2,1.2c-0.8-1.3-4-2.9-4.8-4
		c-0.9,0.9-1.9,1.6-2.7,2.7c-3-2.7-3.7-1.5-7.1-2.4c1,1.5,1.1,3.9,2,5.4c-2.5-1.9-4-1.7-5.5-1c-1.9-1.1-3.9-1.8-5-1.6
		c-0.2,0.2-0.4,0.8-0.6,1c-1.8-1.7-3.8-5.7-5.9-2.7c-1.8-3.6-6.6-4.7-9.1-1.3c-1.9-1.3-4.8-3.4-6.1-0.6c-1.3-1.6-3-1.8-4.4-0.1
		c-2.4-2.8-4.9-1.5-5.5,2c0,0,0,0,0,0c-1.8-3.5-6.4-5.9-6.8-1.6c0,0,0,0,0,0c-0.1-2.2-0.9-4.4-3.6-3.6c0.1,1-0.3,2.2-0.1,3.2
		c-2-2.8-5.4-9.6-8.1-2.9c-2.6-1.2-8-3.2-7.5,2c-1.8-2-4.7-2.1-4.9,1.1c-0.7-2-3.9-3.7-4.7-1.7c-0.3-0.2-0.6-0.4-1-0.5
		c-0.6-0.7-1.4-1.1-2.2-1.3c-3.8-2.2-7.9-4.4-12-3.9c-0.1,1-0.1,1.8-0.4,2.8c-0.6-1.9-3.5-4.2-4.7-6.1c-1.5,2.6-3.1,2.1-3.3,6.1
		c-3.5-10-14.8-5-12.9,4.9c-1.2-0.1-2.4-0.7-3.6-1.3c-0.3-1.5-0.7-2.9-1.1-4.1c-2.8-8.3-12.9-10.4-19.2-3.5c-0.8-2-2.8-4.3-3.3-5.7
		c-1.7,2.1-4.6,3.9-5.7,6c-0.8-1-2.5-3.4-3-4.2c-1,1.2,0.4,2.8-1.8,3c-4.2-5.2-9.6-8.1-13.9-2.2c-0.3-0.6-1-3.5-1.4-3.8
		c-1.7,1.5-6.6,3.1-8.4,5.7c0.1-8.5-7.8-8.7-15.1-7.1c-0.1,1.8-0.6,3.9-0.6,5.7c-1-10.1-6.3-5.1-11.7-7.4c-0.9-0.4-4.9,3-7.1,2.8
		c-2.5-0.2-2.7-7.2-6.3-7.4c-5.1-0.3-10.5,3.9-16.5,4.7c-7.1,1-9.2-5.8-16.2-0.2c-4.7-8.2-12.8-2.9-15.7,4.5c-2.6-2.8-6-2.6-8.4-4.1
		c-0.7,1.4-0.7,2.4-1.8,3.7c-1.3-6.2-5.5-8.6-11.8-7.2c0.2-2.1-0.7-5-0.5-7c-2.5,0.8-5.7-0.2-8.5,1.1c0.3-2.1-0.7-5-0.5-7.1
		c-6.1-3.4-8.3-7.9-14.4-6.5c-4.1-7.4-24.5-12.8-30-7.4c-1.3-6.1-5.3-7.5-10.8-4.9c-4.4-3.7-24.8-6.7-27-1.4
		c-1.8-11.9-32.5-16.3-39.5-5.7c-5.7-3.1-10.6-2.1-11.8,4.4c-11.5,0.6-22.8,0.8-33.9,2c-2.3,0.3-5,3.5-7.9,3.9
		c-2.3,0.3-4.1-3.2-7.5-2.7c-4.7,0.7-7.8,1.6-10.9,5.8c-6.6-4.5-32.3-4-36,3c-4.5-5.2-10.3-5.7-13.5,1.6c-2.3-3.1-6.5-5.2-10.1-5.7
		c-1.6-0.2-4.6,3.4-7.6,3.2c-1.6-0.1-2.5-3.3-4.4-3.1c-8.9,0.6-16.9,2.8-25.3,1.4c0.1,1.5-0.2,3.6-0.2,5.2
		c-2.4-5.7-8.2-8.4-13.6-8.7c-2.1,0.8-0.5,1.8-1.4,2.6c-5-3.9-10.1-3.4-13.6,1.9c-5-3.5-15.4-3.3-22.5-4.7c-9.8-2-15.7-8.3-24.1,3.2
		c-9.1-7.3-19.3-9.6-31.2-9.1c-2.2-6.1-18.2-9.1-24.2-8.8c-14.7,0.8-13.8,4.3-27.1-4.3c-0.8,2.1-3.7,4.5-4.4,6.1
		c-7.7-7.3-13.7-9.8-22.6-3.4c-5.9-4.8-42.4-19.3-45.3-13.5c-8.2-15.8-38.5-19.3-51-4.6c-9.4-6.9-24.9,1.8-35.6,3.4
		c-9.8,1.5-27.3-2.6-34.5,6.1c-1.2-1.2-3.3-2.3-4.5-3.4c-0.7,2.4-4.1,5.9-4.8,9.1c-10-8.8-20.9,8.7-29.7,12.3
		c-8.7,3.5-24.2,0.2-30-7.5c-1.3,0.4-4.6,1.9-5.6,2.6c-4.8-3.6-44.8,3-52.8,9.4c-8.9-1.4-19.7,3.2-25.5,13.3
		c-4.5,8-9.8,23.6-14.6,31.8c-7.1,12.2-21.2,13.4-25.9,28.1c-9.8,30.8-10.4,71.2-10.6,103.6H931c0,6.2-0.1,12.4-0.5,18.6H1416
		c1.3,0.1,2.6,0.1,3.8-0.2c-1.5-11.3-0.3-24.3-2.4-35.9c2.3-1.2,4.8-1.4,7.5-0.6V562C1424.6,558.6,1423.3,556.4,1423,553z"/>
	<path clip-path="url(#SVGID_2_)" fill="#7A4B64" d="M1504.7,596.6c-1.5-8.7-9.7-1.3-9.7,4.4c0.6-0.9,0.7-2.1,0.9-3.1
		c-2.2-0.9-4.5,0.2-6.4,1.2c0.9-2.9-6.1-6.2-8.5-5c-1.6-2.3-5.3-1.1-7.8-0.1c0.2-5.8-5.7-5.5-9.6-3.8c0-5.2-4.8-4.4-7.7-2
		c-1.7-3.3-4.9-2-7.6-0.6c-2.1-3.1-6.7-8.8-11-5.3c-1.6-3.4-7.9-5-11.2-4c-1.2-1.6-2.3-3.5-3.2-5.2c-1.9,0.5-3.4,2.1-4.5,3.5
		c-1.4-7-7.6-6.1-11.8-1.7c0.1-4.8-6.9-5.7-10.1-2.9c-1.5-3.1-2.7-0.8-4.4-1.2c-1.3-0.3-4.5-0.4-6.2-1.2c0.3,0.1-2.9-0.9-3-0.9
		c-0.9-0.2-2.2-1.3-3.3-1.5c-0.8-0.1-2.3,1.1-3.1,1c-1.4-0.2-2-1.3-3.3-1.6c-2.3-0.5-4.5-0.2-6.5-0.6c-2-0.4-4.6-2.5-6.7-2.4
		c-3.7,0.1-2.9,1.9-6.9,1.1c-3.6-0.7-4.3-3.5-7.9,0.2c0-0.5,0.2-0.8,0.2-1.3c-2.9-0.8-5.1-1.8-7.8-1.8c-1.5,0-4.9,2.2-6.5,1.3
		c-1.6-1-0.1-1.6-1.1-2.8c-1.8-2.3-0.3-4.4-4.5-4.9c-2.4-0.3-4.5,1.2-6.1,2.9c-2.9-2.1-5-0.7-7.5,1.5c-0.4-3.6-4.7-4.4-7-1.9
		c-2.2-3-10-4.5-13.3-2.3c-1-2.2-2.6-2-4.6-2.3c-1-0.1-2.1,1.4-2.9,1.3c-1.3-0.1-1.9-1.2-3.2-1.3c-3.7-0.4-11.5-2.9-14.2,0.6
		c-1.7-2.3-4.3-2.1-6.2-0.1c-2-2.7-5-2.5-6.4,0.6c3.4-6.5-5.3-9.5-7.7-2.5c-0.3-1.5-1.4-2.5-2.4-3.7c-0.6,1-1.5,1.2-1.9,2.5
		c-0.6-1-2.1-1.4-2.8-2.2c-1.3,1.1-2.7,2.1-3.9,2.9c-0.1-2.9-4.9-7.2-6-2.9c-4.3-2.4-7.2-1.7-8.3,3.4c2.1-5.5-6.1-3.2-8.1-0.7
		c-0.1-2-0.9-2.8-2.5-3.6c-0.4,1.3-1.4,2-1.5,3.5c-1.4-1.6-3.3-2.8-5.3-2c-0.1-1.7-1.2-2.7-1.9-4c-0.5,0.5-1.9,1-2.4,1.4
		c-0.6-3.5-5.2-2.8-6.4,0.2c0.4-0.2,0.6-0.5,1.1-0.6c-4.3,0.5-8.6-3.8-9,3.1c0-0.6-0.1-1.3-0.1-1.9c-3-1.7-6.3-0.7-6.5,3.1
		c-0.2-4.5-4.5-4.3-6.3-1.1c-0.8-4.2-7-5.2-7.4-0.1c0-0.1,0.2-1.1,0.2-1.2c-0.3,0.2-2.1,1.1-2.4,1.2c-0.8-1.5-1.4-3.2-2.9-4.3
		c-0.4,1.1-1.7,2.8-2.1,3.9c-0.2-1.6-1.1-1.7-1.7-2.8c-1.2,1.5-2.3,3.4-3.4,4.7c1-4.7-3.8-2.1-5.3-0.1c-0.4-4.5-4.9-2.1-6,0.5
		c-1-1.3-2.4-1.9-3.8-2.5c-0.3,1.2-1.3,2.4-1.6,3.5c-0.7-2.9-4.2-2-5.8-0.1c-1.4-2.7-4.1-1.5-6.1,0.1c-3.3-4.2-7.3-2.8-10.6,0.5
		c-0.8-1.6-1.8-1.7-3.4-2.4c-0.7,1.5-1.7,2.8-1.9,4.5c-1-0.7-3-0.9-4.1-1.5c-0.6,1.3-1.7,2.5-2.2,3.8c1.1-4.9-5.9-3.3-7.4,0.1
		c-6.9-5.1-6.1-2.6-11.5,2.6c0.2-3.3-4.8-3.3-7.7-3.6c-0.3,0.9-1.1,1.6-1.3,2.5c-0.4-5.1-6.1-2.3-8.3,0c-0.1,0.4,0,0.4,0.1,0
		c-2.2-8.7-10.6,1.1-12.3,4.7c-8.7-4.3-11.9-5-18.6,2.1c0.8-6-4.4-1-5.7,1.4c0.4-1.5-0.2-1.5-0.3-2.6c-1.7,0.3-2.9,1.4-3.5,3.1
		c-1.1-4.7-5.4-2.4-5,0.8c-0.6-7.1-7.4-2.5-10.6-0.8c-0.9-6.5-6.1-2.6-8.1,1.1c2.9-5.8-7.2-7.3-9.2-0.5c1.1-3-2.7-5.5-5.5-4.5
		c-2.1,0.7-3.7,5.1-4,7.1c0.8-2.7-1.7-3.6-3.9-2.5c-1.8,0.9-2.6,5.1-3.6,6.6c1.2-2.7-0.8-5.9-3.8-5.2c-2.3,0.5-3.4,3.9-4.2,5.7
		c-2.2-6.3-9.5,0.2-6.2,4c-2.3-3.7-9.7-2.2-10.2,2.7c-1.7-6.9-7.2-2.7-10,0.8c1.9-5.1-5.9-5.6-7.7-0.5c-3.4-3.8-8.3,0.4-8.4,3.9
		c-1.2-5.6-6.5,1.7-6,5.1c-3.9-2.8-18-2-20.1,2.6c-2.6-3.8-8.1,0.9-8.8,4.2c-1.4-5.6-6.9-1-9.8,0c-1.7-5-4.6-0.2-7,0.1
		c-3.8,0.5-6.6-0.9-10.9,0.2c-0.2-5.6-9.6-9.3-10.3-2.1c0.1-4.8-6.8,0.8-8.2,2.9c-1.8-4.3-7.8-4.1-7.1,1.2
		c-5.9-3.8-8.7-4.5-10.7,3.2c-0.5,0-0.9-0.3-1.4-0.3c-0.9-1.7-3.1-3.3-5-3.9c-0.4,1-1.6,1.9-1.9,2.8c0.5-8.1-6.7-1.7-8.8,0.3
		c2.7-8.5-7.1,2.2-8,2.9c-2.9-7-13.9-2.8-16.9,2c0-0.2-0.1-1.3,0.1-1.9c-2-0.1-3.3,1.6-4.6,3.3c-0.8-5.3-5.3-7.9-7.2-1.6
		c2-6.6-3.7-1.6-5.4,0.5c1.4-2.7-0.3-4.4-3-4.2c-2.3,0.2-4.5,4.3-5.3,6c2.8-6.7-6-7.3-9.6-3.2c-0.2-5.6-4.8-3.3-7.3-1.3
		c-5.4-5.5-4.9-1.2-10.2-0.8c-2.8,0.2-4.7-2.6-7.8-1.8c-2,0.5-3.5,2.6-5.3,3.7c-1.7-4.5-6.7-2-8.5,1.2c-2.1-5.6-9.7-7.2-15-7.7
		c-7-0.7-9.9,2.5-12.3,8.5c-1.5-2.4-2.8-7.8-5.8-9.3c-4.5-2.2-9.6,3.3-12.6,6.2c-0.8,0.8-2.8,4.3-3.9,4.5c-1.9,0.4-5.5-3-7.8-3.1
		c-5.8-0.3-11.8,4-15.1,7.7c-9.3-13.3-25.1-5-30.8,5.7c0.8-2.9,1.5-6,2.2-8.8c-4,2.1-11.3,6.4-12.5,9c-1.4-14-12.5-3.8-16,5
		c-1-5.6-4.2-5.5-5.9-9.1c-1.2,1.9-4.2,3.9-5.7,5.9c-0.9-16-21.6-7-24,4.3c2.7,0.8,2.6,3.6,4.7,5.5l304.4,85.2
		c-10.4,21.9-14.8,44.6-13.4,68.1c30-5.1,85.8,32.9,112.5,46.4c47.2,23.7,108.1,38.4,149.7,70.9c58.7,45.9,120.1,53.3,186.1,21
		c29.4-14.4,42.8-31.1,61.5-56.6c10.5-14.3,21.5-24,38.8-29c30.9-9,68.4-7.4,99.2,0.5c7.8-25.6,3.7-52.8,14.1-79.3
		c8.1-20.5,16.9-38.4,17.2-61.1C1520,667.4,1494.4,620,1504.7,596.6z"/>
	<path clip-path="url(#SVGID_2_)" fill="#5A395B" d="M-88.3,529.2c2.4-8.5,9.8-0.2,9.1,5.5c-0.4-1-0.4-2.2-0.6-3.2
		c2.2-0.6,4.5,0.7,6.2,1.9c-0.6-2.9,6.7-5.5,9-4c1.8-2.1,5.4-0.5,7.7,0.8c0.4-5.8,6.2-4.8,10-2.7c0.6-5.1,5.3-3.8,7.9-1.1
		c2-3.1,5.1-1.5,7.6,0.3c2.5-2.8,7.6-8,11.5-4c2-3.1,8.4-4,11.6-2.7c1.4-1.4,2.7-3.2,3.8-4.8c1.8,0.7,3.2,2.5,4.1,3.9
		c2.2-6.8,8.3-5.2,11.9-0.4c0.5-4.8,7.5-4.9,10.3-1.7c1.8-2.9,2.7-0.5,4.5-0.7c1.3-0.1,4.5,0.1,6.3-0.5c-0.3,0.1,3-0.6,3.1-0.6
		c0.9-0.1,2.3-1,3.5-1.1c0.9-0.1,2.2,1.3,3,1.3c1.4,0,2.1-1.1,3.5-1.2c2.3-0.3,4.5,0.3,6.5,0.1c2-0.2,4.8-2,7-1.7
		c3.7,0.5,2.7,2.2,6.7,1.8c3.7-0.3,4.7-3,7.8,1.1c0.1-0.5-0.1-0.8-0.1-1.3c2.9-0.5,5.3-1.2,8-0.9c1.5,0.2,4.6,2.7,6.3,2
		c1.7-0.8,0.3-1.5,1.4-2.7c2.1-2.1,0.8-4.3,5-4.3c2.5,0,4.3,1.7,5.7,3.5c3.1-1.8,5.1-0.1,7.3,2.3c0.8-3.5,5.1-3.9,7.2-1.1
		c2.5-2.7,10.5-3.4,13.5-0.7c1.2-2.1,2.8-1.7,4.9-1.8c1,0,2,1.6,2.8,1.6c1.3,0,2-0.9,3.3-0.9c3.8,0,11.7-1.5,14,2.2
		c1.9-2.1,4.5-1.6,6.2,0.6c2.3-2.5,5.2-1.9,6.3,1.3c-2.6-6.8,6.4-8.8,7.9-1.6c0.5-1.5,1.7-2.3,2.8-3.4c0.5,1,1.4,1.4,1.6,2.7
		c0.7-0.9,2.2-1.1,3.1-1.9c1.1,1.2,2.4,2.4,3.6,3.4c0.4-2.8,5.7-6.6,6.3-2.2c4.6-1.9,7.4-0.9,7.8,4.3c-1.5-5.7,6.4-2.4,8.1,0.2
		c0.3-2,1.2-2.7,2.9-3.3c0.2,1.3,1.2,2.1,1.1,3.6c1.6-1.5,3.6-2.4,5.5-1.4c0.3-1.7,1.4-2.5,2.3-3.8c0.4,0.5,1.8,1.2,2.2,1.7
		c1-3.4,5.5-2.2,6.4,0.9c-0.3-0.2-0.6-0.5-1-0.7c4.2,0.9,9-2.8,8.6,4.1c0.1-0.6,0.2-1.2,0.3-1.8c3.2-1.3,6.3,0,6.1,3.8
		c0.7-4.4,4.9-3.7,6.4-0.4c1.3-4.1,7.6-4.4,7.3,0.7c0-0.1-0.1-1.1-0.1-1.2c0.3,0.3,2,1.3,2.3,1.4c0.9-1.4,1.8-3.1,3.3-4
		c0.3,1.1,1.3,2.9,1.6,4.1c0.4-1.6,1.2-1.5,2-2.6c1,1.6,1.9,3.7,2.8,5c-0.5-4.8,4-1.7,5.3,0.5c0.9-4.4,5.1-1.5,5.9,1.2
		c1.1-1.2,2.6-1.6,4.1-2c0.1,1.3,1,2.5,1.2,3.6c1-2.8,4.4-1.6,5.8,0.6c1.7-2.5,4.2-1,6.1,0.8c3.7-3.8,7.6-1.9,10.4,1.7
		c1-1.5,2-1.5,3.6-2c0.6,1.6,1.3,3,1.4,4.7c1.1-0.6,3.1-0.5,4.3-1c0.4,1.4,1.4,2.7,1.8,4c-0.6-5,6.2-2.6,7.3,0.9
		c7.5-4.3,6.3-1.9,11.2,3.8c0.2-3.3,5.2-2.7,8.1-2.7c0.2,1,0.9,1.7,1,2.7c1-5.1,6.3-1.6,8.3,0.9c0,0.4,0,0.4-0.1,0
		c3.2-8.3,10.4,2.3,11.7,6.1c9.2-3.3,12.4-3.6,18.2,4.2c-0.2-6.1,4.5-0.5,5.5,2c-0.2-1.5,0.4-1.5,0.6-2.5c1.6,0.5,2.7,1.8,3.1,3.5
		c1.6-4.6,5.6-1.8,4.9,1.4c1.4-7,7.6-1.7,10.6,0.4c1.6-6.4,6.4-1.9,7.9,2c-2.2-6,7.9-6.4,9.2,0.5c-0.7-3.1,3.3-5.2,6-3.9
		c2,1,3.1,5.5,3.2,7.5c-0.5-2.8,2.1-3.4,4.1-2c1.6,1.1,2,5.4,2.8,7c-0.9-2.8,1.4-5.8,4.4-4.8c2.2,0.8,2.9,4.2,3.5,6.1
		c2.9-6,9.4,1.3,5.7,4.7c2.7-3.5,9.8-1.1,9.8,3.8c2.5-6.7,7.5-1.9,9.9,2c-1.3-5.3,6.5-4.9,7.7,0.4c3.8-3.4,8.2,1.4,7.9,4.8
		c1.9-5.4,6.2,2.5,5.4,5.8c4.2-2.3,18.1,0,19.6,4.9c3-3.5,7.9,1.8,8.3,5.1c2-5.4,6.9-0.3,9.7,1.1c2.3-4.8,4.6,0.3,6.9,0.9
		c3.8,0.9,6.7-0.1,10.8,1.5c0.9-5.6,10.6-8.2,10.5-0.9c0.4-4.8,6.7,1.6,7.8,3.8c2.3-4.1,8.2-3.2,7,2c6.3-3.1,9.2-3.5,10.2,4.4
		c0.5,0.1,0.9-0.2,1.4-0.2c1.1-1.6,3.5-2.9,5.5-3.3c0.3,1,1.4,2.1,1.6,3c0.4-8.2,6.8-1,8.7,1.3c-1.7-8.8,6.8,3,7.7,3.8
		c3.6-6.6,14.1-1.2,16.6,3.9c0-0.2,0.2-1.3,0.1-1.9c2,0.1,3.1,2,4.2,3.8c1.4-5.2,6.2-7.2,7.3-0.8c-1.2-6.8,3.9-1.2,5.3,1.1
		c-1-2.8,0.8-4.4,3.4-3.8c2.3,0.5,4,4.7,4.6,6.6c-2.1-7,6.8-6.6,9.9-2.1c0.8-5.6,5.2-2.7,7.4-0.5c6-4.9,5-0.6,10.2,0.3
		c2.8,0.5,5-2,8-0.9c1.9,0.7,3.2,3,4.9,4.3c2.2-4.3,6.9-1.2,8.3,2.1c2.7-5.3,10.5-6,15.8-5.9c7.1,0.1,9.6,3.6,11.3,9.8
		c1.8-2.2,3.7-7.5,6.8-8.6c4.7-1.7,9.2,4.4,11.8,7.6c0.7,0.9,2.3,4.6,3.4,5c1.9,0.6,5.8-2.4,8.1-2.2c5.8,0.4,11.3,5.3,14.2,9.3
		c10.8-12.1,25.5-2.1,29.9,9.1c-0.5-3-0.8-6.1-1.2-9c3.7,2.5,10.5,7.6,11.4,10.3c3-13.8,12.9-2.4,15.3,6.8c1.6-5.4,4.8-5,6.9-8.4
		c1,2,3.7,4.4,5,6.5c2.7-15.8,22.2-4.5,23.4,7c-2.7,0.5-3,3.3-5.3,4.9l-312.1,50.4c7.8,23,9.7,46,5.6,69.2
		c-29.3-8.4-88.9,23-117,33.4c-49.5,18.3-111.8,26-156.7,53.6c-63.5,39-125.4,39.4-187.3-0.1c-27.6-17.6-39-35.8-54.8-63.2
		c-8.8-15.4-18.7-26.3-35.2-33.2c-29.7-12.4-67.1-15.1-98.7-10.7c-4.9-26.3,2.3-52.8-5.1-80.4c-5.7-21.3-12.4-40.1-10.2-62.6
		C-111.4,597.8-80.7,553.6-88.3,529.2z"/>
	<path clip-path="url(#SVGID_2_)" fill="#4D3054" d="M341,611c-4.1-7-3-14.3,4.1-18.3c1.6,3,4.4,6.7,5.1,10.1
		c-5.1-7.8-4.8-14.7,4.5-16.1c1.4-2.2,1.2-5.2,2.8-7.6c0.5,0.4,2.4,3,3.2,3.2c0.2-1.4-1-3.7-1.5-5c1.1-0.2,2.3-0.4,3.4-0.7
		c0-2.4,0.4-5.1,0.8-7.4c0.8-0.1,1.4,0.2,1.7,1c0.4-0.7,0.3-6,0.2-7c1.9-1.7,2.9,1.2,3.9,1c-2.5-8.6,0-7.5,1.8-13.5
		c0.9,1.3,2.8,4.2,4.1,5.6c-2-5.6-1.2-11.5-1.7-17.2c1.2,1.2,4.1,3.4,5.8,5.1c-2.5-5.1-0.9-9.9-1.8-15c2.4,1.2,4.9,1.2,7.8,3
		c-0.4-4.1,1-9.4,0.2-13.1c0.8,1.4,4.4,4.5,5.8,7.1c-0.2-2.9,0.4-6.2,0.2-9c7.2,1.7,8.9-0.6,13.8,7.1c1.8-7.5,2.9-8.4,6.1-12.2
		c-0.7-2.6-1.2-6.8-1.9-8.9c3.4-0.1,4.5,1,7.3,1.5c0.2-2.1-0.3-5.6,0.7-7.5c8.8-0.1,11.3,0.2,10,7.4c6.3-0.9,7.9,6.5,4.5,14.4
		c6.7,3.7,7.1,10,2,16c8.9-0.9,12.6,2.4,9.7,9.8c2.8-8.1,7.2-7.6,12-0.1c11.2-5.6,18.3,1.5,16,14.1c16.3-8.5,16.7,14.9,7.3,23.5
		c0.7,0.1,2.4-1.2,3.9-1c6.7,17.1-4.8,35.1-15.1,47.8c-18,22.1-29.8,20.1-50,4.2c-11.4,21.1-33.6-1.2-48.5-4.2
		C360.9,627.4,320,628,341,611z"/>
	<path clip-path="url(#SVGID_2_)" fill="#4D3054" d="M865,655c-4.1-7-3-14.3,4.1-18.3c1.6,3,4.4,6.7,5.1,10.1
		c-5.1-7.8-4.8-14.7,4.5-16.1c1.4-2.2,1.2-5.2,2.8-7.6c0.5,0.4,2.4,3,3.2,3.2c0.2-1.4-1-3.7-1.5-5c1.1-0.2,2.3-0.4,3.4-0.7
		c0-2.4,0.4-5.1,0.8-7.4c0.8-0.1,1.4,0.2,1.7,1c0.4-0.7,0.3-6,0.2-7c1.9-1.7,2.9,1.2,3.9,1c-2.5-8.6,0-7.5,1.8-13.5
		c0.9,1.3,2.8,4.2,4.1,5.6c-2-5.6-1.2-11.5-1.7-17.2c1.2,1.2,4.1,3.4,5.8,5.1c-2.5-5.1-0.9-9.9-1.8-15c2.4,1.2,4.9,1.2,7.8,3
		c-0.4-4.1,1-9.4,0.2-13.1c0.8,1.4,4.4,4.5,5.8,7.1c-0.2-2.9,0.4-6.2,0.2-9c7.2,1.7,8.9-0.6,13.8,7.1c1.8-7.5,2.9-8.4,6.1-12.2
		c-0.7-2.6-1.2-6.8-1.9-8.9c3.4-0.1,4.5,1,7.3,1.5c0.2-2.1-0.3-5.6,0.7-7.5c8.8-0.1,11.3,0.2,10,7.4c6.3-0.9,7.9,6.5,4.5,14.4
		c6.7,3.7,7.1,10,2,16c8.9-0.9,12.6,2.4,9.7,9.8c2.8-8.1,7.2-7.6,12-0.1c11.2-5.6,18.3,1.5,16,14.1c16.3-8.5,16.7,14.9,7.3,23.5
		c0.7,0.1,2.4-1.2,3.9-1c6.7,17.1-4.8,35.1-15.1,47.8c-18,22.1-29.8,20.1-50,4.2c-11.4,21.1-33.6-1.2-48.5-4.2
		C884.9,671.4,844,672,865,655z"/>
	<path clip-path="url(#SVGID_2_)" fill="#4D3054" d="M615.4,571.5c-0.8-9.7,0.2-4.8-6.1-11.7c12.3,0.3,17.4-17.9,3.1-18.5
		c6.6-3.4,12-25.1-5-24.3c2.7-7.2,2.3-14.7-2.4-20.1c2-2.2,3.5-7.5,6-9.7c-3-0.6-7.5-4.8-11.6-5.3c6-9-0.5-35.2-10.4-38.3
		c0.8,3.7-0.2,8.2,0.9,11.8c-8.4,7.2-6.4,19.5,0.1,27.7c-18.3,0.2-8.9,12.5-5.9,21.2c-1.6,2.8-1.5,6.1,1,8.3c0,0.2,0,0.5,0,0.7
		c-5,0.1-7.3,3.6-4.7,7.3c-12.2-5.9-17.5,5.3-6.6,10.8c-3.6-1.4-7.1-1.1-10.4-2.1c0.4,8,3.2,11.1,11.4,12c-8,7.4-11.4,21.5,6,18
		c-1.7,3.8-1.8,7.3-0.9,10.2c-4.9,8.9-4.4,20.3,5.1,26.4c-0.9,6.6,1.5,14.4,5.7,19.5c10.7,12.8,17.5,28.1,18.4,2.4
		c0.1-3.7-3.1-19.8-2-22c3.7-7.4,14.5,1,17.3-10.1c-1.1,0.4-5.8,0-7.1-0.3C631.2,585.8,629.4,569.1,615.4,571.5z"/>
	<path clip-path="url(#SVGID_2_)" fill="#4D3054" d="M1073.4,687.5c-0.8-9.7,0.2-4.8-6.1-11.7c12.3,0.3,17.4-17.9,3.1-18.5
		c6.6-3.4,12-25.1-5-24.3c2.7-7.2,2.3-14.7-2.4-20.1c2-2.2,3.5-7.5,6-9.7c-3-0.6-7.5-4.8-11.6-5.3c6-9-0.5-35.2-10.4-38.3
		c0.8,3.7-0.2,8.2,0.9,11.8c-8.4,7.2-6.4,19.5,0.1,27.7c-18.3,0.2-8.9,12.5-5.9,21.2c-1.6,2.8-1.5,6.1,1,8.3c0,0.2,0,0.5,0,0.7
		c-5,0.1-7.3,3.6-4.7,7.3c-12.2-5.9-17.5,5.3-6.6,10.8c-3.6-1.4-7.1-1.1-10.4-2.1c0.4,8,3.2,11.1,11.4,12c-8,7.4-11.4,21.5,6,18
		c-1.7,3.8-1.8,7.3-0.9,10.2c-4.9,8.9-4.4,20.3,5.1,26.4c-0.9,6.6,1.5,14.4,5.7,19.5c10.7,12.8,17.5,28.1,18.4,2.4
		c0.1-3.7-3.1-19.8-2-22c3.7-7.4,14.5,1,17.3-10.1c-1.1,0.4-5.8,0-7.1-0.3C1089.2,701.8,1087.4,685.1,1073.4,687.5z"/>
	<path clip-path="url(#SVGID_2_)" fill="#4D3054" d="M911.4,675.5c-0.8-9.7,0.2-4.8-6.1-11.7c12.3,0.3,17.4-17.9,3.1-18.5
		c6.6-3.4,12-25.1-5-24.3c2.7-7.2,2.3-14.7-2.4-20.1c2-2.2,3.5-7.5,6-9.7c-3-0.6-7.5-4.8-11.6-5.3c6-9-0.5-35.2-10.4-38.3
		c0.8,3.7-0.2,8.2,0.9,11.8c-8.4,7.2-6.4,19.5,0.1,27.7c-18.3,0.2-8.9,12.5-5.9,21.2c-1.6,2.8-1.5,6.1,1,8.3c0,0.2,0,0.5,0,0.7
		c-5,0.1-7.3,3.6-4.7,7.3c-12.2-5.9-17.5,5.3-6.6,10.8c-3.6-1.4-7.1-1.1-10.4-2.1c0.4,8,3.2,11.1,11.4,12c-8,7.4-11.4,21.5,6,18
		c-1.7,3.8-1.8,7.3-0.9,10.2c-4.9,8.9-4.4,20.3,5.1,26.4c-0.9,6.6,1.5,14.4,5.7,19.5c10.7,12.8,17.5,28.1,18.4,2.4
		c0.1-3.7-3.1-19.8-2-22c3.7-7.4,14.5,1,17.3-10.1c-1.1,0.4-5.8,0-7.1-0.3C927.2,689.8,925.4,673.1,911.4,675.5z"/>
	<path clip-path="url(#SVGID_2_)" fill="#4D3054" d="M691,607c-4.4-9.7,2-40,11.7-28.6c-6.8-7.6-10.3-26.7,4.1-26.1
		c-5.8-11.5,2.5-26.1,14.4-15.9c-3.1-6.6-3.3-14.3-0.2-20.5c0.6,1.9,1.3,4.6,2,6.6c0-9.7-0.2-19.5,0.3-29.1c2.7,1.4,4.8,0.8,7.8,3
		c-0.6-3.5,0.9-7.9,0.2-11.1c0.7,0.1,6.9,0.2,7.4,0c0.9,2.4,0,4.9,0.6,7.4c15,2.4,2.2,11.8,3.6,20.3c1.4,8.9,15.2,14.1,2.8,23.5
		c9.8,2.6,11.7,12,8.1,20.6c1.3,4.7,4.3,4.6-2.1,11.6c1.4,0,3.9-0.9,5.1-1.5c-2.6,5.6-2.7,9.2-9,13.9c3.6-0.7,7.6,0.6,11,0.2
		c-2.3,6.1,1.2,6.7-5.1,11.8c2.1-0.1,5.3,0.5,7.1,0.2c-0.6,4.8,1.1,9.3-0.9,13.7c6.3,8.2-1.5,15.2-10.9,16.8
		c-5.8,11.7-39.4,16.7-42.2,1.4C686.2,626.9,682.8,623.4,691,607z"/>
	<g clip-path="url(#SVGID_2_)">
		<rect x="445" y="555" fill="#432A49" width="76" height="46"/>
		<polygon fill="#432A49" points="435,555 529,555 481,531 		"/>
		<rect x="414.8" y="577.9" fill="#432A49" width="56.5" height="34.2"/>
		<polygon fill="#432A49" points="407.4,577.9 477.2,577.9 441.5,560.1 		"/>
		<rect x="513.2" y="536.7" fill="#432A49" width="46.9" height="68.3"/>
		<polygon fill="#432A49" points="507,537.7 565,537.7 535.4,502 		"/>
		<rect x="559.5" y="557.2" fill="#432A49" width="34" height="49.5"/>
		<polygon fill="#432A49" points="555,557.2 597,557.2 575.6,531.3 		"/>
		<rect x="609.5" y="566.8" fill="#432A49" width="34" height="41.8"/>
		<rect x="693.5" y="594.8" fill="#432A49" width="34" height="41.8"/>
		<rect x="637.5" y="576.8" fill="#432A49" width="54" height="31.8"/>
		<polygon fill="#432A49" points="605,566.8 647,566.8 625.6,545 		"/>
		<polygon fill="#432A49" points="633.6,583 699.3,583 665.7,548.9 		"/>
		<polygon fill="#432A49" points="685.3,597.2 735.6,597.2 709.9,572.8 		"/>
	</g>
	<g clip-path="url(#SVGID_2_)">
		<rect x="937.4" y="621" fill="#432A49" width="76" height="46"/>
		<polygon fill="#432A49" points="1023.4,621 929.4,621 977.4,597 		"/>
		<rect x="987.1" y="643.9" fill="#432A49" width="56.5" height="34.2"/>
		<polygon fill="#432A49" points="1051,643.9 981.2,643.9 1016.8,626.1 		"/>
		<rect x="891.2" y="610.7" fill="#432A49" width="46.9" height="68.3"/>
		<polygon fill="#432A49" points="885,611.7 943,611.7 913.4,576 		"/>
		<rect x="1075.5" y="637.2" fill="#432A49" width="34" height="49.5"/>
		<polygon fill="#432A49" points="1071,637.2 1113,637.2 1091.6,611.3 		"/>
		<rect x="1125.5" y="646.8" fill="#432A49" width="34" height="41.8"/>
		<rect x="1209.5" y="674.8" fill="#432A49" width="34" height="41.8"/>
		<rect x="1153.5" y="656.8" fill="#432A49" width="54" height="31.8"/>
		<polygon fill="#432A49" points="1121,646.8 1163,646.8 1141.6,625 		"/>
		<polygon fill="#432A49" points="1149.6,663 1215.3,663 1181.7,628.9 		"/>
		<polygon fill="#432A49" points="1201.3,677.2 1251.6,677.2 1225.9,652.8 		"/>
	</g>
	<path clip-path="url(#SVGID_2_)" fill="#432A49" d="M67,640.2c1.8-2.6,5.8-5.1,8.4-6.9c0.9,1.6,3.3,2.9,4.3,5.1
		c0.2-0.9,0.2-2.5,0.2-3.4c4.4-2.4,9-2.3,12.5,0.7c1.7-5.6,7.5-6.4,12.6-3.7c3.5-8.9,10.5-4,14.1,2.4c-0.6-2.4,0.4-5.1,0.1-7.4
		c6.7-3.2,11.1,0.5,11,7.4c-0.6-2.3,0.3-5.2,0.2-7.5c4.3,1,5.9-0.8,9.7,2c-0.3-2.2,0.6-5.2,0.1-7.2c1.5,2.4,5.3,5.4,6.5,7.6
		c-0.5-12,18.2-10.9,18.6,1c-0.2-5.5,2.7-10.4,7.3-14c0.9,2.4,3.2,4.6,3.9,7.2c-0.7-6.5,3.6-7.9,9.5-5.5c2.9-7.6,8.9-4.9,11.5,1.4
		c-0.8-7.1,6.2-10.1,10.1-5.2c3.5-6.2,9.6-6,13.8,0.4c2.3-6.8,7.6-9.3,12.4-1.9c0.5-1,1.6-3.7,1.9-4.8c0.6,0.5,2.9,2.8,3.9,3.4
		c3.6-6.6,9.4-2.2,11.3,4.2c0-6.6,2-4,5.6-7.5c2.7,3.8,6.2,7.7,9.5,10.5c-1-5,1.5-7.7,3.1-10.8c1.8,2.6,6,4.1,8.1,6.5
		c1.4-11.3,20-11.5,22.7-4.7c0.6-7.2,8.5-10,11.3-2.7c0,1-0.1,0.9-0.2-0.1c5.5-5.2,8.7-0.3,8.5,6.2c1-5.3,5.4-8,11-7.4
		c1,2.6,3.4,3.8,4.6,6c-1-10.9,16.9-10,19.9-2.4c6.3-4.9,13.7-13.3,21.9-6.7c2-8.4,9.9-10.3,15.4-4c2.5-12.7,14.5,0.8,19.9,4.3
		c6.1-5.1,17.5-10.3,23.5-3c1.9-12.4,17-8.4,23.8-2.7c3-7.1,11.4-13.1,17.5-5.7c4.2-6.8,12.6-6.2,18.2-1.3c5.5-8.8,23.8-5.4,26,3.1
		c0.1-1.6,0.7-3.6,0.5-5.2c1.5,1.6,5.3,2.8,7.2,4.8c4.2-6.2,12.3-3.7,16.8,1.6c4.7-6.6,11-8.2,14.8,0.1c0.8-1,2.6-3.3,3.1-4.1
		c0.5,1.1,3.5,4,3.9,5.5c0.8-1.8,2.7-4.2,3.2-5.4c0.8,2.6,2.9,4.1,3.1,8.1c11.2-9.7,14.7,1,22.5-3.4c0.5,1.1,2,3.9,2.7,4.7
		c4.6-3.5,9.3-3.3,12,1.4c2.8-6.1,3.9-3.1,8.5-5.1c0.2,0.8,0.3,1.6,0.5,2.3c7.4-8.1,15.1,1.9,22.2,2.8c4.9-7.1,17.9-10.6,17.2,1.2
		c2.4-7.9,11.9-6.3,13.7,2.3c5.9-15.2,12.5,2.4,13.9,6.1c0.8-13,13.1-8.1,14.1,2.1c0.1-14.3,11.1-3.9,14,2.7
		c4.5-7.8,12.5-5.1,18.3-0.1c4.6-8.8,15-12.4,22.3-5.1c5.5-7.2,14.4-6.8,18.7,1.3c4.7-4.3,10.8-3.3,14,2.7c5.5-4.9,9.1,0.4,12.3,5.7
		c3.7-6.4,11.9-5.7,14,2c0.8-2,2.1-2.7,3.1-4.7c4.3,2.1,9.2,5.4,13.4,7.7c4.2-5.2,9.4-4,12.6,1.4c5.7-10.4,27-11.3,28.6,2.7
		c8.1-9.4,16.1-3.6,19.4,6.4c1.7-2.6,4.6-3.7,5.4-4.8c-0.3,0.9,0.1,3.8,0.2,4.8c1.2-9.2,9.9-6.8,11.2,1.3c0.6-1.7,1.4-2.6,1.7-4.7
		c5.5-0.3,9.2,4.3,9.6,6.7c1.1-7.2,6.9-5.9,12.4-2.7c0.1,0.8,0.3,1.6,0.5,2.3c6.5-7.4,18.9-9.9,23.9,1.4c8.5-8.9,12,2.6,19.3,5.2
		c6.1,2.2,13.3-6.8,15.8,5.5c5.3-12,10.4-1.2,16.5-1.1c11.1,0.3,12.3-8.4,21.1,6.1c3.9-12.5,15.5-4.5,17.2,4.4c1-3,5-6,6.9-9.2
		c2.6,2.6,6.7,5.9,8.1,9.5c5.6-12.1,17.1-5.6,19.7,4.7c2.3-3.2,5.9-3,8.1-4.7c0.9,3,3.9,5.7,4.5,8.8c2.6-5,5.4-4.1,9.6-6
		c1.1,2.7,3.3,3.3,4.5,5c2.2-3.9,5.6-4.2,8.5-6.4c1.2,3.3,4.7,6.8,5.6,10.2c1.3-3.3,4.1-4.5,5.6-7.1c1.1,3.1,4.6,5.5,5.6,7.8
		c4.4-9.7,14-7.4,17.2,2c1.4-3,5-4.3,6.4-6.1c0.9,1.3,2.1,2.4,3,3.7c3.3-2.8,7.9-4.8,12.5-5c0.4,2.9,2.9,5.1,3.4,7.8
		c3.6-3.7,6.9-3.5,12.1-3.7c0.2,2.5,2.5,6.3,2.7,7.8c2.6-10.3,11.3-6.1,11.9,2.7c8-7.7,14.8-7.9,16.9,3.8c2.1-5,5.9-9.2,10.6-12.7
		c1.5,3.9,4.3,7.5,5.9,11.2c2.6-7.3,9.5-10.2,13.8-2.7c2.1-10.8,13.5-2.2,21.1-6.1c0.6,1.8,1.5,3.1,2,5c6.3-5.7,15.7-6.2,13.7,5.2
		c1.2-10.7,12.5-6.6,14.3,1.6c8.1-10.4,7.9,0.8,14,2.6c6.9,2,13.7-6.5,13.4,5.5c0.6-11.8,10.1-7.2,10.4,2.4
		c2.4-8.3,13.9-13.6,12.6-1.1c1.7-1.8,6.5-3.5,8.3-5.4c0.9,1.7,4.6,4.1,5.5,5.8c7.3-8.4,11.5-0.9,11.3,7.4c1.1-4.3,3.6-8.8,7-11.8
		c5,3.4,9.1,6.8,14,4.2c0,4.5,2.8,20.8,2.8,28.3v188.8c-8.9,0.5-17.8-1.6-26.7-2.7H8c-0.6,5.8-0.2,11.6,1.2,17.2
		c4.3-49.4-2.6-98.4,4.2-148c3.6-26.2,2.7-53.3,4.6-79.5c1-14.8,3-26.4,14.3-36C41.6,656.8,61.7,647.8,67,640.2z"/>
	<path clip-path="url(#SVGID_2_)" fill="#3C2442" d="M543.6,725.6c0.3-4.6,7.7-14.3,12-6.8c-0.9-4.2,2.4-5.7,6.6-4
		c2.5-7.1,9.6-4.8,13.9-0.8c3.2-7.2,12.9-5.5,18-0.8c1.2-10.4,12.7-8.3,17.1-1c13.5-9.8,19.3-9,33.8-4c1.1-7.9,11-4.6,13.8,0.7
		c2.9-7.5,9.2-9.8,16-4c1.3-7.4,12.3-8.1,15.1-0.8c4.1-3.3,10.2-7.4,14.2-1c5-7.4,15.8-0.9,23.7-1.1c10-0.2,14.9-4.4,22,3.7
		c3.4-6.3,10.3-3.5,15.9-3.7c6.7-0.2,8.2-2.5,14.2,2c4.1-4.3,11.5-9.3,17.7-8.9c4.2-6.1,10.4-6.9,15.7-1.6
		c-2.7-10.9,24.1-16,30.9-7.4c2.4-6.8,15.4-10.9,20-3.5c0.5-10,15.6-8.3,20.8-2.3c4.3-4.7,7.4-0.6,8,3.3c0.9-5.6,5.7-4.7,8.3-0.2
		c-1.2-6.7,8-7.1,8.9-0.8c0.9-6.1,17.3-12.5,19.1-3.1c3.5-3.7,9.4-4.2,9.8,1.5c-1.7-8.3,11.8-6.6,13,0.8c1.2-3.5,4.1-6.6,8-8.1
		c1.2,1.8,3.6,2.5,4.2,5c2.3-3.7,6.5-7.8,11.6-8.1c0.8,2,2.9,2.6,3.9,3.9c4.6-5.1,20.1-5.6,22.4,1.7c4.2-7.1,9.1-1.1,12,3.2
		c2.5-1.6,5.7-3.5,8.8-4.5c3.4,8,9.8-0.6,15.9-1.6c1.4,2.5,4,3.1,5.9,4.7c8.9-4.5,14.4-10.7,19.1,0.5c10.2-9,19.1,4.3,19.9,11.8
		c7.4-5.8,21.6-3.5,29.9-1c10.8,3.3,34.6,9.3,36.8,20.7c9.1-2.3,16.8-1.7,20.9,6.6c13.3,0.3,28.1,0.5,30.7,13.1
		c1.9,9.3-4.8,20.3-10,28.2v68.9c-9.5-1.6-19.2-2.4-28.9-2.3c2.5,7.9,5.6,16.3,2.9,24.9c-5.3,16.9-9.7,19.8-29.7,18.9
		c-60.5-2.8-120.3-11.4-180.4-17.9c-66.2-7.2-133.7-5.7-200.4-7.4c-59.1-1.6-118.1-2-177.1-5c-21.5-1.1-42.7-3.3-64-5.6
		c-12.7-1.4-25.7,0.1-37.8-2.6c-11.9-2.7-29.2-4.1-29.5-15.8c-0.3-13.2,7.1-28.5,13.9-40.2c3.5,0.3,7.4,1.6,10.9,2.1
		c1.7-7.2,12.6-29.5,23.6-15.7c2-6.3,4.9-12,14-8.9c-0.1-5,3.9-8.3,10-8.3c-0.2-3.2,0-6.7,1.3-9.7c0.6,0.6,2.1,1.4,2.9,2.2
		c-0.3-1.5,0.3-3.2,0.1-4.6c1.2,0.5,3.3,0.6,4.6,1.5c2.6-1.3,3.1-1.4,6.1-2.5c0.1-3.9,0.8-3.5,4-4.7c0.3,1.4,0.9,2.3,1.2,3.7
		c0-1.8,0.9-2.8,1.1-4.6C543.3,723.4,542.3,724.5,543.6,725.6z"/>
	<path clip-path="url(#SVGID_2_)" fill="#35203A" d="M-11.5,592c3.8-8,9.7,1.4,8.1,6.8c-0.3-1-0.1-2.2,0-3.3
		c2.3-0.3,4.3,1.4,5.8,2.9c-0.1-3,7.5-4.3,9.5-2.5c2.1-1.8,5.4,0.4,7.5,2c1.4-5.7,6.9-3.7,10.3-1.1c1.4-5,5.8-3,8,0.1
		c2.5-2.7,5.2-0.6,7.5,1.5c2.9-2.4,8.8-6.6,12-2.1c2.5-2.8,8.9-2.7,11.9-0.8c1.6-1.2,3.1-2.7,4.5-4.1c1.7,1,2.7,2.9,3.4,4.5
		c3.3-6.4,9-3.8,11.8,1.5c1.2-4.6,8.2-3.7,10.5,0c2.2-2.6,2.8,0,4.5,0.1c1.3,0.1,4.5,0.8,6.3,0.5c-0.3,0,3.1-0.1,3.1-0.1
		c0.9,0.1,2.4-0.6,3.6-0.5c0.9,0.1,2,1.7,2.8,1.8c1.4,0.2,2.3-0.7,3.6-0.7c2.3,0.1,4.3,1,6.4,1.1c2,0.1,5.1-1.2,7.1-0.5
		c3.5,1.1,2.3,2.6,6.4,2.9c3.7,0.3,5.1-2.2,7.5,2.4c0.1-0.4,0-0.8,0.1-1.3c3,0,5.4-0.4,8,0.4c1.5,0.4,4.1,3.4,5.9,3
		c1.8-0.5,0.5-1.5,1.8-2.4c2.4-1.7,1.5-4.1,5.7-3.5c2.4,0.4,4,2.4,5.1,4.4c3.3-1.3,5,0.7,6.8,3.4c1.4-3.3,5.7-3,7.2,0.1
		c2.9-2.3,10.9-1.7,13.4,1.4c1.5-1.9,3-1.2,5.1-1c1,0.1,1.7,1.9,2.5,2c1.2,0.2,2.1-0.6,3.4-0.4c3.7,0.6,11.8,0.3,13.5,4.4
		c2.2-1.7,4.7-0.9,6,1.6c2.6-2.1,5.4-1,6,2.3c-1.5-7.2,7.7-7.7,8.1-0.4c0.7-1.4,2-2,3.3-2.9c0.3,1.1,1.1,1.6,1.2,2.9
		c0.9-0.8,2.4-0.8,3.3-1.4c0.9,1.4,2,2.8,3,3.9c0.9-2.7,6.7-5.6,6.6-1.1c4.8-1.1,7.4,0.3,7,5.5c-0.6-5.9,6.7-1.4,8,1.5
		c0.6-1.9,1.6-2.5,3.4-2.8c0,1.3,0.8,2.3,0.5,3.7c1.8-1.2,3.9-1.8,5.7-0.5c0.5-1.7,1.8-2.3,2.9-3.4c0.3,0.6,1.6,1.5,1.9,2
		c1.5-3.2,5.8-1.3,6.2,1.9c-0.3-0.3-0.5-0.6-0.9-0.9c4,1.6,9.3-1.3,7.8,5.4c0.2-0.6,0.4-1.2,0.6-1.8c3.4-0.8,6.2,1,5.4,4.7
		c1.4-4.3,5.5-2.9,6.4,0.6c1.9-3.8,8.2-3.1,7.1,1.9c0.1-0.1,0.1-1.1,0.1-1.2c0.2,0.3,1.7,1.6,2,1.8c1.1-1.2,2.2-2.7,3.9-3.4
		c0.1,1.2,0.9,3.1,1,4.3c0.7-1.5,1.5-1.3,2.4-2.3c0.8,1.8,1.3,3.9,2,5.4c0.3-4.8,4.2-1,5.1,1.4c1.6-4.2,5.3-0.7,5.6,2.1
		c1.3-1,2.8-1.1,4.3-1.4c-0.1,1.3,0.6,2.7,0.6,3.8c1.4-2.6,4.6-0.9,5.6,1.5c2.1-2.2,4.3-0.3,5.8,1.7c4.3-3.1,7.8-0.7,10,3.4
		c1.2-1.3,2.2-1.1,3.9-1.4c0.3,1.6,0.9,3.1,0.7,4.8c1.2-0.4,3.2,0,4.4-0.3c0.2,1.4,0.9,2.9,1.1,4.3c0.2-5.1,6.5-1.6,7.1,2.1
		c8.1-3.1,6.5-0.9,10.4,5.6c0.7-3.2,5.6-1.9,8.4-1.4c0,1,0.6,1.8,0.6,2.8c1.8-4.8,6.5-0.6,8,2.2c0,0.4-0.1,0.4-0.1,0
		c4.4-7.7,9.9,4,10.6,7.9c9.6-1.8,12.9-1.6,17.3,7c0.8-6,4.5,0.3,5.1,2.9c0-1.5,0.6-1.4,1-2.4c1.5,0.8,2.4,2.2,2.5,3.9
		c2.3-4.3,5.8-0.9,4.6,2.1c2.5-6.7,7.8-0.4,10.4,2.1c2.6-6.1,6.6-0.8,7.5,3.3c-1.2-6.3,8.9-5.1,9,2c-0.2-3.2,4.1-4.6,6.5-2.9
		c1.8,1.3,2.2,5.9,2,7.9c-0.1-2.8,2.6-3,4.4-1.4c1.5,1.3,1.1,5.6,1.6,7.4c-0.4-2.9,2.3-5.5,5.1-4c2.1,1.1,2.2,4.6,2.5,6.6
		c3.8-5.5,9,2.7,4.9,5.5c3.2-3,9.9,0.5,9.1,5.3c3.5-6.2,7.7-0.7,9.4,3.5c-0.4-5.5,7.2-3.8,7.5,1.6c4.3-2.7,7.9,2.7,7,6
		c2.7-5.1,5.8,3.4,4.4,6.6c4.5-1.6,17.9,2.9,18.6,7.9c3.6-3,7.5,3.1,7.4,6.4c2.8-5,6.9,0.9,9.4,2.6c3-4.4,4.5,1,6.7,1.9
		c3.6,1.5,6.6,0.9,10.4,3.2c1.7-5.4,11.7-6.4,10.5,0.8c1.2-4.6,6.3,2.6,7.1,5c2.9-3.7,8.6-1.9,6.5,3.1c6.7-2,9.6-2,9.4,6
		c0.5,0.1,0.9,0,1.4,0.1c1.4-1.4,3.9-2.3,5.9-2.4c0.2,1.1,1,2.3,1.1,3.2c1.7-8,6.9,0.1,8.4,2.7c-0.3-8.9,6.3,4.1,7,5
		c4.6-6,14.1,1.1,15.8,6.5c0-0.2,0.4-1.2,0.5-1.9c1.9,0.4,2.8,2.5,3.5,4.4c2.2-4.9,7.2-6.2,7.4,0.4c-0.1-6.9,4-0.6,5,1.9
		c-0.6-2.9,1.5-4.2,4-3.2c2.2,0.9,3.2,5.3,3.5,7.2c-0.9-7.2,7.8-5.5,10.1-0.5c1.7-5.4,5.5-1.8,7.4,0.7c6.7-3.9,5,0.2,10,1.9
		c2.7,0.9,5.2-1.2,8,0.4c1.8,1,2.7,3.4,4.1,5c2.9-3.8,7-0.1,7.9,3.4c3.5-4.8,11.3-4.3,16.5-3.3c7,1.3,8.9,5,9.6,11.5
		c2.1-1.9,4.8-6.8,8-7.4c4.9-0.9,8.4,5.8,10.4,9.4c0.6,1,1.5,4.9,2.6,5.4c1.8,0.9,6.1-1.4,8.4-0.9c5.6,1.3,10.3,7,12.5,11.5
		c12.6-10.3,25.6,2,28.1,13.8c0-3,0.2-6.1,0.2-9c3.3,3.1,9.1,9.2,9.6,12c5.2-13.1,13.1-0.3,14,9.2c2.5-5.1,5.5-4.2,8.2-7.2
		c0.7,2.1,3,4.9,4,7.2c5.2-15.2,22.7-0.9,21.9,10.6c-2.8,0.1-3.5,2.7-6,4H582.9c4.1,23.9,2.3,47-5.4,69.2
		c-27.5-13-91.5,8.6-120.8,14.3c-51.8,10.1-114.5,7.8-163.2,27.9c-68.9,28.4-130,18.9-184.8-30c-24.4-21.8-32.8-41.5-44-71.1
		C58.2,876.8,50.3,864.5,35,855c-27.3-17-63.9-25.6-95.7-26.3c-0.6-26.8,10.7-51.8,7.8-80.1c-2.3-22-5.9-41.6-0.1-63.4
		C-45.3,656.1-7.9,617.3-11.5,592z"/>
	<path clip-path="url(#SVGID_2_)" fill="#2D1D35" d="M1093,750.1c-39.3,0.8-78.6,3.7-117.7,8.5c-0.1-0.3-0.3-0.5-0.4-0.8
		c-4.5-8.7-19.9-7.6-23.1,1.6c-2.7-7.5-15.5-7.8-18.6-0.5c-0.7-2-1.4-4-2.1-6c-2.7,0.3-5.2,1.8-6.8,4c-0.9-2.2-1.8-4.4-2.7-6.6
		c-2.2-1.6-5.7-0.6-6.7,1.9c1-3.2,1-6.7,0.1-10c-2.6-1.1-5.6-0.9-8,0.5c0.7-4.7-1.8-10.2-6.3-11.5c-4.2-1.3-9.2,2.5-8.9,6.6
		c-1.2-4-7-5.9-10.8-3.7c-4.2,2.4-5.7,7.8-5.1,12.6c-2.3,0.7-4.5,1.3-6.8,2c-0.6,6-1.2,12-1.7,18.1c0.5-3-3.9-4.8-6.5-3.2
		c-2.1,1.3-3.1,3.8-3.6,6.3c0-3.6-3.8-6.9-7.7-7.1c-4.4-0.2-8.4,2.3-12.1,4.6c-5.9-1.8-12.8,0.9-15.9,6.2c-1.8,3.2-2.1,7-1.2,10.5
		c-14.9,5.4-30.1,10-45.5,13.8c-2.1-8.2-2.9-16.8-2.1-25.2c7.9,0.5,15.7-5.7,17-13.5c0.7-4.4-0.5-9.2-3.6-12.4
		c2.8-3,5.8-6.3,6.4-10.4s-2.2-9-6.3-8.8c6.6-0.5,10-9.5,6.8-15.3c-3.3-5.8-10.8-8-17.3-6.8c3-12.5,0.3-26.3-7.2-36.7
		c0.8-3.5-0.7-7.5-3.7-9.6c-1.6,3.5-3.1,7-4.7,10.6c-0.1,9.8-0.2,19.5-0.3,29.3c-6.5,0.1-8.4,9-7.1,15.4c1.3,6.4,3.2,14.2-1.8,18.3
		c-1.4,1.1-3.1,1.9-4.3,3.1c0.5-0.8,0.8-1.5,1.1-2.4c1.4-4.4-1.4-9.7-5.8-11.2c4.7-0.9,8.4-5.5,8.3-10.2c-0.1-4.8-3.9-9.2-8.6-9.9
		c5.9-4.5,4.5-13.6,2.5-20.8c-1.6-5.7-3.1-11.4-4.7-17.2c-1-3.6-2.1-7.3-4.8-9.8c-1.8-1.6-4.3-2.7-5.2-4.9c-1.1-2.6,0.4-5.5,0.3-8.4
		c-0.3-7.3-9.8-9.5-17.1-9.7c1.3-2.5,2.6-5.2,2.3-8c-0.2-2.8-2.7-5.6-5.5-5.1c-1.7,0.3-2.8,1.6-3.7,3.1c-3.3,0.2-6.5,2.2-8.1,5.1
		c-2,3.8-1.2,8.9,1.9,11.8c-3.3,2.9-3.4,8.8-0.3,11.9c-4.3,0.4-7.1,6.3-4.5,9.8c-4.3-1.8-9.3,2.6-9.4,7.2c-0.1,4.7,3.2,8.8,7.1,11.3
		c-2.2,1.5-3.8,4-4,6.6c-0.2,2.1,0.3,4.2,0.9,6.3c0.7,2.5,1.3,5.1,2,7.6c0.1,0.5,0.3,1.1,0.4,1.6c-1.4,1.8-2.8,3.6-3.9,5.6
		c-2.8,4.9-4.1,11.3-0.9,15.9c1.8,2.6,5.1,5,4.6,8.1c-0.3,1.9-2,3.2-3.1,4.8c-3.3,4.4-1.9,11.6,2.9,14.4c-3.8,3.7-1,11.4,4.2,11.9
		c-0.5,2.9,3.1,5,5.9,4.3c0.4,1.3,1.3,2.3,2.7,2.7c-2.1-0.5-4.5-1.1-6.5-0.2c-2,0.8-3.4,3.7-1.9,5.4c0.5,0.6,1.3,0.9,2.1,1.2
		c3.1,1,6.5,1.2,9.7,0.6c-3.4,1.2-6.6,2.9-9.4,5.2c0.7,0.7,1.5,1.1,2.3,1.4c-6.3-1-12.9-0.6-19.1,1.1c-3.1,0.9-6.7,3-6.2,6.2
		c-4.2-3.3-11.5,1.9-9.8,6.9c-3.2-1-6.6-2.1-9.9-1.3c-3.3,0.7-6.3,4-5.5,7.2c-3.7-4.1-11.3-3.1-13.9,1.7c-5.7-3-12.9-1.1-17.4,3.3
		c-9.9-0.3-19.8-0.2-29.7,0.3c-0.8-0.5-1.6-0.8-2.4-1c-2.1-0.5-4.6,0.1-6.1,1.6c-0.8,0.1-1.6,0.1-2.4,0.2c-1.2-1.8-3.3-3.1-5.5-3.1
		c-2.7,0-5.2,1.7-6.2,4.2c-0.3,0-0.5,0.1-0.8,0.1c-0.7-1.2-2.2-2-3.5-1.6c-1,0.3-1.7,1.2-2,2.2c-0.3,0-0.6,0.1-0.9,0.1
		c-0.3-0.3-0.7-0.6-1.1-0.7c-0.8-0.2-1.7,0.4-1.9,1.1c-0.3,0-0.6,0.1-1,0.1c-3.1-2.4-6.8-4-10.7-4.6c-0.1,1.5-0.1,3-0.2,4.5
		c-2.7-1.8-5.8-3.8-9-3.3c-2.8,0.4-5.1,3.5-4.3,5.9c-2.5-3.7-8.4-4.4-12.5-2.2c-2.7,1.5-4.8,3.8-6.4,6.5c-5.7,1-11.4,2.1-17.1,3.1
		c-2.8-1.4-5.8-2.2-8.9-2.5c-0.3,1.4-0.3,2.8-0.2,4.2c-34.5,6.4-69,12.9-103.8,14.8c-36.4,1.9-74.7-0.8-107.2,15.8
		c37.5,8.3,74.9,16.6,112.4,25c10.4,2.3,21.2,4.8,29.2,11.8c17,14.7,15,42.9,29.9,59.7c14.7,16.5,40,16.6,62,14.8
		c197.1-16.4,389.9-85.4,587.4-75.5C1094.8,842.4,1093.9,796.3,1093,750.1z M730.2,774.3c3.9,0.4,5.9-6.1,2.5-8
		c3.8-2.5,5.7-7.6,4.5-12c-1.9,0.1-3.8,0.2-5.7,0.3c4.2-5,8.3-9.9,12.5-14.9c0.6-0.7,1.2-1.5,1.8-2.3c-1.7,3.8,2.7,8.5,1.2,12.5
		c-0.7,1.8-2.4,3-3.1,4.8c-0.7,2,0,4.3,0.8,6.3c3.6,9.3,9,20.2,18.9,21.1c-1,6.1-1,12.4-0.1,18.6c-1.4,0.3-2.9,0.6-4.3,0.9
		c-10.5,2.2-25.9,0.4-26-10.4c-1.4,0.7-2.8,1.4-4.2,2.1C729.6,787.1,730,780.7,730.2,774.3z"/>
	<path clip-path="url(#SVGID_2_)" fill="#24192D" d="M702.2,925.2c-2.1-15.1,3.3-31.7-4-45.1c-0.1-0.2-0.2-0.3-0.3-0.5
		c2.1-8.7,2.8-17.7,2-26.5c-5.1,0.6-10.2,1.3-15.3,1.9c3.1-4.1,0.3-11.1-4.8-11.9c-5.1-0.8-10,4.9-8.4,9.8c-1.8-4.5-6.1-10-10.3-7.6
		c-2.4,2.3-3.9,5.5-4.1,8.8c0,0-0.1,0-0.1-0.1c-0.5-5.4-1.4-11-5.2-14.8c-3.9-4-12.2-3.9-14,1.4c-0.3-2.8-0.7-5.5-1-8.3
		c-4.5,0.7-8.1,4.7-8.8,9.1c-0.1,0-0.2-0.1-0.3-0.1c-0.5-4.5-2.1-8.8-4.5-12.6c-3.6,1-6.4,3.9-7.7,7.3c-0.2-0.1-0.4-0.2-0.5-0.2
		c0-0.4,0-0.8,0-1.2c-0.7,0.1-1.5,0.1-2.2,0.2c-0.8-0.4-1.7-0.7-2.5-1.1c-3.7-1.6-7.5-3.2-11.5-4c-5.2-0.9-9.7-2.7-14.9-2
		c-0.6-6-7.3-10-13.4-9.8c-6.1,0.2-11.6,3.3-16.9,6.3c2.5-5.4-1.3-12.6-7.2-13.6c-6.3-1.1-16.2,2-16.8-4.4c-1.1,3.3-2.1,6.6-3.2,10
		c1.7-3.8-4.5-7.1-8-4.9c-3.5,2.3-4.4,6.9-5,11.1c-3-2.6-6.3-5.3-10.3-5.5c-4-0.2-8.2,3.8-6.7,7.4c-3.6-2.6-5.2-7.5-3.8-11.7
		c-4.2,1.6-7.7,5-9.3,9.2c-2.6-2.4-3.8-6.4-2.9-9.9c-6.1,1.6-12.2,3.1-18.3,4.7c-7.7-1.5-15.8-1-23.3,1.3c2.3-2.1,3.1-5.6,2.6-8.7
		c-0.7-3.8-2.9-7.1-5.1-10.2c-6.5,0.1-12.5,5.6-13.1,12.1c1.3-6.7-8.6-12.3-13.7-7.6c-0.1,1.9-0.2,3.7-0.3,5.6
		c-2.7-4.6-5.4-9.3-8.2-13.9c-4,0-8,0-11.9,0c0.4,2.3,0.4,4.6,0.1,6.9c-0.8-1-1.6-2.1-2.4-3.1c-0.5-4-1-8.1-1.5-12.1
		c-5.4,0.1-10.8,1-16,2.7c-4.9-0.1-9.9-0.2-14.8-0.3c1.6-4.5-3-9.3-7.7-9.7c-4.8-0.5-9.3,1.9-13.5,4.2c1.7-3.3-2.7-6.9-6.4-6.5
		c-3.7,0.4-6.8,2.9-10.4,4c-0.5,0.1-1,0.2-1.5,0.3c0.6-3-2.1-5-5.4-4.5v-0.2c2.7-1.7,4.3-4,3.4-5.9c1.5-2.4,2.6-6.4,3.1-12.9
		c1.8-2.2,3.2-4.5,0.2-5.4c0-0.4,0-0.8,0-1.2c2.2-2,4.6-4.2,4.1-7.4c-1,0.2-1.7,0.2-2.4,0.3c3.4-2.1,1.2-6.2-2.3-7.5
		c-0.1-1.2-0.2-2.4-0.4-3.5c2.2-4.5,3.8-11.6-1.2-12c0.6,0,1.9-0.3,2.4-0.1c1-7-0.9-8.7-5.3-7.1c-0.8-1.8-1.7-2.8-2.6-2.8
		c-0.1,0-0.1,0-0.2,0c-0.2-1-0.6-2-1.2-2.8c-0.1,0.1-0.4,0.5-0.6,0.7c1.7-4.3,0.1-8.2-5.1-6.6c1-2.6,0.4-7.7-2.4-8.4
		c-0.7-2.1-1.5-3.8-2.3-5c-0.4-3.7-2-6.7-4.2-11.1c-2.8,2-5.3,8.1-6,11.2c-0.5,2.1,1.4,3.9,0.5,5.9c-0.7,1.6-3.9,1.9-5,3.5
		c-3.4,4.6-0.8,9.5-0.8,13.3c0,7.4-2.3,11.1,2.6,17.9c-3.3,1.8-3.5,12.4,0.1,15.3c0,0.8,0.1,1.5,0.2,2.2c-3.5,4.1-0.6,9.4,1.9,12.5
		c3.7,4.7,3.6,7.9,6.1,12.7c-2.6,2-2.3,6.1-2.2,9.8c-0.4,0.8-0.8,1.6-1.4,2.4c-0.2,0-0.3-0.1-0.4-0.1c-0.3-1.2-0.7-2.3-1-3.5
		c-0.6,1.4-1.5,2.7-2.6,3.8c-0.1,0-0.1,0-0.2,0c-0.5-1.4-1.1-2.7-1.6-4.1c-1.9,4.3-8.9,4.9-11.5,1c-0.3,0.9-0.7,1.8-1,2.7
		c0.2-2.4,0.7-5,0.1-7.3c1.1-1.4,2-3.4,2.8-6.4c2.7-4.6,5-11.1,3.6-12.6c2.5-3.5,5.5-14-1.8-13.7c0,0,0,0,0,0
		c3.5-2.5,2.8-6.5-0.4-8.7c2.4-3,4.4-16.5,2.3-18.8c3.2-4.1,4.9-12-2.2-13.3c2.3-3.4,1.3-8-3.2-8.5c4.2-3.3,2.1-9.3-2.8-9.5
		c1.6-3.2,1.8-16.2-4.1-10.8c2-13.6-16.7-3.4-5.4,4.1c-4.4-2.7-3.2,9.7-0.6,12.6c-0.9-0.3-2.9-0.2-3.8-0.5c-2.3,5.6,1.3,10,1.1,15.3
		c-0.1,3.4-3.5,7.4-3.9,11.3c-0.2,2.2,1,4.7,0.7,6.7c-0.3,1.8-1.9,2.5-2.2,4.5c-0.7,4.5-1.4,9.2,3.4,11.7c-0.6,1.7-3,4.2-3.6,5.9
		c-0.4-1.8-0.9-3.5-1.1-5.3c-0.4-0.1-0.7-0.1-1.1-0.1c0-0.6-0.1-1.1-0.1-1.7c1.6-5.2,2.2-16.8-1.9-17.7c2.1-4.9,1.7-21.6-3.5-24.7
		c-0.1,0.1-0.4,0.5-0.6,0.7c0.5-3.5-1.3-7.9-4.9-4.6c-3,2.7-0.2,8.9,0.9,11.8c-5-4.1-6.1,6.1-4,9.3c-4.3-0.6-2.7,6.2-2.8,9.5
		c-5.6,2.1-2.3,8.9-1.3,12.7c-2.4,0.9-1,10.4,0.8,17.1c-2.1-1.1-4.5-1.2-6.3,0.2c1-7.3-9.8-12.7-15.1-7.6c-1-1.7-2.1-3.4-3.1-5.2
		c-4.8,2.4-9,5.9-12.2,10.2c0.1-7,0.2-14,0.3-21c-1.4,4-2.8,8-4.3,12c-0.8-1.4-2.2-2.5-3.8-3c-1.4,2.3-2.7,4.7-4.1,7
		c0.3-2,0.5-4.1,0.8-6.1c-5.1,0.4-10.3-0.4-15-2.3c0.2,3.3,0.2,6.9-1.9,9.4c-2.2,2.4-7.3,1.8-7.6-1.4c-6.5-3.4-13.8-5.4-21.1-6
		c-0.3-1.5,0-3.1,0.8-4.5c-1.4-1.5-4.3-1.1-5.2,0.8c-4,1.6-7.9,3.2-11.9,4.8c-6.5-2.3-11.2-8.8-11.5-15.7
		c-6.5,1.1-13.5-0.2-19.1-3.6c3.6-1.2,4.6-6.2,2.9-9.6c-1.7-3.4-5.1-5.5-8.3-7.5c0.8,1.4,0.2,3.4-1.2,4.1
		c-5.1,3.2-12.6,1.4-15.7-3.8c-5.8,3.4-11.6,6.8-17.3,10.2c-0.6-3.1-4-4.8-6.9-5.9c-14.3-5.6-28.7-11.2-43-16.8
		c0.4,5.7-0.8,10.2-0.3,15.9L0,925.2L702.2,925.2z M232.3,769.4c0,0,0.1,0.1,0.1,0.1c0,0-0.1,0-0.1,0
		C232.3,769.5,232.3,769.5,232.3,769.4z M301,779.9c0-1,0.1-2,0.1-3c-0.5,2.1-0.9,4.1-1.4,6.2c-0.7-0.6-1.3-1.2-1.9-1.9
		c-0.9-2.5-2.3-4.8-0.7-7.5c0.6-0.2,1.2-0.1,1.8-0.2c0.2-3.1,0.2-6.3,0.1-9.5c0.6-0.6,1.1-1.4,1.7-2.3c0.2,0.2,0.3,0.3,0.5,0.5
		c0.6,3.8,1.4,6.5,2.5,8.3c0.1,3.1-0.3,6.2-0.1,8.8C303,780,302,780.1,301,779.9z M256.2,768.2c0.1,0.9-1.6,4.2-1.2,6.1
		c0.5,2.7,2.4,3.9,3.8,6.2c2.8,4.6,3.7,6.7,2.7,12.4c-0.1,0-0.1,0-0.2,0c-0.5-0.8-1-1.7-1.6-2.5c-2.5-0.6-4.9-1.2-7.4-2
		c1.9-2.5,1.9-6.2,0-8.7c-0.2-0.3-0.4-0.5-0.7-0.8c0.7-3.2,0-7.4-1.4-9c2.6-1.4,3.9-4.9,3.1-7.3
		C254.5,764.5,255.9,766.1,256.2,768.2z M252.5,760.3c0.1,0.5,0.3,1,0.6,1.5c-0.5-0.8-1.3-1.3-2.5-1.5c0.7-0.5,1.3-1.1,1.7-1.8
		C252.3,759,252.3,759.7,252.5,760.3z M252.4,753.7c0,0.1,0.1,0.3,0.1,0.5c-0.5-0.7-1.4-1.1-2.7-1.2c0.3-0.8,0.5-1.5,0.6-2.3
		C250.9,751.3,251.9,751.8,252.4,753.7z"/>
	<path clip-path="url(#SVGID_2_)" fill="#1F1528" d="M1421.1,686.9c-1.9-0.2-3.7-0.3-5.6-0.5c-0.9-3.1-2.5-5.5-5-7.1
		c3-5.6,6.2-25.9-4.3-18.3c-6.8-4.5-16.7-3.8-20.2,4.4c-7.3-3.1-14.2-0.3-13.2,8.1c-0.6-0.7-1.4-1.8-1.4-1.7
		c-4.7,2.4-7.7,6.5-8.8,11.3c-2.1-0.1-4.2-0.1-6.3-0.2c0.7-12.5-7.2-37.3-22.6-31c-0.6-8.8-9.7-11.5-17.7-9.7c0.6,2.3,0,4.4,1,6.8
		c-1.7-3.5-5.1-5.5-8.1-5.8c0.8-1.6,1.5-3.3,1.4-5.2c-0.1-2.5-1.7-4.7-1.9-7c-0.4-3.6,1.6-6.9,0.8-10.4c-0.4-1.9-3.5-7.2-5.3-7.2
		c0.6-3.1,0.5-7.5-3.5-8c-0.5-3.6,1.2-6.9-0.2-10.3c0,0-1.3,0-1.3,0c-1.3,2.3-2.8,2.8-3.7,5.8c-0.6,2,0.5,4.2,0,6.5
		c-0.5,0.1-0.9,0-1.4,0.1c-1.6,6.3,1.5,11.7-0.1,18c-1.7,6.7-2.7,12.5-3.1,19.3c-4.6,0.5-3.4,4.5-2.9,7.2c0.4,2.3,0.6,3.6,0.6,5.3
		c0,0.1,0,0.1,0,0.2c0,0.8,0,1.7-0.1,2.9c-7-5-19.2,3.3-12.1,9.9c-5.3,3.1-6.1,4.5-7.2,10.3c-3,0.4-4.9,1.8-5.8,3.8
		c-18.5,1.2-36.9,2.8-55.2,4.9c-0.1-0.3-0.2-0.6-0.3-1c-0.4-1.9,0.2-4,0-5.9c-0.2-1.7-1.2-3.5-1-5.1c0.2-2,2.1-3.4,2.4-5.5
		c0,0,0-0.1,0-0.1c3.1-0.8,5.6-2.4,6.4-6.9c5.7,11.2,26.6,7.7,27-4.5c4.3,5.9,10.2,5.1,13.6-1.9c8.5,7.7,14-8.7,4.3-13.9
		c5.4-11.6-6.4-11.2-15-10.4c1.6-9.2-7.9-21.6-14.4-14.6c-5.6-2.5-17.4-3.7-24.8-0.4c-0.8-1.1-1.7-1.8-2.4-1.8
		c0.6-3.1,0.5-7.5-3.5-8c-0.5-3.6,1.2-6.9-0.2-10.3c0,0-1.3,0-1.3,0c-1.3,2.3-2.8,2.8-3.7,5.8c-0.6,2,0.5,4.2,0,6.5
		c-0.5,0.1-0.9,0-1.4,0.1c-1.2,4.4,0.1,8.5,0.4,12.7c-8.5-3.3-18.5-6.4-28.2-4.5c-0.2,0.9-0.3,1.7-0.5,2.6
		c-17.1-11.4-30.5,17.4-19.6,19.5c-11.1-0.5-11.8,13.3-1.6,16.7c-9.2-1.7-14.8,6.6-11,10.7c-0.1,0-0.2,0-0.3,0
		c1.7,3.4,0.1,4.2,3.8,7.5c-5.6-3.3-12.9-4.4-17.4-6.3c-24,6.9-48.5,18-70.4,27.5c1.1,4.5,0.9,9.3-0.5,14.4
		c-6.8,0.3-13.9,0.2-20.8,0.2l-7.5,7.5c-2.9-0.8-7.3,0-10.3,0.2c-0.4,7.9-1.9,15.6-3.5,23.2c-1.9,0.8-3.8,1.5-5.7,2.3
		c-0.2-0.9-0.3-1.7-0.5-2.6c7-1.1,6.8-5.6,6.7-11.4c0-2.5-1.9-6.3-1.8-7.5c0.1-2.5,2.9-5.4,3.4-8.1c1.1-6.2,2.3-14.4,2.3-20.9
		c0-3.7-1.1-7-1.4-10.6c-0.3-4.1,1.3-7.3,1.5-11.5c0.1-4-2.2-6-2.6-9.4c-0.5-4.5,2.5-8.1,3-12.4c0.7-6.2-2.2-6-4.1-10.3
		c-1.7-3.9,0.1-5.2-0.1-9.5c-0.2-4.9-3-9.8-3.6-14.4c-0.7-4.6,0.5-13.9-4.5-16.2c-0.1,6.8-1.7,13.3-3.9,19.9
		c-2.5,7.7-1.9,13.8-1.9,20.9c0,6.4-2,9.8-1.7,15.7c0.3,6.1-0.1,12-0.1,17.9c0-0.9-0.1-1.8-0.2-2.7c-0.5-3.3-0.9-5.7-1.1-9.6
		c-0.1-3.2,0.6-5.9-3-7c-0.4-2.9,1.8-5.5,1.7-8.1c-0.2-3.3-2.6-3.7-2.9-5.1c-0.7-3.7,1.5-7.7-0.6-11.6c-9.1,0-3.3,17.1-4.1,22.2
		c-0.6,3.8-2.1,7.4-3,11.2c-1.2-2.1-2.9-4.4-4.1-4.4c0.6-3.1,0.5-7.5-3.5-8c-0.5-3.6,1.2-6.9-0.2-10.3c0,0-1.3,0-1.3,0
		c-1.3,2.3-2.8,2.8-3.7,5.8c-0.6,2,0.5,4.2,0,6.5c-0.5,0.1-0.9,0-1.4,0.1c-1.6,6.3,1.5,11.7-0.1,18c-1.7,6.7-2.7,12.5-3.1,19.3
		c-4.6,0.5-3.4,4.5-2.9,7.2c0.6,3.4,0.7,4.6,0.5,8.5c-0.3,4.7-0.7,9.1-0.9,13.8c-2.3,1.5-3.3,4.1-1.8,7.3c0,0.2,0,0.4,0,0.5
		c-0.5-0.3-1.1-0.6-1-0.5c-3.4,4-3.7,9.2-1.6,14c-1.1-0.1-3.7-0.8-5.3-1.3c-2.8-8.7-16-24.2-24.9-15.2c-3-5.9-10.1-5-15-1.4
		c1.1,1.4,1.3,3,2.7,4.4c-4.8-4.1-12.6-1.3-10.1,4.9c-0.4-0.7-0.8-1.5-0.9-2c-6.4,2-9.4,7.8-4.8,13.7c-4-1.3-8.1,2-8.8,5.3L873,753
		l-52.7,24.7l22.5-1.9l-0.5,8.7c-0.9,0.1-1.8,0.8-2.8,2.5c-6-1.1-12.6,2.4-12.6,9c-5.9,0.1-9.9,4-6.7,9.5c-0.6-0.3-1.5-0.8-1.4-0.7
		c-2.1,2.5-3,5.3-2.9,8.3c-1.7,0.5-3.5,1-5.2,1.5c-4.3-8.8-15.7-20.3-23.7-12.2c-3-5.9-10.1-5-15-1.4c1.1,1.4,1.3,3,2.7,4.4
		c-4.8-4.1-12.6-1.3-10.1,4.9c-0.4-0.7-0.8-1.5-0.9-2c-6.4,2-9.4,7.8-4.8,13.7c-5.3-1.7-10.6,4.6-8.5,8.3
		c-11.8,2.8-23.6,5.5-35.4,8.1c-105,22.8-213.2,38.8-320.6,43.8c-29.3,1.3-58.6,2.1-88,2.4c1.1-3.8,0.3-8.5-3-14.3
		c-11.3-0.8-22.1-11.2-32.4-3.3c-1.7-7-4.6-7.8-8.2-1.5c-2.5-6.1-9.6-10.9-13.4-3c-3.9-6.8-26.7-14.2-29.7-9.4
		c-3.4-2.6-5.5-1-8.8-2.2c-0.4,2-1.3,3.3-1.7,5.2c-5.1-5.8-11.4-5.1-12,3c-3.9-5.4-4.9-4.8-7.2-3.6c-0.4-0.8-0.7-1.5-0.6-2.5
		c0.2-2.9,3.7-5.5,3.6-8.6c-0.1-2.1-2-3.8-2.5-5.9c-1.1-4.1,2.1-13.1-5-12.6c1.7-4.8,4-9.2,3.5-14.6c-0.4-3.9-2.7-5.1-3.5-7.8
		c-1.7-5.1,0.3-11.4-1.6-16.5c-2.7,0.4-2.9,3-2.5,5.4c-7.2,1.7-1.9,10.8-2.5,15c-0.4,2.8-3.4,5.5-3.8,8.6c-0.4,2.8,1.4,5.3,1.4,8
		c0,3.2-1.6,5.6-1.1,9c0.4,2.7,2.6,5.1,3,7.5c0.6,4.2-0.9,10-1.3,15c-0.5-1.9-2.4-3.4-5-4.1c-0.1-3.4,1.5-10.2-4-10.5
		c0.8-1.6,3-2.7,3.8-4.5c1-2.3,0.1-6.9,0.1-9.4c0-3.3,0.5-7.3-2-9.9c-1.6-1.7-4.5-1.1-5-3.6c-0.6-2.9,3.6-6.4,4-9.4
		c0.4-2.7-0.8-4.4-1-6.7c-0.3-3.6-0.6-6.8-1.1-10.3c-0.5-3,0.7-7.8-0.3-10.5c-0.9-2.4-3.3-2.8-4-5.1c-0.8-2.3,0.4-6.1,0.6-8.5
		c0.2-2,1-4.6,0-6.6c-0.7-1.4-2-0.4-2.6-1.4c-2.3-3.9-1.3-6.6-2-11.1c-1.3-8.7-6.5-0.6-6.9,4.4c-0.5,6.1,1.5,7.7-2.1,13.1
		c-4.6,6.8-4.4,17,2,23.2c-1,3.2-2.7,6.4-2.4,9.9c0.2,2.8,2.4,4.7,2.9,7.5c0.9,5-2.1,11.2-2.3,16.4c-0.2,5.3,0,12.5-0.5,17.7
		c-0.6,5.9-4.7,14.2,2.3,18.4c-1.4,2.8-0.6,8.1,1.5,12.1c-8.5,1.3-15.8,2.8-24.4,3.3c-0.1-2.5-0.4-4.8-1-7.3
		c5.6-0.8,5.4-4.5,5.3-9.1c0-2-1.5-5-1.5-6c0.1-2,2.3-4.3,2.7-6.4c0.9-4.9,1.9-11.4,1.9-16.6c0-2.9-0.9-5.6-1.1-8.4
		c-0.3-3.3,1-5.8,1.2-9.1c0.1-3.2-1.8-4.8-2-7.5c-0.4-3.6,2-6.4,2.4-9.9c0.6-5-1.8-4.8-3.3-8.2c-1.3-3.1,0-4.2-0.1-7.5
		c-0.1-3.9-2.4-7.8-2.9-11.5c-0.5-3.7,0.4-11.1-3.6-12.8c-0.1,5.4-1.4,10.6-3.1,15.8c-2,6.1-1.5,11-1.5,16.6c0,5.1-1.6,7.8-1.4,12.5
		c0.2,4.8,0,9.5-0.1,14.3c0-0.7-0.1-1.5-0.2-2.1c-0.4-2.6-0.7-4.6-0.9-7.6c-0.1-2.5,0.5-4.7-2.4-5.6c-0.3-2.3,1.5-4.4,1.3-6.4
		c-0.2-2.6-2.1-2.9-2.3-4.1c-0.6-2.9,1.2-6.1-0.5-9.2c-7.2,0-2.6,13.6-3.3,17.7c-0.7,4.3-2.9,8.4-2.9,13c0,4,0.9,6.1-0.6,10.5
		c-1.6,4.5-3.8,8-3.4,13.1c0.3,3.2,1.1,6.4,1.1,9.6c0,3.6-3.4,19.2,3.9,17.6c0,2.8,0.6,8.7,4.3,7.4c1.2,2.3,1.1,4.8,1.7,7.3
		c0,0,0,0,0,0c-3.7-3.4-1.9-2.4-7.2-4.2c-1.1-4.2-5-7.7-9.3-7.8c-0.9-3.5-3.5-5.5-4.8-8.6c-1.5,0-1.8,0.9-2.5,1.6
		c-0.1-2.3-0.7-4.5-3.2-5.5c1.1-4.7,3.1-5.7,1.5-10.5c-0.5-1.5-1.6-2.4-2-4.5c-0.4-1.9,0.2-4,0-5.9c-0.2-1.7-1.2-3.5-1-5.1
		c0.2-2,2.1-3.4,2.4-5.5c0.4-3-0.8-6.6-0.9-9.5c-0.1-3.3-1.7-7.2-1.4-10c0.4-3.6,3.6-6.4,3.4-10.5c-0.1-2.5-1.7-4.7-1.9-7
		c-0.4-3.6,1.6-6.9,0.8-10.4c-0.4-1.9-3.5-7.2-5.3-7.2c0.6-3.1,0.5-7.5-3.5-8c-0.5-3.6,1.2-6.9-0.2-10.3c0,0-1.3,0-1.3,0
		c-1.3,2.3-2.8,2.8-3.7,5.8c-0.6,2,0.5,4.2,0,6.5c-0.5,0.1-0.9,0-1.4,0.1c-1.6,6.3,1.5,11.7-0.1,18c-1.7,6.7-2.7,12.5-3.1,19.3
		c-4.6,0.5-3.4,4.5-2.9,7.2c0.6,3.4,0.7,4.6,0.5,8.5c-0.4,6.5-1.1,12.5-1.1,19.3c-4,1.6,0.5,5.2,1.1,7.6c0.9,3.6-0.8,6.7-0.6,10.4
		c-1.2-0.1-2.2,0.7-3.3,0.7c-0.1,0.6-0.1,1.3-0.1,2c-1.4-2.2-3.4-4.2-3.3-4c-2-2.1-6.1-3.2-10.1-3.7c-0.8,3.1-3.6,4.7-3.7,8.6
		c-6.3,0-4.5-1-9,4.1c-3.7-4.1-4.4-1.8-8.4-3.8c0.1,2.2-0.5,4.9-0.5,7.2c-4.7-10.5-15.1-3.9-20.7,3.1c-10.9-2-21.8,2.1-13.2,13.9
		c-6.2,1.1-10.3,4.8-11.3,9.2c-1.6,0-2.5-0.1-2.5-0.1c0,0,0,281.6,0,281.6h1441.3L1421.1,686.9z M172.6,858.3c0.2,1.4,0.9,2.6,2,3.3
		c-0.7,0.6-1.2,1.2-1.5,2.1C172.6,861.9,171.8,860.2,172.6,858.3z M172.9,867.6c0,0.5,0.1,1.1,0.2,1.7c-0.6-0.7-1.4-1.2-2.2-1.8
		C171.6,867.5,172.3,867.6,172.9,867.6z M121.6,820.5c-0.9-2.4-0.9-5.3-0.9-8.2C120.8,815,121.1,817.7,121.6,820.5z M117.2,863.7
		c2.4-0.4,2.5-2.1,2.3-4c0.6,0.9,1.6,1.4,2.9,1.4c-0.4,1,0,2-0.2,3c1.6,0.2,2.2,0.9,3.8,0.1c0,1.4,0,3.4,0,5.5
		c-2.6,0.1-5.2,0.1-8.1-0.1C117.8,867.6,117.5,865.6,117.2,863.7z M1062.3,709.6c2.7-2,13.8,2.2,16.3,2.9c0.2-5.3,0.4-10.8,0.5-16.1
		c2.2-0.5,4.9-0.5,7.1,0c-1.8,5.8-1.2,13.2,1.5,17.4c-8.1,2.5-16.2,5.2-24.2,8C1063.8,717.4,1055,714.9,1062.3,709.6z M1046.2,727.8
		c0,0.1,0.1,0.2,0.1,0.3c0,0-0.1,0-0.1,0C1046.2,727.9,1046.2,727.9,1046.2,727.8z M998.3,746.9c-0.2,0.1-0.5,0.2-0.7,0.3
		c-0.1-0.4-0.2-0.7-0.3-1.1c0.3-0.1,0.6-0.2,1-0.3C998.3,746.1,998.3,746.5,998.3,746.9z M992.8,690.8c-1.1-3-1.1-6.7-1.1-10.3
		C991.8,683.8,992.1,687.3,992.8,690.8z M866.3,773.9v23.7c-4.3,1.4-8.5,2.8-12.8,4.1c-1.5-1.9-3.4-3.2-5.6-3.5c0.1-0.8,0-2-0.2-3.3
		l1.7-19.7L866.3,773.9z"/>
</g>
</svg>
