<?xml version="1.0" encoding="utf-8"?>
<svg class="img-fluid" id="outputsvg" xmlns="http://www.w3.org/2000/svg" width="454" height="136" viewBox="0 0 4540 1360"><g id="l5eLAuz5jRT3AxtuRnRygIU" fill="rgb(250,231,190)"><g><path id="pQn07pXp1" d="M2250 1255 c-74 -7 -245 -25 -380 -40 -260 -29 -244 -29 -782 -9 -111 4 -231 2 -320 -5 -363 -31 -559 -76 -657 -153 -200 -155 36 -369 504 -458 61 -11 144 -29 185 -40 116 -29 422 -64 508 -57 41 3 84 2 97 -3 12 -5 53 -36 91 -70 97 -86 166 -117 284 -129 110 -11 173 -32 285 -97 181 -103 243 -125 366 -125 64 -1 92 5 175 37 188 70 148 66 659 74 588 10 708 25 881 110 161 79 208 184 142 315 -33 63 -163 185 -283 265 -191 127 -486 259 -701 315 -284 74 -711 102 -1054 70z m240 -74 l0 -40 58 -10 c31 -6 104 -22 162 -36 58 -14 120 -25 138 -25 30 0 32 2 32 33 0 17 -4 38 -8 44 -10 15 -110 49 -184 62 -108 20 235 0 362 -20 255 -41 416 -93 665 -213 273 -133 476 -290 539 -418 l28 -57 -22 -45 c-38 -80 -137 -141 -283 -176 -110 -27 -107 -27 -107 24 l0 43 -422 -3 c-426 -3 -798 -20 -809 -35 -7 -12 -97 -28 -133 -23 -17 2 -84 9 -149 15 -67 7 -124 17 -131 24 -24 25 -175 48 -261 41 -116 -10 -257 -10 -285 -1 -36 11 -118 67 -170 115 -25 23 -55 46 -68 51 -13 5 -77 9 -144 9 -146 0 -337 22 -478 55 -58 13 -154 34 -213 45 -257 50 -472 158 -514 258 -13 32 -13 36 11 67 33 43 70 69 136 95 177 70 595 120 865 104 287 -17 650 -11 860 15 236 29 337 38 443 40 l82 1 0 -39z m230 -25 c0 -4 8 -6 18 -4 10 3 24 -2 31 -10 12 -12 8 -13 -30 -7 -23 4 -61 13 -84 20 l-40 14 52 -2 c29 -1 53 -6 53 -11z m218 -913 c-10 -2 -26 -2 -35 0 -10 3 -2 5 17 5 19 0 27 -2 18 -5z m-59 -7 c-12 -10 -79 -16 -79 -6 0 5 19 10 42 10 23 0 39 -2 37 -4z"></path></g></g><g id="l1opPwmbWK9ZX1tsa9CgjHK" fill="rgb(252,237,206)"><g><path id="pQT2YJtdE" d="M2397 1249 c-108 -4 -234 -12 -280 -18 -358 -48 -612 -57 -1008 -37 -183 9 -341 1 -579 -30 -367 -49 -527 -151 -466 -297 41 -99 257 -207 513 -257 59 -11 155 -32 213 -45 141 -33 332 -55 478 -55 67 0 131 -4 144 -9 13 -5 43 -28 68 -51 57 -53 135 -104 182 -119 21 -7 67 -10 104 -8 37 2 79 1 93 -4 14 -4 52 -15 83 -25 78 -23 116 -24 122 -1 5 22 -15 31 -52 24 -15 -3 -45 -2 -67 2 l-40 7 57 8 c64 8 240 -20 216 -35 -7 -5 -8 -9 -3 -9 6 0 37 -4 70 -10 147 -23 303 -31 371 -19 64 11 70 10 111 -12 48 -26 50 -39 10 -50 -20 -5 -27 -4 -27 7 0 8 -9 14 -22 13 -13 0 -17 -3 -10 -6 21 -8 13 -22 -28 -49 -22 -15 -39 -28 -37 -30 2 -2 43 10 93 26 49 15 131 34 182 41 77 11 92 16 92 31 0 11 7 18 20 18 26 0 26 17 0 25 -12 4 -80 4 -153 0 -76 -4 -142 -3 -157 3 -39 15 337 32 768 35 l382 3 0 -26 c0 -17 -3 -21 -9 -12 -7 12 -46 12 -237 1 -238 -14 -241 -25 -6 -28 56 -1 102 -4 102 -7 0 -4 -8 -13 -17 -20 -15 -12 -3 -13 87 -8 204 10 390 64 477 138 39 33 73 101 73 147 0 139 -226 341 -565 505 -324 157 -590 224 -945 239 -85 4 -166 8 -180 9 -14 1 -114 -1 -223 -5z m253 -69 c89 -15 187 -48 194 -67 5 -12 1 -14 -16 -9 -49 13 -196 46 -250 57 -32 6 -58 15 -58 20 0 12 49 11 130 -1z"></path><path id="pkNeB0aDl" d="M3093 221 c-24 -4 -46 -11 -50 -15 -5 -4 5 -4 20 -1 16 4 83 11 150 15 l122 7 -100 0 c-55 0 -119 -3 -142 -6z"></path></g></g></svg>