<?xml version="1.0" encoding="utf-8"?>
<svg class="img-fluid" xmlns="http://www.w3.org/2000/svg" width="166" height="68" viewBox="0 0 1660 680"><g id="l4H535817P5LXdKWtsqzmGz" fill="rgb(253,231,187)"><g><path id="pUBLu0jWB" d="M420 639 c-36 -5 -117 -8 -180 -7 -150 1 -220 -23 -220 -74 0 -57 50 -87 158 -93 92 -6 182 -23 182 -35 0 -5 13 -11 30 -15 16 -4 44 -17 63 -29 18 -13 66 -35 106 -51 56 -21 77 -35 90 -57 37 -69 95 -148 118 -163 14 -9 50 -18 82 -19 58 -3 107 -22 131 -51 44 -53 155 -61 235 -18 102 54 173 132 195 215 6 20 24 52 41 70 39 42 48 66 39 100 -9 30 2 38 55 38 42 0 65 29 65 82 0 33 -14 57 -53 90 -1 1 -112 5 -247 10 -135 4 -293 11 -352 14 l-108 5 0 -25 c0 -25 3 -26 53 -26 57 0 97 -8 97 -20 0 -16 -86 -112 -118 -132 -28 -17 -44 -20 -97 -16 -40 4 -74 13 -92 25 -15 11 -53 28 -83 38 -30 10 -59 21 -65 25 -16 13 -145 60 -169 62 -46 3 176 16 302 17 l132 1 0 25 0 25 -162 -1 c-90 -1 -192 -5 -228 -10z"></path></g></g><g id="l5DwPtZKNKsRDD6OmfK9A7R" fill="rgb(254,221,156)" style="transform: none;"><g><path id="pfKao6BAI" d="M780 642 c0 -5 -98 -12 -218 -15 -208 -7 -301 -19 -309 -43 -2 -5 25 -16 59 -24 64 -13 185 -55 203 -70 6 -4 35 -15 65 -25 30 -10 67 -26 82 -36 14 -11 33 -19 42 -19 9 0 16 -5 16 -10 0 -17 160 0 195 21 17 10 50 41 73 70 33 40 42 60 42 89 0 44 -12 50 -97 50 -29 0 -53 5 -53 10 0 6 -22 10 -50 10 -27 0 -50 -4 -50 -8z"></path><path id="pocKrDdUc" d="M1479 618 c-15 -10 -13 -14 15 -28 17 -10 41 -32 54 -51 30 -44 34 -45 50 -11 7 16 9 28 3 30 -6 2 -7 10 -4 18 3 8 -1 14 -9 14 -19 0 -68 23 -68 33 0 10 -22 8 -41 -5z"></path><path id="p020YwHkl" d="M1464 389 c0 -22 6 -39 12 -39 14 0 13 54 -2 68 -8 7 -11 0 -10 -29z"></path></g></g></svg>