<?xml version="1.0" encoding="utf-8"?>
<svg class="img-fluid" id="outputsvg" xmlns="http://www.w3.org/2000/svg" width="93" height="34" viewBox="0 0 930 340"><g id="l3BKsTFafY6v32iWS03dxGT" fill="rgb(254,236,199)"><g><path id="p15uObHkFf" d="M55 310 c-69 -27 -48 -77 43 -105 41 -12 76 -16 105 -12 44 6 45 6 51 -27 7 -38 65 -110 107 -131 33 -18 85 -19 160 -5 40 8 63 19 92 48 34 33 37 41 32 74 -6 31 -3 37 15 43 11 4 36 5 54 4 19 -2 49 4 67 14 19 9 53 21 75 27 50 12 73 35 55 53 -12 12 -147 24 -298 26 -77 1 -83 -1 -83 -19 0 -17 7 -20 50 -20 54 0 69 -19 29 -40 -17 -10 -20 -20 -18 -62 3 -46 0 -53 -29 -79 -24 -21 -44 -29 -75 -31 -75 -3 -88 0 -130 35 -44 36 -61 62 -72 111 -6 28 -7 28 -58 23 -56 -6 -161 18 -152 34 4 5 60 9 126 9 112 0 119 1 119 20 0 19 -6 20 -122 19 -68 0 -132 -4 -143 -9z"></path></g></g><g id="l6eDxRpVAGDL8HvBxHykimJ" fill="rgb(254,222,161)"><g><path id="p1BZETL91l" d="M138 313 c-10 -2 -18 -9 -18 -14 0 -14 -28 -11 -33 4 -6 18 -61 -4 -65 -26 -6 -29 15 -44 90 -67 56 -17 76 -19 101 -10 34 12 47 2 47 -38 0 -27 77 -108 117 -123 17 -6 58 -8 107 -4 70 7 83 11 113 39 35 32 41 52 29 98 -6 21 -3 29 13 38 12 6 21 16 21 23 0 7 14 24 31 36 17 13 27 27 22 32 -11 11 -368 24 -416 15 -23 -4 -37 -13 -37 -21 0 -12 16 -15 74 -15 l74 0 7 -56 c6 -50 4 -59 -15 -78 l-21 -21 -27 32 c-15 18 -40 49 -55 68 -16 19 -34 35 -41 35 -6 0 -23 11 -37 24 -28 26 -55 36 -81 29z"></path></g></g><g id="l34GdNkZSlbDbJuEUpSFFvI" fill="rgb(254,210,133)"><g><path id="pAfvrN7Jx" d="M205 310 c-152 -5 -175 -10 -175 -36 0 -11 17 -14 79 -14 76 0 102 -9 98 -35 -1 -5 6 -11 17 -13 13 -3 16 0 11 10 -9 18 56 -54 78 -87 39 -56 100 -54 136 5 17 29 17 36 5 77 -13 43 -13 46 9 63 12 10 20 20 17 23 -10 9 -131 12 -275 7z"></path></g></g></svg>