<svg width="13" height="13" viewBox="0 0 13 13" fill="none" xmlns="http://www.w3.org/2000/svg">
<path d="M1.23146 0.90066L6.31113 5.97656L11.3368 0.951131C11.6793 0.645923 12.0347 0.828033 12.1755 0.98168C12.3164 1.13533 12.3968 1.49773 12.1428 1.75714L7.11603 6.78145L12.1428 11.8036C12.3663 11.9911 12.3663 12.3587 12.1869 12.5634C12.0074 12.7682 11.6777 12.8871 11.3659 12.6443L6.31113 7.58634L1.25006 12.6463C1.02879 12.8448 0.663172 12.8045 0.482024 12.607C0.300877 12.4094 0.232125 12.0676 0.463764 11.8263L5.50624 6.78145L0.484306 1.75714C0.301047 1.55417 0.237049 1.18407 0.484306 0.951131C0.731564 0.71819 1.10023 0.750695 1.23146 0.90066Z" fill="#F9F5EE"/>
</svg>
