<svg width="28" height="28" viewBox="0 0 28 28" fill="none" xmlns="http://www.w3.org/2000/svg">
<path d="M7.75 14C7.75 15.6576 8.40848 17.2473 9.58058 18.4194C10.7527 19.5915 12.3424 20.25 14 20.25V7.75003C12.3424 7.75003 10.7527 8.40851 9.58058 9.58061C8.40848 10.7527 7.75 12.3424 7.75 14Z" fill="#59503E"/>
<path d="M14 0.249991C11.2805 0.249991 8.62209 1.05641 6.36091 2.56728C4.09974 4.07815 2.33737 6.22561 1.29666 8.73809C0.255958 11.2506 -0.0163382 14.0152 0.514209 16.6825C1.04476 19.3497 2.35432 21.7997 4.27729 23.7227C6.20026 25.6457 8.65027 26.9552 11.3175 27.4858C13.9848 28.0163 16.7494 27.744 19.2619 26.7033C21.7744 25.6626 23.9218 23.9003 25.4327 21.6391C26.9436 19.3779 27.75 16.7195 27.75 14C27.7583 12.192 27.4083 10.4003 26.7202 8.72832C26.0321 7.05636 25.0196 5.53728 23.7412 4.25882C22.4627 2.98037 20.9436 1.96786 19.2717 1.27979C17.5997 0.591722 15.808 0.241716 14 0.249991ZM2.75001 14C2.76642 11.0214 3.95695 8.16941 6.06319 6.06317C8.16943 3.95694 11.0214 2.7664 14 2.74999V7.74999C15.6576 7.74999 17.2473 8.40847 18.4194 9.58057C19.5915 10.7527 20.25 12.3424 20.25 14C20.25 15.6576 19.5915 17.2473 18.4194 18.4194C17.2473 19.5915 15.6576 20.25 14 20.25V25.25C11.0214 25.2336 8.16943 24.043 6.06319 21.9368C3.95695 19.8306 2.76642 16.9786 2.75001 14Z" fill="#59503E"/>
</svg>
