<svg width="190" height="189" viewBox="0 0 190 189" fill="none" xmlns="http://www.w3.org/2000/svg">
<g clip-path="url(#clip0_396_1426)">
<path d="M102.484 74.1147C95.2049 84.6586 130.894 108.602 143.396 116.519C133.286 113.492 123.368 109.872 113.692 105.68C106.363 95.2755 72.2027 47.8637 65.2424 60.0843C59.2542 70.6131 91.7917 93.0066 107.265 102.865C89.7645 94.8646 72.7612 85.8361 56.3448 75.8263C56.0853 75.5973 26.9847 48.8058 22.5523 59.4042C18.1198 70.0026 55.401 79.0916 55.401 79.0916L55.3627 79.0168C61.3692 83.1164 70.2013 89.0264 80.8619 95.354C66.1937 89.6125 39.6398 81.1569 33.7364 92.1612C25.8215 106.914 75.9679 104.585 89.1643 100.104C97.5041 104.772 106.638 109.506 116.297 113.751C101.443 111.642 68.4719 108.321 68.7839 120.457C69.1776 135.727 97.5334 129.646 121.493 115.985C138.101 122.952 155.758 128.345 172.605 129.797L172.117 121.871C172.117 121.871 163.731 122.163 146.487 117.392C140.366 107.927 110.375 62.6921 102.484 74.1147Z" fill="#585123"/>
</g>
<defs>
<clipPath id="clip0_396_1426">
<rect width="141" height="140" fill="white" transform="translate(0 64.1698) rotate(-27.0717)"/>
</clipPath>
</defs>
</svg>
