<svg width="134" height="237" viewBox="0 0 134 237" fill="none" xmlns="http://www.w3.org/2000/svg">
<path d="M110.617 228.58C110.884 211.645 108.064 191.788 97.1901 173.192C95.4331 170.188 93.5623 167.38 91.6121 164.756C91.6121 164.756 88.1459 159.989 84.5764 157.11C84.0285 156.667 83.4652 156.264 83.4652 156.264C83.4652 156.264 83.4331 156.24 83.3994 156.217C83.023 155.949 75.8329 151.521 69.4109 151.19C64.5964 150.942 62.6826 153.123 52.73 156.455C37.9215 161.413 31.4973 160.156 18.8569 164.331C12.0729 166.571 12.3801 167.442 5.00528 169.788C3.76692 170.181 2.15454 170.669 1.97611 171.229C1.6267 172.324 7.41243 171.62 12.1498 174.098C16.2756 176.256 15.3302 178.59 19.299 180.879C22.6888 182.834 26.5102 182.937 29.6757 183.021C43.0441 183.377 64.2394 176.55 78.5158 162.777C83.2531 158.207 85.5654 154.477 86.5463 152.748C87.475 151.114 93.8744 139.847 88.91 134.705C86.5851 132.299 84.5184 134.077 81.0426 131.318C77.8505 128.783 78.7204 126.59 74.8621 120.655C73.5993 118.713 71.1176 114.897 69.7519 115.536C68.885 115.941 69.0222 117.884 68.6517 121.413C67.9356 128.234 66.5844 128.987 66.4046 132.925C66.3471 134.185 66.0716 140.208 70.3251 144.348C72.6616 146.623 73.8042 145.837 81.0566 150.11C86.3648 153.237 86.9099 154.34 87.1249 154.852C87.8063 156.48 87.6801 158.2 84.6274 166.853C82.2432 173.61 81.0519 176.989 79.8016 179.251C77.4386 183.528 74.7949 188.311 69.3381 192.701C65.084 196.122 63.9021 195.458 56.0936 200.631C49.1652 205.221 46.9412 207.835 45.9037 207.491C44.1199 206.898 47.4239 198.079 54.1395 189.605C59.537 182.794 66.3155 177.244 85.0218 160.866C85.7649 160.216 87.1064 159.031 88.4596 157.31C91.9413 152.885 92.6933 148.491 92.8271 144.315C93.1091 135.464 90.7486 129.965 90.7486 129.965C89.1816 126.317 73.3367 89.4222 74.3486 66.2821C74.4105 64.8708 74.7281 59.0734 71.6803 53.3304C70.0397 50.239 67.909 46.2262 62.1502 44.893C55.1261 43.2658 46.7232 46.5554 45.071 47.2017C40.522 48.9826 40.0025 50.1647 36.5168 50.9542C29.2257 52.6057 24.5415 49.0053 24.0378 48.6013C23.6356 48.2787 18.2647 43.7937 21.1453 37.164C21.4285 36.5117 23.0924 32.6847 25.628 31.9014C28.9904 30.8622 31.7517 35.8337 33.0266 38.1963C37.0308 45.6192 36.2736 51.1226 37.3874 59.0374C38.373 66.041 39.5953 74.7256 46.2314 81.7456C48.7925 84.4554 53.4734 89.2383 62.7527 90.805C73.3113 92.5875 89.1731 90.0976 101.027 80.8082C106.199 76.7549 109.024 71.9964 114.673 62.4784C114.673 62.4784 124.16 46.4936 126.074 28.0484C126.382 25.0911 126.573 21.2252 123.51 19.2049C120.927 17.5013 116.15 17.1873 113.368 19.1751C111.66 20.3943 111.886 21.6359 110.072 24.3603C110.072 24.3603 107.904 27.6184 102.672 31.4188C96.0479 36.2301 84.7898 36.3408 76.3046 36.3434C41.0802 36.3524 37.1659 34.4892 35.9255 30.963C34.7503 27.6238 36.3949 23.9905 36.8136 23.0954C40.9242 14.313 54.0853 9.07242 60.1055 6.67594C66.0602 4.30522 75.1827 0.672496 83.0732 2.8293C84.3893 3.18893 91.1561 5.03872 91.6652 10.8578C91.7593 11.9338 91.994 14.6211 89.7893 17.1687C85.5792 22.034 76.3052 21.9492 74.3855 21.9309C69.3433 21.8844 63.3656 20.3299 64.0024 17.9759C64.4488 16.3268 67.9856 14.8653 68.5148 14.6468C71.3776 13.4631 74.1922 13.6264 75.916 14.718C76.5473 15.117 78.2432 16.1906 77.6841 17.6529C77.3206 18.6038 75.9886 19.7587 67.4878 22.6996C59.0231 25.6287 54.7474 27.0709 52.4924 26.0045C50.4462 25.0363 49.1653 22.6344 50.1669 20.1786C51.7215 16.3646 58.1937 13.8655 64.6201 11.3832C74.1772 7.69282 81.394 7.05408 87.4018 6.57181C93.099 6.11464 95.2153 6.50975 96.7689 7.03608C97.5687 7.30751 101.926 8.87161 103.482 13.3407C104.425 16.0519 103.918 18.6254 102.759 22.9587C99.9374 33.4996 97.6259 39.1081 97.6259 39.1081C95.8226 43.4834 92.6938 54.1646 86.4364 75.5282C85.8065 77.6795 84.4187 82.6368 86.1555 87.4356C86.8731 89.4176 87.7607 91.7256 90.6281 92.8066C95.0578 94.4752 101.737 92.2785 106.127 89.4333C109.738 87.0932 109.06 86.0895 113.871 82.3691C119.092 78.3302 120.792 78.8161 124.881 75.3171C129.337 71.504 132.501 66.4943 131.452 65.7326C131.137 65.504 130.426 65.6482 124.495 68.8568C116.742 73.0525 112.768 75.2246 108.036 78.8295C105.709 80.6021 105.822 80.7103 104.299 81.7253C99.668 84.8122 95.4035 85.9634 92.5514 86.7337C78.6496 90.4915 73.9063 91.8126 70.3672 92.8646C64.1346 94.7158 61.0185 95.642 58.4337 96.9093C51.9753 100.076 50.9736 102.372 41.843 108.879C32.7474 115.36 27.0055 117.882 27.2784 118.884C27.5333 119.817 32.7034 118.342 38.3729 116.725C47.5576 114.106 52.1512 112.795 56.7412 110.409C68.4565 104.319 71.2499 96.0136 74.714 94.9137C82.0693 92.5781 93.1842 122.481 110.618 228.578L110.617 228.58Z" stroke="#F9F5EE" stroke-width="3" stroke-miterlimit="10"/>
</svg>
