<svg width="15" height="15" viewBox="0 0 15 15" fill="none" xmlns="http://www.w3.org/2000/svg">
    <path fill-rule="evenodd" clip-rule="evenodd"
        d="M3.9599 9.29639L4.9497 10.2862L0.989802 14.2461L0 13.2563L3.9599 9.29639ZM9.1 8.64609C7.1701 8.64609 5.6 7.07599 5.6 5.14609C5.6 3.21619 7.1701 1.64609 9.1 1.64609C11.0299 1.64609 12.6 3.21619 12.6 5.14609C12.6 7.07599 11.0299 8.64609 9.1 8.64609ZM9.1 0.246094C6.3938 0.246094 4.2 2.43989 4.2 5.14609C4.2 7.85229 6.3938 10.0461 9.1 10.0461C11.8062 10.0461 14 7.85229 14 5.14609C14 2.43989 11.8062 0.246094 9.1 0.246094Z"
        fill="#F9F5EE" />
</svg>