<svg xmlns="http://www.w3.org/2000/svg" xmlns:xlink="http://www.w3.org/1999/xlink" version="1.1" x="0px" y="0px" viewBox="0 0 66 82.5" enable-background="new 0 0 66 66" xml:space="preserve"><g><path d="M3.045,40.588c-1.235,2.986-2.183,7.077,0.317,9.604c1.288,1.303,3.078,1.723,4.809,2.128   c7.124,1.669,4.336,4.377,5.693,6.32c0.699,1,1.924,1.081,3.004,1.151c1.427,0.095,1.953,0.138,4.144,1.687   c1.433,1.013,3.423,2.509,8.218,2.509c2.007,0,9.843-0.513,13.876-2.379c3.052-1.413,5.222-3.803,5.921-6.48   c0.075,0.032,0.154,0.061,0.229,0.093c0.057,0.171,0.163,0.215,0.326,0.132c1.047,0.419,2.17,0.766,3.373,0.747   c1.624-0.043,3.474-1.011,3.869-2.778c0.357-1.598-0.623-3.081-0.51-4.442c0.107-1.298,1.178-2.339,2.213-3.345   c5.483-5.364,7.377-12.759,6.103-19.118c-0.785-3.914-2.662-7.458-4.477-10.884c-1.538-2.903-3.15-5.602-5.95-6.742   c-2.934-1.193-3.565-0.019-7.001-3.34c-2.907-2.809-6.294-4.336-11.556-2.874c-1.611,0.448-3.032,1.211-4.406,1.948   c-3.583,1.922-4.24,2.195-7.494,1.109c-5.02-1.674-9.707-0.844-12.859,2.277c-1.458,1.444-2.515,3.246-4.195,4.138   C5.11,12.426,4.56,14.36,4.848,16.016c0.517,2.969,1.379,3.65-1.477,5.917c-2.168,1.721-3.461,3.566-1.186,6.728   C4.539,31.936,6.467,32.305,3.045,40.588z M2.89,27.921c-0.193-0.284-0.405-0.646-0.575-1.053l0.814,0.814L2.89,27.921z    M5.636,36.28l0.176,0.176l-0.29,0.29C5.563,36.591,5.6,36.435,5.636,36.28z M4.858,38.768l0.954,0.954l-1.71,1.71l-0.167-0.167   c-0.02-0.02-0.048-0.018-0.072-0.03C4.232,40.309,4.463,39.811,4.858,38.768z M3.679,41.715l0.07,0.07l-0.151,0.151   C3.624,41.862,3.652,41.789,3.679,41.715z M3.347,42.695c0.023,0.007,0.043,0.028,0.067,0.028c0.064,0,0.128-0.024,0.177-0.073   l0.511-0.511l1.151,1.151l-1.71,1.71l-0.607-0.606C3.035,43.821,3.177,43.25,3.347,42.695z M3.222,48.221l0.7,0.699l-0.182,0.182   C3.527,48.827,3.357,48.531,3.222,48.221z M2.907,47.2c-0.048-0.248-0.08-0.502-0.097-0.76l0.733-0.733l1.737,1.736   c0.023,0.023,0.055,0.022,0.084,0.035l-1.089,1.089L2.907,47.2z M2.799,45.743c0.007-0.242,0.023-0.486,0.05-0.731l0.34,0.34   L2.799,45.743z M28.657,62.971l0.267-0.267l0.277,0.277C29.017,62.982,28.837,62.975,28.657,62.971z M30.495,62.944l0.757-0.757   l0.658,0.658C31.432,62.887,30.96,62.92,30.495,62.944z M32.885,62.754l0.934-0.934l0.751,0.751   C33.626,62.679,33.806,62.66,32.885,62.754z M38.171,60.479l0.837,0.837l-0.726,0.726c-0.085,0.016-0.17,0.029-0.255,0.044   l-0.9-0.9l1.032-1.032C38.084,60.253,38.081,60.39,38.171,60.479z M41.649,61.133c-0.546,0.204-1.105,0.371-1.67,0.521   c-0.01-0.044-0.017-0.09-0.052-0.125l-0.213-0.213l1.156-1.156l0.837,0.837c0.015,0.015,0.037,0.012,0.055,0.023L41.649,61.133z    M39.479,61.788c-0.1,0.024-0.202,0.042-0.302,0.065l0.183-0.183L39.479,61.788z M37.424,62.191   c-0.506,0.082-1.014,0.154-1.522,0.22l0.871-0.871L37.424,62.191z M42.899,60.589l0.753-0.753l0.176,0.176   c0.021,0.021,0.05,0.019,0.075,0.031C43.583,60.239,43.247,60.42,42.899,60.589z M44.247,59.816   c-0.005-0.057-0.022-0.114-0.065-0.157l-0.176-0.176l1.134-1.135l0.346,0.346c0.04,0.04,0.092,0.052,0.144,0.06   C45.214,59.138,44.744,59.488,44.247,59.816z M52.93,55.1c-0.587,0.025-1.173-0.076-1.747-0.237   c0.009-0.074-0.005-0.148-0.062-0.204l-0.401-0.401l0.823-0.823l0.696,0.696l-0.332,0.332c-0.098,0.098-0.098,0.256,0,0.354   c0.098,0.098,0.256,0.098,0.354,0l0.332-0.332l0.593,0.593C53.099,55.084,53.013,55.098,52.93,55.1z M55.849,53.104   c-0.217,0.968-1.121,1.608-2.077,1.866c-0.005-0.006-0.003-0.016-0.009-0.022l-0.818-0.818l1.268-1.268l0.746,0.746   c0.098,0.098,0.256,0.098,0.354,0c0.098-0.098,0.098-0.256,0-0.354l-0.746-0.746l0.7-0.701c0.089-0.089,0.098-0.229,0.021-0.329   l-0.722-0.942l0.759-0.759l0.041,0.041C55.546,50.987,56.063,52.144,55.849,53.104z M55.318,48.797   c-0.007,0.089-0.001,0.175-0.002,0.262l-1.085-1.085c0.021-0.011,0.047-0.009,0.065-0.027l1.921-1.921l0.243,0.243   C55.866,47.001,55.399,47.822,55.318,48.797z M57.831,44.817c-0.348,0.339-0.708,0.694-1.046,1.07l-0.215-0.215l0.247-0.247   c0.098-0.098,0.098-0.256,0-0.354c-0.098-0.098-0.256-0.098-0.354,0l-0.246,0.247l-0.823-0.823l1.363-1.363l1.194,1.195   c0.098,0.098,0.256,0.098,0.353,0c0.098-0.098,0.098-0.256,0-0.354l-1.194-1.195l0.982-0.982l1.32,1.32   C58.723,43.949,58.418,44.243,57.831,44.817z M63.65,26.612c0.011,0.052,0.016,0.106,0.026,0.159l-0.175-0.175l0.117-0.117   C63.627,26.524,63.641,26.568,63.65,26.612z M63.984,29.495l-0.355-0.355l0.32-0.32C63.965,29.044,63.974,29.27,63.984,29.495z    M63.895,32.332l-0.617-0.617l0.658-0.658c0.035-0.035,0.043-0.082,0.052-0.127C63.974,31.398,63.944,31.865,63.895,32.332z    M63.452,34.956c-0.183-0.235-0.413-0.428-0.66-0.593l0.961-0.961C63.671,33.923,63.575,34.442,63.452,34.956z M42.892,3.654   l-0.34,0.34L41.92,3.361C42.253,3.443,42.579,3.539,42.892,3.654z M40.394,3.116l-0.852,0.852l-0.88-0.88   C39.252,3.054,39.83,3.065,40.394,3.116z M37.327,3.234c-0.02,0.011-0.045,0.008-0.062,0.026l-1.017,1.017L35.611,3.64   C36.122,3.483,36.398,3.388,37.327,3.234z M31.712,5.405c0.298-0.16,0.591-0.316,0.885-0.469l0.415,0.415l-1.551,1.551   l-0.894-0.894C30.954,5.809,31.338,5.606,31.712,5.405z M14.165,8.676L12.979,7.49c0.586-0.394,1.208-0.727,1.868-0.985   l0.745,0.745L14.165,8.676z M6.965,13.011c0.293-0.061,1.041-0.631,1.279-0.825c0.005,0.057,0.022,0.113,0.065,0.157l1.138,1.138   c-0.001,0.001-0.002,0-0.003,0.001l-1.255,1.255l-1.561-1.561c-0.01-0.009-0.024-0.007-0.035-0.014   C6.703,13.093,6.826,13.04,6.965,13.011z M6.256,13.488c0.009,0.013,0.006,0.031,0.017,0.042l1.561,1.561l-1.137,1.137   c-0.098,0.098-0.098,0.256,0,0.354c0.098,0.098,0.256,0.098,0.354,0l1.137-1.137l0.052,0.052c0.098,0.098,0.256,0.098,0.354,0   c0.098-0.098,0.098-0.256,0-0.354l-0.052-0.052l1.255-1.255c0.001-0.001,0-0.002,0.001-0.003l0.362,0.362   c0.098,0.098,0.256,0.098,0.354,0c0.098-0.098,0.098-0.256,0-0.354L8.662,11.99c-0.035-0.035-0.083-0.043-0.128-0.053   c0.713-0.637,1.325-1.358,1.944-2.087l0.621,0.621l-1.773,1.773c-0.098,0.098-0.098,0.256,0,0.354c0.098,0.098,0.256,0.098,0.354,0   l1.773-1.773l0.922,0.922c0.098,0.098,0.256,0.098,0.353,0c0.098-0.098,0.098-0.256,0-0.354l-0.922-0.922l1.269-1.269   c0.098-0.098,0.098-0.256,0-0.354c-0.098-0.098-0.256-0.098-0.354,0l-1.269,1.269L10.804,9.47c0.255-0.293,0.515-0.582,0.784-0.848   c0.309-0.306,0.64-0.578,0.98-0.834l1.56,1.56c0.098,0.098,0.256,0.098,0.354,0c0.083-0.083,0.081-0.206,0.021-0.302l1.442-1.442   l0.503,0.503c0.098,0.098,0.256,0.098,0.354,0c0.098-0.098,0.098-0.256,0-0.353L16.299,7.25l0.588-0.588   c0.098-0.098,0.098-0.256,0-0.353c-0.098-0.098-0.256-0.098-0.354,0l-0.588,0.588l-0.569-0.569   c2.625-0.859,5.407-0.627,8.052,0.254c3.254,1.087,4.304,0.828,6.665-0.339l1.014,1.013l-0.544,0.544   c-0.098,0.098-0.098,0.256,0,0.353c0.098,0.098,0.256,0.098,0.354,0l0.544-0.544l0.187,0.187c0.098,0.098,0.256,0.098,0.354,0   c0.098-0.098,0.098-0.256,0-0.353l-0.187-0.187l1.551-1.551l0.623,0.623c0.098,0.098,0.256,0.098,0.354,0   c0.098-0.098,0.098-0.256,0-0.353l-0.623-0.623l0.33-0.33c0.098-0.098,0.098-0.256,0-0.354c-0.098-0.098-0.256-0.098-0.354,0   l-0.33,0.33l-0.299-0.299c0.657-0.332,1.321-0.633,2.014-0.882l0.814,0.814l-0.698,0.698c-0.098,0.098-0.098,0.256,0,0.353   c0.098,0.098,0.256,0.098,0.354,0l0.698-0.698l0.322,0.322c0.098,0.098,0.256,0.098,0.353,0c0.098-0.098,0.098-0.256,0-0.354   L36.601,4.63l1.017-1.017c0.098-0.098,0.098-0.256,0-0.353c-0.032-0.032-0.076-0.037-0.117-0.048   c0.171-0.026,0.341-0.048,0.51-0.067l1.177,1.177L38.85,4.66c-0.098,0.098-0.098,0.256,0,0.353c0.098,0.098,0.256,0.098,0.354,0   l1.595-1.595c0.072-0.072,0.072-0.171,0.039-0.26c0.071,0.01,0.139,0.027,0.21,0.038l1.152,1.151L41.527,5.02   c-0.098,0.098-0.098,0.256,0,0.354c0.098,0.098,0.256,0.098,0.354,0l0.673-0.673l0.122,0.122c0.098,0.098,0.256,0.098,0.354,0   c0.098-0.098,0.098-0.256,0-0.353l-0.122-0.122l0.417-0.417c0,0,0-0.001,0-0.001l0.779,0.779L43.74,5.071   c-0.098,0.098-0.098,0.256,0,0.354c0.098,0.098,0.256,0.098,0.354,0l0.364-0.364l0.445,0.445c0.098,0.098,0.256,0.098,0.354,0   c0.098-0.098,0.098-0.256,0-0.353l-0.445-0.445l0.017-0.017c0.588,0.432,1.119,0.939,1.678,1.479   c3.617,3.497,4.634,2.455,7.32,3.548c2.489,1.012,3.995,3.549,5.443,6.283c1.67,3.152,3.381,6.407,4.213,9.907l-0.335,0.335   l-0.077-0.077c-0.098-0.098-0.256-0.098-0.354,0c-0.098,0.098-0.098,0.256,0,0.354l0.077,0.077l-0.396,0.396   c-0.098,0.098-0.098,0.256,0,0.354c0.098,0.098,0.256,0.098,0.354,0l0.396-0.396l0.586,0.586c0.021,0.021,0.05,0.019,0.074,0.031   c0.03,0.203,0.054,0.406,0.076,0.61l-0.61,0.61l-0.332-0.332c-0.098-0.098-0.256-0.098-0.354,0   c-0.224,0.224,0.101,0.454,0.332,0.685l-0.332,0.332c-0.098,0.098-0.098,0.256,0,0.354c0.098,0.098,0.256,0.098,0.354,0   l0.332-0.332l0.586,0.586c0.04,0.04,0.093,0.053,0.145,0.06c0.002,0.232-0.008,0.465-0.014,0.697   c-0.009-0.047-0.018-0.096-0.055-0.133c-0.098-0.098-0.256-0.098-0.354,0l-0.658,0.658l-0.046-0.046   c-0.098-0.098-0.256-0.098-0.354,0c-0.098,0.098-0.098,0.256,0,0.354l0.046,0.046l-0.491,0.491c-0.098,0.098-0.098,0.256,0,0.354   c0.098,0.098,0.256,0.098,0.354,0l0.491-0.491l0.757,0.757c-0.035,0.012-0.073,0.014-0.101,0.042l-1.248,1.248   c-0.109-0.046-0.214-0.099-0.328-0.13c-0.133-0.033-0.271,0.042-0.307,0.175c-0.036,0.133,0.042,0.271,0.175,0.307   c0.027,0.007,0.051,0.022,0.077,0.031l-0.379,0.379c-0.098,0.098-0.098,0.256,0,0.354c0.098,0.098,0.256,0.098,0.354,0l0.509-0.509   c0.356,0.216,0.652,0.524,0.842,0.895c-0.18,0.66-0.39,1.311-0.635,1.949l-0.953-0.953l0.81-0.81c0.098-0.098,0.098-0.256,0-0.353   c-0.098-0.098-0.256-0.098-0.353,0l-2.226,2.227c-0.098,0.098-0.098,0.256,0,0.354c0.098,0.098,0.256,0.098,0.354,0l1.063-1.063   l0.972,0.972c0.044,0.044,0.101,0.061,0.158,0.065c-0.162,0.396-0.336,0.786-0.523,1.171c-0.008-0.011-0.005-0.027-0.015-0.037   c-0.098-0.098-0.256-0.098-0.354,0l-0.46,0.46l-0.41-0.41l0.502-0.502c0.098-0.098,0.098-0.256,0-0.354   c-0.098-0.098-0.256-0.098-0.354,0l-0.502,0.502l-0.65-0.65c-0.098-0.098-0.256-0.098-0.353,0c-0.098,0.098-0.098,0.256,0,0.354   l0.65,0.65l-1.476,1.477c-0.098,0.098-0.098,0.256,0,0.354c0.098,0.098,0.256,0.098,0.354,0l1.476-1.477l0.41,0.41l-1.222,1.222   c-0.098,0.098-0.098,0.256,0,0.354c0.098,0.098,0.256,0.098,0.354,0l1.371-1.371c0.012-0.008,0.028-0.005,0.039-0.016   c0.011-0.011,0.008-0.027,0.016-0.04l0.323-0.323c-0.549,1.041-1.185,2.033-1.908,2.955l-1.454-1.454   c-0.003-0.004-0.002-0.009-0.005-0.013c-0.004-0.003-0.009-0.002-0.013-0.005l-0.404-0.404c-0.098-0.098-0.256-0.098-0.354,0   c-0.098,0.098-0.098,0.256,0,0.353l0.237,0.237l-0.982,0.982l-0.427-0.427c-0.098-0.098-0.256-0.098-0.354,0   c-0.098,0.098-0.098,0.256,0,0.354l0.427,0.427l-1.363,1.364l-0.173-0.173c-0.098-0.098-0.256-0.098-0.353,0   c-0.098,0.098-0.098,0.256,0,0.354l0.173,0.173l-0.173,0.173c-0.098,0.098-0.098,0.256,0,0.354c0.098,0.098,0.256,0.098,0.353,0   l0.173-0.173l0.823,0.823l-1.922,1.922c-0.077,0.077-0.075,0.185-0.031,0.278c-0.033,0.012-0.069,0.013-0.096,0.04   c-0.098,0.098-0.098,0.256,0,0.354l1.159,1.159l-0.713,0.713l-0.516-0.674c-0.084-0.111-0.243-0.131-0.35-0.046   c-0.11,0.084-0.13,0.241-0.046,0.35l0.557,0.726l-0.408,0.408c-0.098,0.098-0.098,0.256,0,0.354c0.098,0.098,0.256,0.098,0.354,0   l0.361-0.361l0.548,0.715l-0.546,0.546l-1.318-1.317c-0.098-0.098-0.256-0.098-0.354,0c-0.098,0.098-0.098,0.256,0,0.354   l1.318,1.317l-1.268,1.268l-0.695-0.695l0.573-0.573c0.098-0.098,0.098-0.256,0-0.354c-0.098-0.098-0.256-0.098-0.354,0   l-0.573,0.573l-0.427-0.428c-0.098-0.098-0.256-0.098-0.354,0c-0.098,0.098-0.098,0.256,0,0.354l0.427,0.428l-0.823,0.823   l-0.714-0.714c-0.098-0.098-0.256-0.098-0.353,0c-0.098,0.098-0.098,0.256,0,0.354l0.713,0.714L49.87,54.4   c-0.342-0.141-0.676-0.289-0.999-0.432c-0.294-0.128-0.638,0.048-0.694,0.372c-0.15,0.862-0.49,1.694-0.967,2.479l-0.335-0.335   l0.755-0.755c0.098-0.098,0.098-0.256,0-0.354c-0.098-0.098-0.256-0.098-0.354,0l-0.755,0.755l-0.319-0.319   c-0.098-0.098-0.256-0.098-0.354,0c-0.098,0.098-0.098,0.256,0,0.354l0.319,0.319l-0.406,0.405c-0.098,0.098-0.098,0.256,0,0.354   c0.098,0.098,0.256,0.098,0.354,0l0.406-0.406l0.415,0.414c-0.299,0.43-0.651,0.837-1.039,1.225   c-0.008-0.049-0.019-0.1-0.057-0.138l-0.383-0.383c0.018-0.08,0.01-0.164-0.053-0.226c-0.063-0.063-0.146-0.07-0.226-0.053   l-0.529-0.529c-0.098-0.098-0.256-0.098-0.354,0c-0.098,0.098-0.098,0.256,0,0.354l0.492,0.492l-1.134,1.135l-0.599-0.6   c-0.098-0.098-0.256-0.098-0.354,0c-0.098,0.098-0.098,0.256,0,0.354l0.599,0.6l-1.215,1.215c-0.011-0.018-0.008-0.04-0.023-0.055   l-0.837-0.837l2.03-2.03c0.098-0.098,0.098-0.256,0-0.354c-0.098-0.098-0.256-0.098-0.354,0l-2.03,2.03l-0.147-0.147   c-0.098-0.098-0.256-0.098-0.353,0c-0.098,0.098-0.098,0.256,0,0.354l0.147,0.147l-1.156,1.156l-0.837-0.837   c-0.09-0.09-0.226-0.087-0.324-0.012l1.487-1.487c0.098-0.098,0.098-0.256,0-0.354c-0.098-0.098-0.256-0.098-0.354,0l-2.561,2.561   l-0.406-0.406c-0.098-0.098-0.256-0.098-0.354,0c-0.098,0.098-0.098,0.256,0,0.353l0.406,0.406l-1.27,1.27   c-0.005-0.007-0.003-0.016-0.009-0.023l-0.968-0.967l0.799-0.799c0.098-0.098,0.098-0.256,0-0.354   c-0.098-0.098-0.256-0.098-0.353,0l-0.799,0.799l-0.255-0.254c-0.098-0.098-0.256-0.098-0.354,0c-0.098,0.098-0.098,0.256,0,0.354   l0.254,0.254l-1.113,1.113l-0.746-0.746l0.343-0.343c0.098-0.098,0.098-0.256,0-0.354c-0.098-0.098-0.256-0.098-0.354,0   l-0.343,0.343l-0.233-0.233c-0.098-0.098-0.256-0.098-0.353,0c-0.098,0.098-0.098,0.256,0,0.354l0.233,0.233l-1.07,1.07   l-0.552-0.552l0.567-0.567c0.098-0.098,0.098-0.256,0-0.354c-0.098-0.098-0.256-0.098-0.354,0l-0.567,0.567l-0.233-0.233   c-0.098-0.098-0.256-0.098-0.354,0c-0.098,0.098-0.098,0.256,0,0.354l0.233,0.233l-0.602,0.602   c-0.289-0.017-0.571-0.051-0.853-0.083c-0.003-0.003-0.001-0.008-0.004-0.011l-0.184-0.184l0.898-0.898   c0.098-0.098,0.098-0.256,0-0.354c-0.098-0.098-0.256-0.098-0.354,0l-0.898,0.898l-0.427-0.427c-0.098-0.098-0.256-0.098-0.354,0   c-0.098,0.098-0.098,0.256,0,0.354l0.427,0.427l-0.049,0.049c-2.316-0.436-3.429-1.248-4.58-2.062   c-2.175-1.538-2.862-1.751-4.656-1.868c-0.939-0.062-1.826-0.12-2.25-0.727c-0.974-1.394,1.427-4.909-6.285-6.721   c-1.593-0.374-3.24-0.76-4.326-1.858c-0.002-0.002-0.004-0.005-0.006-0.007l0.208-0.208l0.314,0.314   c0.098,0.098,0.256,0.098,0.353,0c0.098-0.098,0.098-0.256,0-0.354L4.628,48.92l2.334-2.333c0.098-0.098,0.098-0.256,0-0.354   c-0.098-0.098-0.256-0.098-0.353,0l-0.94,0.939c-0.012-0.028-0.011-0.06-0.035-0.084l-1.737-1.736l1.71-1.71l0.237,0.237   c0.098,0.098,0.256,0.098,0.353,0c0.098-0.098,0.098-0.256,0-0.354L5.96,43.289l0.211-0.211c0.098-0.098,0.098-0.256,0-0.354   c-0.098-0.098-0.256-0.098-0.353,0l-0.211,0.211l-1.151-1.151l1.71-1.71l0.261,0.261c0.098,0.098,0.256,0.098,0.353,0   c0.098-0.098,0.098-0.256,0-0.354l-0.261-0.261l0.87-0.87c0.098-0.098,0.098-0.256,0-0.354c-0.098-0.098-0.256-0.098-0.354,0   l-0.87,0.87l-1.117-1.117c0.059-0.166,0.117-0.332,0.173-0.498l0.944-0.944l1.488,1.488c0.098,0.098,0.256,0.098,0.354,0   c0.098-0.098,0.098-0.256,0-0.354l-1.488-1.488l1.134-1.134c0.098-0.098,0.098-0.256,0-0.354c-0.098-0.098-0.256-0.098-0.353,0   l-1.134,1.134l-0.41-0.41c0.7-3.934-1.135-5.488-2.564-7.366l0.291-0.291l0.442,0.442c0.098,0.098,0.256,0.098,0.353,0   c0.098-0.098,0.098-0.256,0-0.354l-0.442-0.442l1.627-1.627c0.221,0.071,0.355-0.097,0.292-0.292l1.14-1.14   c0.098-0.098,0.098-0.256,0-0.354c-0.098-0.098-0.256-0.098-0.354,0l-1.109,1.109l-1.045-1.045l1.851-1.851l0.606,0.606   c0.098,0.098,0.256,0.098,0.354,0c0.098-0.098,0.098-0.256,0-0.354l-0.607-0.606l0.257-0.257c0.098-0.098,0.098-0.256,0-0.354   c-0.098-0.098-0.256-0.098-0.354,0l-0.257,0.258L5.623,21.16c0.228-0.301,0.431-0.622,0.56-0.997l1.411-1.411l0.676,0.676   c0.098,0.098,0.256,0.098,0.354,0c0.098-0.098,0.098-0.256,0-0.353l-0.676-0.676l1.436-1.436c0.098-0.098,0.098-0.256,0-0.354   c-0.098-0.098-0.256-0.098-0.353,0l-1.436,1.436l-1.641-1.641c-0.042-0.186-0.088-0.373-0.121-0.559   C5.707,15.117,5.8,14.092,6.256,13.488z M6.363,19.276c0.051-0.659-0.061-1.316-0.206-1.963l1.084,1.084L6.363,19.276z    M3.993,22.716c0.458-0.363,0.92-0.736,1.317-1.163l0.575,0.575l-1.851,1.851l-0.712-0.712C3.537,23.083,3.761,22.9,3.993,22.716z    M2.955,23.607l0.726,0.726l-1.392,1.392c-0.098,0.098-0.098,0.256,0,0.354c0.098,0.098,0.256,0.098,0.354,0l1.392-1.392   l1.045,1.045l-1.597,1.597l-1.438-1.439C1.924,24.943,2.261,24.292,2.955,23.607z"/><path d="M33.701,16.31c-8.78,0-15.922,7.143-15.922,15.922c0,8.399,6.542,15.283,14.797,15.865l0.461,0.461l-0.064,0.064   c-0.098,0.098-0.098,0.256,0,0.354c0.098,0.098,0.256,0.098,0.354,0l0.064-0.064l0.175,0.175c0.098,0.098,0.256,0.098,0.354,0   c0.098-0.098,0.098-0.256,0-0.354l-0.175-0.175l0.428-0.428c0.484-0.014,0.964-0.045,1.437-0.102l0.156,0.156l-1.133,1.133   c-0.098,0.098-0.098,0.256,0,0.354c0.098,0.098,0.256,0.098,0.354,0l1.133-1.133l0.465,0.465c0.098,0.098,0.256,0.098,0.354,0   c0.098-0.098,0.098-0.256,0-0.354l-0.465-0.465l0.31-0.309c0.007-0.008,0.005-0.019,0.011-0.027   c0.781-0.154,1.535-0.378,2.271-0.642l0.097,0.096l-1.16,1.16c-0.098,0.098-0.098,0.256,0,0.354c0.098,0.098,0.256,0.098,0.354,0   l1.16-1.16l0.439,0.438c0.098,0.098,0.256,0.098,0.353,0c0.098-0.098,0.098-0.256,0-0.353l-0.439-0.438l0.069-0.069   c0.097-0.097,0.097-0.255,0-0.352c0.623-0.266,1.217-0.583,1.796-0.923c0.006,0.007,0.003,0.017,0.01,0.024l0.091,0.091   l-1.107,1.106c-0.098,0.098-0.098,0.256,0,0.354c0.098,0.098,0.256,0.098,0.354,0l1.107-1.107l0.52,0.52   c0.098,0.098,0.256,0.098,0.353,0c0.098-0.098,0.098-0.256,0-0.354l-0.52-0.52l0.933-0.932c0.098-0.098,0.098-0.256,0-0.354   c-0.002-0.002-0.006-0.001-0.008-0.003c0.064-0.05,0.132-0.095,0.195-0.146l1.013,1.013c0.098,0.098,0.256,0.098,0.354,0   c0.098-0.098,0.098-0.256,0-0.354l-0.149-0.149c0.017-0.01,0.038-0.007,0.052-0.022l1.294-1.294l0.055,0.055   c0.098,0.098,0.256,0.098,0.354,0c0.098-0.098,0.098-0.256,0-0.354l-0.055-0.055l0.532-0.532c0.098-0.098,0.098-0.256,0-0.354   c-0.098-0.098-0.256-0.098-0.354,0l-0.532,0.532l-0.493-0.493c0.03-0.035,0.064-0.068,0.094-0.104   c0.012,0.028,0.012,0.061,0.035,0.084c0.098,0.098,0.256,0.098,0.354,0l1.454-1.454l0.39,0.39c0.098,0.098,0.256,0.098,0.353,0   c0.098-0.098,0.098-0.256,0-0.354l-0.39-0.39l0.553-0.553c0.098-0.098,0.098-0.256,0-0.354c-0.098-0.098-0.256-0.098-0.354,0   l-0.553,0.553l-0.221-0.221c0.292-0.499,0.56-1.012,0.797-1.544l0.898,0.898c0.098,0.098,0.256,0.098,0.353,0   c0.098-0.098,0.098-0.256,0-0.354l-0.768-0.768c0.017-0.01,0.038-0.007,0.052-0.022l1.08-1.08l0.172,0.172   c0.098,0.098,0.256,0.098,0.354,0c0.098-0.098,0.098-0.256,0-0.354l-0.963-0.963c0.017-0.01,0.038-0.007,0.053-0.022l1.026-1.026   l0.121,0.121c0.098,0.098,0.256,0.098,0.354,0c0.098-0.098,0.098-0.256,0-0.354l-0.123-0.124c0.092-0.098,0.093-0.251-0.003-0.346   c-0.096-0.096-0.248-0.095-0.346-0.003l-0.638-0.638l0.98-0.98c0.098-0.098,0.098-0.256,0-0.354c-0.098-0.098-0.256-0.098-0.354,0   l-0.929,0.928c0.029-0.394,0.06-0.788,0.06-1.19c0-0.097-0.013-0.191-0.015-0.287l0.277-0.277l0.332,0.332   c0.098,0.098,0.256,0.098,0.353,0c0.098-0.098,0.098-0.256,0-0.354l-0.332-0.332l0.862-0.862c0.098-0.098,0.098-0.256,0-0.354   c-0.098-0.098-0.256-0.098-0.354,0l-0.862,0.862l-0.344-0.344c-0.042-0.41-0.112-0.811-0.184-1.211   c0.017,0.003,0.03,0.02,0.047,0.02c0.064,0,0.128-0.024,0.177-0.073l0.117-0.117l0.485,0.485c0.098,0.098,0.256,0.098,0.354,0   c0.098-0.098,0.098-0.256,0-0.354l-0.485-0.484l0.359-0.358c0.098-0.098,0.098-0.256,0-0.354c-0.098-0.098-0.256-0.098-0.353,0   l-0.359,0.359l-0.652-0.652c-0.014-0.014-0.034-0.011-0.049-0.021c-0.006-0.019-0.009-0.039-0.015-0.058   c0.042-0.011,0.086-0.016,0.118-0.049l0.144-0.144l0.503,0.503c0.098,0.098,0.256,0.098,0.354,0c0.098-0.098,0.098-0.256,0-0.353   l-0.503-0.503l0.568-0.568c0.098-0.098,0.098-0.256,0-0.354c-0.098-0.098-0.256-0.098-0.354,0l-0.568,0.568l-0.679-0.679   c-0.042-0.042-0.098-0.058-0.154-0.064C46.018,20.382,40.328,16.31,33.701,16.31z M18.779,32.232   c0-8.228,6.694-14.922,14.922-14.922s14.922,6.694,14.922,14.922s-6.694,14.922-14.922,14.922S18.779,40.46,18.779,32.232z    M33.32,48.134c0.045,0.001,0.088,0.006,0.133,0.007l-0.063,0.063L33.32,48.134z M42.186,45.718l-0.023-0.023   c0.039-0.025,0.08-0.047,0.119-0.072L42.186,45.718z M45.87,43.478l-1.294,1.294c-0.014,0.014-0.011,0.036-0.022,0.052   l-0.511-0.511c0.477-0.409,0.924-0.849,1.35-1.311L45.87,43.478z M47.313,40.804l-0.68,0.68c0.19-0.265,0.371-0.537,0.545-0.814   L47.313,40.804z M48.532,37.982c0.185-0.477,0.348-0.963,0.488-1.46l0.486,0.486L48.532,37.982z M49.22,35.742   c0.117-0.518,0.209-1.044,0.274-1.58l0.653,0.653L49.22,35.742z M49.345,28.88l-0.066,0.066c-0.013-0.061-0.033-0.119-0.046-0.179   L49.345,28.88z M48.891,27.25l-0.057,0.056c-0.02-0.06-0.045-0.118-0.065-0.178L48.891,27.25z"/><path d="M33.701,52.743c11.31,0,20.511-9.201,20.511-20.511c0-11.31-9.201-20.511-20.511-20.511   c-11.31,0-20.511,9.201-20.511,20.511C13.19,43.542,22.391,52.743,33.701,52.743z M53.212,32.232   c0,10.758-8.752,19.511-19.511,19.511c-7.677,0-14.313-4.468-17.496-10.93l0.213-0.213l0.934,0.934   c0.098,0.098,0.256,0.098,0.354,0c0.098-0.098,0.098-0.256,0-0.354l-0.934-0.934l1.548-1.548c0.098-0.098,0.098-0.256,0-0.354   c-0.098-0.098-0.256-0.098-0.354,0l-1.548,1.548l-1.052-1.052c-0.135-0.373-0.268-0.747-0.38-1.131   c0.12,0.096,0.245,0.075,0.329-0.01l1.234-1.234l0.345,0.345c0.098,0.098,0.256,0.098,0.354,0c0.098-0.098,0.098-0.256,0-0.353   l-0.346-0.346c0.093-0.098,0.094-0.252-0.002-0.348c-0.096-0.096-0.25-0.095-0.348-0.002l-1.124-1.124l0.995-0.995   c0.098-0.098,0.098-0.256,0-0.354c-0.098-0.098-0.256-0.098-0.354,0l-0.995,0.995l-0.822-0.822   c-0.026-0.409-0.062-0.815-0.062-1.23c0-0.198,0.024-0.389,0.03-0.585l1.346-1.346l0.722,0.722c0.098,0.098,0.256,0.098,0.354,0   c0.098-0.098,0.098-0.256,0-0.353l-0.722-0.722l1.918-1.918c0.098-0.098,0.098-0.256,0-0.354c-0.098-0.098-0.256-0.098-0.353,0   l-1.918,1.918l-0.906-0.906c-0.034-0.034-0.08-0.041-0.124-0.051c0.074-0.396,0.169-0.784,0.267-1.171   c0.012,0.022,0.009,0.049,0.028,0.067c0.098,0.098,0.256,0.098,0.354,0l1.43-1.431l0.563,0.563c0.098,0.098,0.256,0.098,0.354,0   c0.098-0.098,0.098-0.256,0-0.354l-0.563-0.563l2.041-2.041c0.098-0.098,0.098-0.256,0-0.354c-0.098-0.098-0.256-0.098-0.354,0   l-2.041,2.041l-0.844-0.844c0.089-0.206,0.196-0.402,0.292-0.605c0.102,0.063,0.202,0.08,0.303-0.021l1.726-1.726l0.933,0.933   c0.098,0.098,0.256,0.098,0.354,0c0.098-0.098,0.098-0.256,0-0.354l-0.933-0.933l1.451-1.451l0.401,0.401l-0.02,0.02   c-0.098,0.098-0.098,0.256,0,0.353c0.098,0.098,0.256,0.098,0.354,0l0.047-0.047c0.091,0.035,0.159,0.065,0.262-0.038   c0.072-0.072,0.073-0.172,0.038-0.262l2.31-2.31c0.098-0.098,0.098-0.256,0-0.353c-0.098-0.098-0.256-0.098-0.354,0l-0.447,0.447   l-1.312-1.312c0.492-0.413,1.004-0.805,1.535-1.169l0.637,0.636l-0.315,0.315c-0.098,0.098-0.098,0.256,0,0.354   c0.098,0.098,0.256,0.098,0.354,0l0.315-0.315l0.487,0.487c0.098,0.098,0.256,0.098,0.354,0c0.098-0.098,0.098-0.256,0-0.353   l-0.487-0.487l1.352-1.352l1.125,1.126c0.098,0.098,0.256,0.098,0.354,0c0.098-0.098,0.098-0.256,0-0.354l-1.136-1.137   c0.069-0.098,0.072-0.228-0.016-0.316c-0.087-0.087-0.218-0.084-0.316-0.016l-0.064-0.064c-0.008-0.008-0.02-0.005-0.029-0.012   c0.762-0.364,1.544-0.691,2.356-0.955l0.783,0.783l-1.365,1.365c-0.098,0.098-0.098,0.256,0,0.353c0.098,0.098,0.256,0.098,0.353,0   l1.365-1.365l0.545,0.545c0.098,0.098,0.256,0.098,0.354,0c0.098-0.098,0.098-0.256,0-0.353l-0.545-0.545l0.816-0.816   c0.098-0.098,0.098-0.256,0-0.354c-0.098-0.098-0.256-0.098-0.354,0l-0.816,0.816l-0.594-0.594c0.628-0.184,1.268-0.335,1.92-0.456   l1.845,1.845c0.032,0.032,0.076,0.037,0.117,0.048c-0.026,0.085-0.022,0.177,0.045,0.245c0.098,0.098,0.256,0.098,0.354,0   l1.791-1.791l1.302,1.302c0.098,0.098,0.256,0.098,0.353,0c0.098-0.098,0.098-0.256,0-0.354l-1.603-1.603   c0.988,0.033,1.958,0.132,2.903,0.307c0.076,0.111,0.269,0.293,0.364,0.388l-1.201,1.201c-0.098,0.098-0.098,0.256,0,0.354   c0.098,0.098,0.256,0.098,0.354,0l1.201-1.201l1.062,1.062c-0.083,0.098-0.085,0.243,0.007,0.336c0.098,0.098,0.256,0.098,0.354,0   L40.591,14c0.071,0.027,0.144,0.051,0.215,0.079l1.107,1.107l-0.512,0.512c-0.098,0.098-0.098,0.256,0,0.354   c0.098,0.098,0.256,0.098,0.354,0l0.514-0.514c0.048,0.045,0.108,0.07,0.169,0.07c0.064,0,0.128-0.024,0.177-0.073   c0.095-0.095,0.094-0.247,0.003-0.345l0.197-0.197c0.186,0.099,0.365,0.206,0.547,0.31v0.338l-0.386,0.386   c-0.098,0.098-0.098,0.256,0,0.354c0.049,0.049,0.113,0.073,0.177,0.073s0.128-0.024,0.177-0.073l0.033-0.033v0.146   c0,0.138,0.112,0.25,0.25,0.25c0.138,0,0.25-0.112,0.25-0.25v-0.646l0.126-0.126c0.008-0.008,0.006-0.021,0.012-0.03   C49.52,19.141,53.212,25.256,53.212,32.232z M14.452,29.186l0.76,0.761l-0.955,0.955C14.297,30.322,14.363,29.751,14.452,29.186z    M14.29,34.207l0.43,0.43l-0.318,0.318C14.368,34.705,14.316,34.46,14.29,34.207z M14.595,35.47l0.479-0.479l1.122,1.122   l-1.234,1.234c-0.029,0.029-0.031,0.068-0.043,0.104c-0.176-0.633-0.32-1.279-0.432-1.936   C14.526,35.502,14.566,35.499,14.595,35.47z M15.808,39.988l0.258,0.258l-0.09,0.09C15.922,40.219,15.859,40.107,15.808,39.988z    M15.574,25.059l0.689,0.689l-1.369,1.369C15.084,26.415,15.308,25.727,15.574,25.059z M17.412,21.519l0.326,0.326l-1.279,1.278   C16.752,22.572,17.07,22.037,17.412,21.519z M18.974,19.472l0.568,0.568l-1.451,1.451l-0.348-0.348   c-0.016-0.016-0.04-0.014-0.059-0.024C18.084,20.545,18.518,19.999,18.974,19.472z M25,15.002l0.053,0.053l-1.352,1.352   l-0.558-0.558c0.575-0.372,1.172-0.71,1.786-1.021C24.929,14.891,24.952,14.954,25,15.002z M40.074,13.81l-0.694,0.694   l-1.057-1.057l0.12-0.12C38.996,13.466,39.54,13.625,40.074,13.81z M42.266,14.833l-0.203-0.203   c0.091,0.044,0.183,0.087,0.274,0.132L42.266,14.833z M33.72,12.721c-0.001,0.066,0.021,0.132,0.071,0.182l0.151,0.151l-1.57,1.57   c-0.012-0.024-0.01-0.052-0.03-0.072l-1.585-1.585c0.963-0.147,1.941-0.247,2.944-0.247C33.707,12.72,33.713,12.721,33.72,12.721z    M20.805,17.629l1.329,1.329l-1.483,1.483l-0.401-0.401l0.317-0.317c0.098-0.098,0.098-0.256,0-0.354   c-0.098-0.098-0.256-0.098-0.353,0l-0.317,0.317l-0.585-0.585C19.783,18.585,20.28,18.093,20.805,17.629z"/><path d="M33.919,35.355c0.098,0.098,0.256,0.098,0.354,0c0.098-0.098,0.098-0.256,0-0.354l-0.639-0.639l1.159-1.159l1.631,1.631   c0.098,0.098,0.256,0.098,0.354,0c0.098-0.098,0.098-0.256,0-0.354l-0.426-0.426c0.061-0.002,0.121-0.023,0.167-0.069l1.41-1.41   l0.635,0.635c0.098,0.098,0.256,0.098,0.354,0c0.098-0.098,0.098-0.256,0-0.354l-0.646-0.646c0.07-0.098,0.073-0.23-0.015-0.317   c-0.088-0.088-0.22-0.085-0.317-0.015l-0.911-0.911l1.451-1.45c0.098-0.098,0.098-0.256,0-0.354c-0.098-0.098-0.256-0.098-0.354,0   l-1.451,1.45l-0.975-0.975l1.155-1.155c0.098-0.098,0.098-0.256,0-0.354c-0.098-0.098-0.256-0.098-0.354,0l-1.155,1.155   l-1.344-1.344l1.16-1.16c0.098-0.098,0.098-0.256,0-0.354c-0.098-0.098-0.256-0.098-0.354,0l-1.16,1.16l-1.189-1.189   c-0.098-0.098-0.256-0.098-0.354,0c-0.098,0.098-0.098,0.256,0,0.353l1.189,1.189l-1.529,1.529l-1.816-1.816   c-0.098-0.098-0.256-0.098-0.353,0c-0.098,0.098-0.098,0.256,0,0.354l1.816,1.816l-1.159,1.159l-2.591-2.591   c-0.098-0.098-0.256-0.098-0.354,0c-0.098,0.098-0.098,0.256,0,0.354l2.591,2.591l-2.075,2.074c-0.098,0.098-0.098,0.256,0,0.354   c0.098,0.098,0.256,0.098,0.354,0l2.074-2.074L33.919,35.355z M37.575,32.222l-1.41,1.41c-0.046,0.046-0.067,0.107-0.069,0.167   l-0.95-0.95l1.529-1.529L37.575,32.222z M33.648,28.294l1.344,1.344l-0.598,0.598c-0.098,0.098-0.098,0.256,0,0.353   c0.098,0.098,0.256,0.098,0.354,0l0.598-0.598l0.975,0.975l-1.529,1.529l-2.673-2.673L33.648,28.294z M31.766,30.176l2.673,2.673   l-1.159,1.159l-2.673-2.673L31.766,30.176z"/></g></svg>