<?xml version="1.0" standalone="no"?><!-- Generator: Gravit.io --><svg xmlns="http://www.w3.org/2000/svg" xmlns:xlink="http://www.w3.org/1999/xlink" style="isolation:isolate" viewBox="16.569 -25.5 541.123 556.26" width="541.123" height="556.26"><defs><clipPath id="_clipPath_4rpHXCdfXNVdF5DDXmTVmzgg80ocdrfi"><rect x="16.569" y="-25.5" width="541.123" height="556.26"/></clipPath></defs><g clip-path="url(#_clipPath_4rpHXCdfXNVdF5DDXmTVmzgg80ocdrfi)"><g><path d=" M 544.492 131.018 L 541.69 132.559 L 538.693 130.525 L 536.248 131.927 L 532.014 131.239 L 527.646 128.553 L 526.231 124.042 L 523.806 124.314 L 524.184 123.105 L 520.867 123.884 L 517.92 127.453 L 512.241 127.099 L 509.841 124.859 L 507.865 127.491 L 507.142 122.63 L 503.19 120.589 L 499.026 121.229 L 498.919 125.003 L 494.904 124.3 L 492.035 116.967 L 487.76 112.713 L 489.158 111.525 L 486.729 107.295 L 481.934 104.461 L 478.098 105.066 L 474.188 102.096 L 465.947 106.327 L 463.385 106.072 L 462.817 103.403 L 458.769 103.059 L 454.796 98.951 L 453.675 100.495 L 449.374 99.781 L 448.087 102.51 L 445.812 101.063 L 442.33 103.109 L 440.536 96.85 L 437.152 94.621 L 435.741 95.88 L 436.468 93.144 L 433.886 90.425 L 429.606 90.63 L 426.609 86.179 L 422.506 83.787 L 416.532 84.243 L 416.341 79.507 L 418.048 76.757 L 413.95 72.949 L 416.092 68.485 L 415.216 66.751 L 418.38 62.124 L 415.494 60.076 L 409.969 65.455 L 409.932 71.205 L 399.715 74.945 L 394.052 72.899 L 390.819 73.575 L 390.819 73.575 L 391.703 79.393 L 389.744 85.06 L 391.562 86.534 L 386.43 91.592 L 385.965 94.47 L 382.162 95.179 L 384.421 98.43 L 382.702 111.883 L 378.014 108.926 L 375.179 110.612 L 374.996 112.862 L 371.948 112.132 L 366.443 114.851 L 366.8 121.245 L 370.723 124.659 L 365.476 125.197 L 364.587 127.146 L 366.136 129.827 L 363.936 132.367 L 366.655 131.975 L 367.78 133.799 L 359.784 144.001 L 359.784 144.001 L 359.855 146.403 L 356.384 146.73 L 358.044 147.88 L 356.006 149.883 L 359.073 151.151 L 358.355 157.59 L 361.813 156.888 L 362.855 158.755 L 358.919 161.628 L 359.588 163.435 L 356.495 164.291 L 357.803 166.628 L 355.536 167.302 L 356.848 172.911 L 356.848 172.911 L 357.425 174.886 L 360.568 174.387 L 365.354 180.481 L 363.702 185.712 L 365.837 185.383 L 367.368 188.48 L 370.739 186.886 L 370.378 188.952 L 372.521 189.863 L 375.867 196.237 L 375.033 198.21 L 376.814 197.065 L 377.594 198.414 L 376.818 201.529 L 383.041 201.782 L 383.685 200.509 L 385.761 201.732 L 388.131 199.656 L 389.592 200.775 L 390.589 198.884 L 391.353 201.473 L 393.346 201.788 L 394.246 199.539 L 404.222 199.125 L 403.446 196.738 L 405.219 195.34 L 414.123 196.776 L 413.774 199.466 L 417.121 200.825 L 415.718 202.777 L 418.691 202.017 L 422.394 209.007 L 419.213 211.526 L 421.007 211.84 L 421.413 216.523 L 423.913 215.023 L 427.607 218.963 L 430.135 216.886 L 429.932 218.613 L 433.486 220.456 L 433.274 223.261 L 436.088 221.052 L 437.454 222.365 L 440.143 217.071 L 444.528 217.304 L 446.271 215.183 L 447.488 217.353 L 451.385 216.579 L 451.394 208.206 L 453.495 208.256 L 454.292 205.82 L 457.074 206.27 L 461.445 198.551 L 462.142 201.122 L 465.887 196.943 L 469.847 195.959 L 472.703 201.363 L 472.703 201.363 L 472.703 201.363 L 472.703 201.363 L 480.384 199.596 L 484.082 204.228 L 489.43 200.56 L 500.158 210.591 L 506.36 213.029 L 507.725 216.775 L 505.945 221.671 L 509.299 222.242 L 511.229 227.754 L 511.229 227.754 L 514.106 228.299 L 512.787 231.372 L 515.825 232.755 L 521.77 232.088 L 524.639 229.713 L 523.634 228.231 L 526.013 229.021 L 527.76 226.239 L 526.452 225.528 L 529.948 223.314 L 526.975 215.839 L 528.486 213.606 L 528.847 204.646 L 531.575 198.902 L 529.384 195.048 L 529.687 189.695 L 534.515 178.428 L 536.658 176.847 L 536.147 172.661 L 540.572 157.244 L 546.082 149.956 L 550.96 147.117 L 556.692 136.283 L 555.543 136.718 L 544.492 131.018 L 544.492 131.018 Z " fill="rgb(204,204,204)" vector-effect="non-scaling-stroke" stroke-width="0.5" stroke="rgb(255,255,255)" stroke-linejoin="miter" stroke-linecap="butt" stroke-miterlimit="4"/><path d=" M 162.747 319.131 L 165.831 325.426 L 164.025 330.493 L 162.447 325.664 L 157.556 321.328 L 156.456 315.758 L 162.747 319.131 L 162.747 319.131 Z  M 160.214 309.88 L 163.166 308.853 L 158.413 306.091 L 155.926 306.54 L 156.441 304.811 L 152.876 305.874 L 152.934 303.201 L 150.335 303.937 L 151.448 306.503 L 160.214 309.88 L 160.214 309.88 Z  M 309.788 293.444 L 310.079 295.742 L 312.014 296.294 L 310.698 298.033 L 318.179 301.807 L 323.14 316.45 L 323.546 320.203 L 321.595 321.114 L 321.268 323.673 L 314.285 328.921 L 319.898 335.754 L 319.819 339.781 L 317.307 342.509 L 319.649 344.986 L 318.395 352.96 L 320.084 354.557 L 318.096 355.859 L 312.616 353.39 L 313.086 357.825 L 306.198 364.605 L 307.788 367.904 L 305.6 369.571 L 305.326 372.796 L 302.238 374.096 L 304.081 377.521 L 300.697 379.013 L 300.697 379.013 L 295.998 380.393 L 294.35 378.914 L 289.954 382.123 L 282.867 375.689 L 278.886 374.852 L 273.676 377.316 L 274.98 384.711 L 269.097 389.571 L 269.824 392.817 L 262.87 396.903 L 261.06 402.512 L 255.97 404.214 L 259.266 414.496 L 254.284 415.682 L 252.408 413.605 L 251.287 417.707 L 254.662 419.765 L 252.835 424.586 L 250.622 424.961 L 252.312 427.62 L 247.957 427.291 L 248.322 429.164 L 242.701 434.156 L 239.762 430.932 L 227.611 436.112 L 224.722 434.311 L 221.633 437.141 L 220.4 435.485 L 217.444 437.807 L 217.585 441.558 L 214.264 439.669 L 215.418 438.238 L 213.633 436.496 L 211.163 439.703 L 207.688 439.083 L 205.197 441.478 L 207.409 443.154 L 207.115 446.498 L 205.74 446.602 L 207.065 450.664 L 204.773 452.388 L 203.532 457.472 L 205.23 459.511 L 211.129 459.545 L 214.367 465.816 L 212.395 466.329 L 212.336 469.303 L 215.097 467.338 L 216.359 472.98 L 213.208 475.534 L 214.408 477.29 L 212.092 479.999 L 212.312 482.609 L 210.257 482.439 L 207.114 486.169 L 207.654 489.703 L 203.166 492.329 L 202.107 501.136 L 202.107 501.136 L 198.724 503.985 L 194.091 502.383 L 192.19 505.168 L 184.713 498.466 L 183.796 494.427 L 175.937 495.258 L 168.842 491.254 L 167.684 492.159 L 160.768 488.735 L 162.353 485.908 L 159.31 487.262 L 158.908 491.004 L 155.333 490.002 L 153.959 487.618 L 157.745 481.904 L 157.475 478.004 L 151.397 475.964 L 148.358 478.345 L 147.694 475.22 L 143.335 475.823 L 140.943 472.723 L 140.868 471.398 L 145.9 470.549 L 148.694 467.998 L 155.075 455.757 L 161.285 423.433 L 162.942 404.193 L 165.557 397.528 L 173.428 398.86 L 170.717 395.358 L 172.199 395.335 L 166.661 390.716 L 163.365 400.07 L 162.734 399.035 L 167.076 349.642 L 171.057 343.848 L 170.82 347.505 L 181.714 357.263 L 186.505 372.447 L 190.914 376.658 L 187.448 370.272 L 182.611 350.521 L 174.844 344.634 L 172.623 340.956 L 163.805 336.83 L 163.743 331.287 L 168.044 330.284 L 166.168 327.291 L 168.808 326.953 L 170.465 324.052 L 169.631 318.993 L 171.416 318.403 L 168.236 310.99 L 166.364 310.345 L 167.348 309.192 L 163.695 308.797 L 168.984 303.039 L 168.78 299.643 L 168.78 299.643 L 176.51 296.376 L 175.198 299.283 L 176.431 300.026 L 181.923 298.109 L 185.149 300.494 L 192.73 295.518 L 189.965 293.778 L 188.483 294.744 L 189.6 281.275 L 187.823 280.395 L 188.719 278.761 L 185.273 273.208 L 186.162 269.944 L 180.644 265.412 L 181.603 263.225 L 177.937 259.97 L 182.441 258.095 L 190.254 258.605 L 192.546 256.444 L 192.019 254.525 L 194.577 253.346 L 196.034 253.461 L 195.133 255.174 L 198.645 252.877 L 207.463 251.837 L 209.182 252.135 L 207.666 254.159 L 209.734 255.137 L 211.519 252.305 L 213.599 253.168 L 214.811 248.686 L 217.393 248.442 L 217.393 248.442 L 218.481 251.168 L 222.699 251.411 L 222.562 254.827 L 227.734 255.307 L 228.581 262.636 L 239.977 261.03 L 238.715 258.058 L 243.85 260.023 L 244.381 264.296 L 253.025 274.963 L 252.921 282.543 L 257.226 284.596 L 257.455 286.45 L 260.486 286.426 L 260.486 286.426 L 265.434 292.605 L 265.434 292.605 L 264.538 296.032 L 269.237 296.338 L 271.334 294.64 L 273.879 297.861 L 278.475 293.026 L 279.26 295.072 L 281.942 293.343 L 282.735 295.342 L 285.101 293.518 L 286.903 295.21 L 289.145 291.236 L 291.47 293.086 L 297.274 292.047 L 301.824 294.028 L 309.788 293.444 L 309.788 293.444 Z " fill="rgb(204,204,204)" vector-effect="non-scaling-stroke" stroke-width="0.5" stroke="rgb(255,255,255)" stroke-linejoin="miter" stroke-linecap="butt" stroke-miterlimit="4"/><path d=" M 509.865 350.021 L 505.73 347.932 L 505.717 339.958 L 502.204 339.253 L 497.713 334.87 L 498.261 328.261 L 503.272 327.661 L 507.56 323.107 L 503.11 314.756 L 500.465 315.448 L 501.52 311.104 L 497.315 310.328 L 500.121 301.795 L 496.224 297.331 L 498.279 293.029 L 485.775 291.234 L 474.703 297.049 L 473.37 299.938 L 475.039 303.561 L 477.065 303.28 L 476.475 305.129 L 469.542 310.233 L 462.447 310.908 L 463.385 305.631 L 469.376 303.573 L 468.45 301.531 L 471.264 296.623 L 466.892 293.671 L 466.892 293.671 L 458.785 302.734 L 452.799 302.967 L 452.321 300.069 L 449.378 297.948 L 445.061 302.507 L 442.354 302.758 L 442.059 299.195 L 440.827 299.698 L 440.3 297.75 L 439.453 299.992 L 438.344 295.688 L 435.111 293.84 L 435.755 291.846 L 432.491 291.149 L 431.093 288.102 L 425.069 289.581 L 420.299 287.5 L 413.57 308.027 L 411.324 307.806 L 411.752 304.619 L 409.402 303.087 L 410.697 301.908 L 409.419 300.261 L 406.861 302.692 L 404.79 300.991 L 402.116 302.566 L 398.031 300.878 L 396.661 307.454 L 392.858 309.175 L 389.815 306.94 L 380.756 308.446 L 380.063 306.449 L 376.646 305.749 L 376.679 301.512 L 381.387 298.978 L 381.18 290.914 L 379.12 289.045 L 375.762 289.339 L 374.512 286.735 L 370.486 286.302 L 370.254 282.479 L 365.608 273.257 L 364.105 272.84 L 362.942 277.229 L 358.625 279.491 L 357.118 275.721 L 354.058 277.531 L 350.836 275.54 L 347.955 277.99 L 340.964 270.841 L 340.964 270.841 L 336.376 270.962 L 333.283 275.015 L 329.738 275.546 L 327.857 273.838 L 324.063 277.158 L 324.216 279.064 L 321.812 279.052 L 323.664 285.419 L 320.418 287.482 L 313.124 287.627 L 309.79 293.443 L 309.79 293.443 L 310.081 295.741 L 312.016 296.293 L 310.7 298.032 L 318.181 301.806 L 323.142 316.449 L 323.548 320.202 L 321.597 321.113 L 321.27 323.672 L 314.287 328.92 L 319.9 335.753 L 319.821 339.78 L 317.309 342.508 L 319.651 344.985 L 318.397 352.959 L 320.086 354.556 L 318.098 355.858 L 312.618 353.389 L 313.088 357.824 L 306.2 364.604 L 307.79 367.903 L 305.602 369.57 L 305.328 372.795 L 302.24 374.095 L 304.083 377.52 L 300.699 379.012 L 300.699 379.012 L 301.932 384.984 L 305.274 389.925 L 303.53 395.284 L 306.777 399.92 L 307.089 398.042 L 310.402 396.925 L 312.781 398.548 L 318.244 397.955 L 321.412 393.922 L 323.26 386.595 L 328.756 381.012 L 330.246 386 L 333.842 384.92 L 338.911 398.316 L 343.959 384.231 L 345.125 383.209 L 347.629 385.609 L 349.704 381.345 L 351.527 381.854 L 355.072 379.03 L 359.859 388.882 L 364.106 387.745 L 364.309 384.845 L 366.821 384.833 L 367.348 387.587 L 370.536 387.045 L 376.024 392.753 L 377.17 401.235 L 384.058 412.186 L 383.19 417.18 L 386.586 416.162 L 391.871 420.301 L 394.74 416.064 L 397.468 415.589 L 397.617 418.827 L 399.373 419.243 L 400.004 416.052 L 402.167 415.745 L 408.146 419.977 L 408.146 419.977 L 408.196 416.538 L 413.925 417.504 L 415.187 422.461 L 425.188 417.827 L 427.206 419.567 L 429.631 417.405 L 429.025 422.201 L 437.449 423.234 L 438.607 426.644 L 441.596 428.719 L 445.187 427.952 L 447.686 424.566 L 449.405 425.709 L 451.199 424.284 L 451.207 420.196 L 447.944 417.925 L 448.828 416.346 L 443.179 416.104 L 440.572 413.957 L 440.102 411.045 L 443.37 410.35 L 441.705 406.761 L 448.182 408.367 L 450.253 406.581 L 447.476 404.167 L 449.386 397.909 L 455.468 397.816 L 457.17 395.663 L 455.862 394.732 L 457.028 391.639 L 462.18 391.581 L 463.392 390.351 L 462.114 388.993 L 464.945 387.197 L 466.556 388.34 L 469.773 385.522 L 474.481 386.246 L 476.312 384.962 L 478.981 386.071 L 477.657 377.662 L 472.696 376.644 L 474.406 370.522 L 478.048 370.363 L 479.356 373.469 L 482.934 374.535 L 485.4 371.172 L 490.395 371.19 L 490.395 371.19 L 496.07 368.281 L 501.276 369.618 L 501.284 367.758 L 503.464 367.676 L 505.793 364.711 L 509.127 364.911 L 511.339 362.602 L 510.306 358.397 L 512.996 353.556 L 510.484 352.171 L 509.865 350.021 L 509.865 350.021 Z " fill="rgb(204,204,204)" vector-effect="non-scaling-stroke" stroke-width="0.5" stroke="rgb(255,255,255)" stroke-linejoin="miter" stroke-linecap="butt" stroke-miterlimit="4"/><path d=" M 341.618 174.828 L 340.289 178.209 L 341.622 181.654 L 337.047 187.033 L 337.047 187.033 L 340.887 188.882 L 341.726 192.601 L 344.844 195.289 L 344.977 198.821 L 340.049 202.942 L 340.721 210.299 L 333.514 212.116 L 333.348 214.615 L 336.603 216.774 L 338.687 223.682 L 333.365 225.602 L 336.79 231.72 L 334.171 237.815 L 338.9 242.496 L 340.403 254.512 L 342.889 256.971 L 340.963 270.844 L 340.963 270.844 L 347.954 277.993 L 350.835 275.543 L 354.057 277.534 L 357.117 275.724 L 358.624 279.494 L 362.941 277.232 L 364.104 272.843 L 365.607 273.26 L 370.253 282.482 L 370.485 286.305 L 374.511 286.738 L 375.761 289.342 L 379.119 289.048 L 381.179 290.917 L 381.386 298.981 L 376.678 301.515 L 376.645 305.752 L 380.062 306.452 L 380.755 308.449 L 389.814 306.943 L 392.857 309.178 L 396.66 307.457 L 398.03 300.881 L 402.115 302.569 L 404.789 300.994 L 406.86 302.695 L 409.418 300.264 L 410.696 301.911 L 409.401 303.09 L 411.751 304.622 L 411.323 307.809 L 413.569 308.03 L 420.298 287.503 L 425.068 289.584 L 431.092 288.105 L 432.49 291.152 L 435.754 291.849 L 435.11 293.843 L 438.343 295.691 L 439.452 299.995 L 440.299 297.753 L 440.826 299.701 L 442.058 299.198 L 442.353 302.761 L 445.06 302.51 L 449.377 297.951 L 452.32 300.072 L 452.798 302.97 L 458.784 302.737 L 466.891 293.674 L 466.891 293.674 L 470.71 285.916 L 468.784 284.026 L 482.973 272.059 L 483.471 265.169 L 482.13 262.806 L 494.066 255.356 L 493.385 253.46 L 503.867 243.685 L 503.361 240.965 L 508.031 238.114 L 506.399 235.726 L 500.695 236.948 L 503.232 232.051 L 505.801 230.778 L 505.017 228.304 L 511.227 227.753 L 511.227 227.753 L 509.297 222.241 L 505.943 221.67 L 507.723 216.774 L 506.358 213.028 L 500.156 210.59 L 489.428 200.559 L 484.08 204.227 L 480.382 199.595 L 472.701 201.362 L 469.845 195.958 L 465.885 196.942 L 462.14 201.121 L 461.443 198.55 L 457.072 206.269 L 454.29 205.819 L 453.493 208.255 L 451.392 208.205 L 451.383 216.578 L 447.486 217.352 L 446.269 215.182 L 444.526 217.303 L 440.141 217.07 L 437.452 222.364 L 436.086 221.051 L 433.272 223.26 L 433.484 220.455 L 429.93 218.612 L 430.133 216.885 L 427.605 218.962 L 423.911 215.022 L 421.411 216.522 L 421.005 211.839 L 419.211 211.525 L 422.392 209.006 L 418.689 202.016 L 415.716 202.776 L 417.119 200.824 L 413.772 199.465 L 414.121 196.775 L 405.217 195.339 L 403.444 196.737 L 404.22 199.124 L 394.244 199.538 L 393.344 201.787 L 391.351 201.472 L 390.587 198.883 L 389.59 200.774 L 388.129 199.655 L 385.759 201.731 L 383.683 200.508 L 383.039 201.781 L 376.816 201.528 L 377.592 198.413 L 376.812 197.064 L 375.031 198.209 L 375.865 196.236 L 372.519 189.862 L 370.376 188.951 L 370.737 186.885 L 367.366 188.479 L 365.835 185.382 L 363.7 185.711 L 365.352 180.48 L 360.566 174.386 L 357.423 174.885 L 356.846 172.91 L 341.618 174.828 L 341.618 174.828 Z " fill="rgb(204,204,204)" vector-effect="non-scaling-stroke" stroke-width="0.5" stroke="rgb(255,255,255)" stroke-linejoin="miter" stroke-linecap="butt" stroke-miterlimit="4"/><path d=" M 80.29 234.826 L 88.016 239.31 L 87.46 241.013 L 80.685 240.013 L 80.29 234.826 L 80.29 234.826 Z  M 81.253 143.01 L 81.465 145.243 L 87.036 142.985 L 87.036 146.023 L 90.091 145.835 L 88.771 148.531 L 93.545 150.076 L 92.86 152.26 L 98.178 156.781 L 97.979 160.131 L 102.471 162.602 L 101.363 164.553 L 102.534 164.059 L 103.784 164.059 L 106.076 164.715 L 109.098 159.849 L 112.456 158.415 L 111.837 157.006 L 113.967 156.53 L 114.685 157.996 L 118.894 154.28 L 120.343 155.547 L 118.122 158.573 L 122.004 157.051 L 124.661 161.314 L 125.852 158.698 L 125.786 157.734 L 130.128 157.396 L 133.233 163.341 L 132.71 166.384 L 134.508 163.809 L 132.648 160.838 L 134.275 161.708 L 133.714 160.375 L 131.186 157.376 L 132.448 154.593 L 138.596 152.787 L 137.558 157.432 L 141.311 159.561 L 149.855 157.657 L 149.855 157.657 L 153.317 166.751 L 156.107 168.512 L 158.905 168.012 L 163.06 163.326 L 170.695 165.557 L 170.695 165.557 L 170.695 165.557 L 170.695 165.557 L 171.72 176.752 L 169.395 180.647 L 172.911 196.97 L 167.161 199.339 L 163.362 210.957 L 153.735 207.333 L 153.976 209.324 L 147.79 211.751 L 146.217 215.074 L 137.905 215.129 L 133.969 217.422 L 133.214 216.045 L 128.705 218.743 L 128.024 225.923 L 125.562 226.616 L 125.3 228.57 L 119.696 226.946 L 118.911 230.327 L 114.511 229.354 L 113.083 231.123 L 113.083 231.123 L 111.522 231 L 111.265 228.422 L 113.785 228.042 L 110.937 226.449 L 98.242 228.778 L 94.261 224.678 L 88.91 223.12 L 85.464 223.691 L 85.833 227 L 87.276 229.871 L 85.138 229.601 L 84.378 222.098 L 78.707 216.576 L 75.614 216.539 L 75.394 215.008 L 71.753 215.931 L 68.697 211.746 L 60.373 209.202 L 55.088 210.083 L 51.294 203.194 L 49.513 204.373 L 50.115 206.15 L 42.983 206.014 L 41.119 209.738 L 33.804 209.75 L 34.199 204.102 L 31.588 199.494 L 27.864 196.848 L 18.482 194.756 L 19.408 193.171 L 31.775 190.538 L 36.4 191.635 L 37.973 189.112 L 35.964 184.513 L 29.824 182.332 L 25.876 186.599 L 26.519 181.704 L 23.269 181.375 L 22.991 179.802 L 25.424 179.646 L 25.358 176.622 L 26.985 175.98 L 26.852 179.534 L 38.256 179.777 L 38.8 178.589 L 35.085 177.606 L 36.517 176.635 L 35.882 174.648 L 33.599 176.896 L 30.057 176.884 L 32.469 173.352 L 31.49 172.573 L 23.859 176.149 L 20.804 175.084 L 16.989 176.703 L 16.819 165.096 L 18.766 162.552 L 23.723 161.282 L 26.558 157.495 L 32.408 157.47 L 30.942 156.392 L 34.703 154.97 L 36.779 155.76 L 36.792 157.702 L 40.968 156.562 L 39.839 156.136 L 41.338 154.362 L 46.623 155.027 L 48.761 151.822 L 50.305 151.828 L 50.234 155.165 L 51.903 155.879 L 55.062 155.171 L 56.378 152.33 L 63.83 153.804 L 64.694 154.419 L 66.404 155.416 L 67.791 150.711 L 66.205 146.867 L 67.546 147.778 L 69.638 144.773 L 74.047 147.237 L 81.253 143.01 L 81.253 143.01 Z " fill="rgb(204,204,204)" vector-effect="non-scaling-stroke" stroke-width="0.5" stroke="rgb(255,255,255)" stroke-linejoin="miter" stroke-linecap="butt" stroke-miterlimit="4"/><path d=" M 277.46 138.463 L 281.487 144.815 L 281.637 155.783 L 289.309 162.757 L 289.907 168.193 L 292.738 169.828 L 295.246 168.786 L 295.15 171.974 L 297.205 172.248 L 297.653 174.616 L 297.001 179.279 L 304.927 178.626 L 306.571 175.793 L 308.318 178.632 L 311.752 176.479 L 314.928 177.556 L 315.741 181.039 L 319.615 183.14 L 319.636 186.785 L 316.567 189.458 L 327.437 189.489 L 329.462 188.131 L 328.719 186.803 L 331.317 186.679 L 332.165 189.093 L 337.047 187.033 L 337.047 187.033 L 340.887 188.882 L 341.726 192.601 L 344.844 195.288 L 344.977 198.82 L 340.049 202.941 L 340.721 210.298 L 333.514 212.115 L 333.348 214.614 L 336.603 216.772 L 338.687 223.681 L 333.364 225.601 L 336.789 231.719 L 334.17 237.813 L 338.898 242.495 L 340.401 254.51 L 342.888 256.97 L 340.962 270.842 L 340.962 270.842 L 336.374 270.963 L 333.281 275.017 L 329.736 275.548 L 327.855 273.839 L 324.062 277.159 L 324.215 279.065 L 321.811 279.053 L 323.662 285.42 L 320.416 287.483 L 313.122 287.628 L 309.788 293.444 L 309.788 293.444 L 301.821 294.026 L 297.271 292.045 L 291.468 293.084 L 289.143 291.234 L 286.901 295.208 L 285.099 293.516 L 282.733 295.34 L 281.94 293.342 L 279.258 295.07 L 278.474 293.024 L 273.878 297.859 L 271.333 294.638 L 269.236 296.336 L 264.537 296.03 L 265.434 292.604 L 265.434 292.604 L 260.485 286.425 L 260.485 286.425 L 257.455 286.449 L 257.226 284.596 L 252.921 282.542 L 253.025 274.962 L 244.381 264.295 L 243.85 260.022 L 238.715 258.057 L 239.977 261.029 L 228.581 262.635 L 227.734 255.306 L 222.562 254.826 L 222.698 251.41 L 218.48 251.167 L 217.393 248.441 L 217.393 248.441 L 218.339 241.281 L 222.698 235.174 L 221.478 234.086 L 224.33 227.923 L 223.192 225.533 L 224.795 221.49 L 231.076 223.632 L 231.06 219.126 L 233.795 220.631 L 239.894 217.393 L 240.836 216.09 L 239.462 214.571 L 244.273 211.555 L 247.047 207.544 L 246.715 203.317 L 248.807 204.077 L 250.368 200.891 L 250.085 195.35 L 248.222 194.892 L 248.072 192.824 L 250.119 192.675 L 248.886 191.008 L 250.447 188.913 L 253.141 188.572 L 248.238 185.127 L 248.238 185.127 L 249.592 183.929 L 247.088 177.164 L 253.075 174.024 L 255.636 169.797 L 253.98 167.544 L 255.25 164.602 L 250.297 159.222 L 250.297 159.222 L 248.736 155.846 L 250.991 154.329 L 250.991 154.329 L 251.518 152.585 L 258.098 151.801 L 259.281 149.899 L 261.444 150.64 L 261.697 147.952 L 270.453 149.724 L 272.113 148.467 L 271.682 145.117 L 275.758 142.765 L 275.248 139.509 L 277.46 138.463 Z " fill="rgb(204,204,204)" vector-effect="non-scaling-stroke" stroke-width="0.5" stroke="rgb(255,255,255)" stroke-linejoin="miter" stroke-linecap="butt" stroke-miterlimit="4"/><path d=" M 285.855 120.07 L 287.96 123.631 L 291.31 124.346 L 298.23 123.612 L 301.514 121.427 L 305.234 124.391 L 307.223 123.39 L 307.82 125.169 L 311.171 122.94 L 318.502 127.991 L 321.08 126.839 L 322.367 129.659 L 324.422 127.852 L 328.615 130.847 L 331.704 128.585 L 333.514 130.253 L 338.367 128.907 L 339.147 130.203 L 342.428 129.312 L 342.568 127.301 L 345.408 127.991 L 347.566 131.529 L 346.596 133.922 L 350.635 138.551 L 352.3 137.927 L 353.296 140.485 L 354.902 139.213 L 355.538 142.765 L 358.784 144.922 L 359.784 143.998 L 359.784 143.998 L 359.855 146.4 L 356.385 146.727 L 358.045 147.877 L 356.007 149.88 L 359.074 151.148 L 358.356 157.588 L 361.814 156.886 L 362.856 158.753 L 358.921 161.625 L 359.59 163.433 L 356.497 164.289 L 357.805 166.626 L 355.538 167.3 L 356.85 172.909 L 356.85 172.909 L 341.618 174.828 L 340.289 178.209 L 341.622 181.654 L 337.047 187.033 L 337.047 187.033 L 332.165 189.093 L 331.317 186.679 L 328.719 186.803 L 329.462 188.131 L 327.437 189.489 L 316.567 189.458 L 319.636 186.785 L 319.615 183.14 L 315.741 181.039 L 314.928 177.556 L 311.752 176.479 L 308.318 178.632 L 306.571 175.793 L 304.927 178.626 L 297.001 179.279 L 297.653 174.616 L 297.205 172.248 L 295.15 171.974 L 295.246 168.786 L 292.738 169.828 L 289.907 168.193 L 289.309 162.757 L 281.637 155.783 L 281.487 144.815 L 277.46 138.463 L 277.46 138.463 L 277.46 138.463 L 277.46 138.463 L 277.46 138.463 L 277.46 138.463 L 278.204 136.055 L 276.182 136.219 L 275.26 131.321 L 276.934 131.504 L 277.81 129.299 L 282.479 129.299 L 285.855 120.07 Z " fill="rgb(204,204,204)" vector-effect="non-scaling-stroke" stroke-width="0.5" stroke="rgb(255,255,255)" stroke-linejoin="miter" stroke-linecap="butt" stroke-miterlimit="4"/><path d=" M 408.142 419.977 L 411.13 424.775 L 411.085 430.879 L 413.82 431.789 L 416.228 436.196 L 407.817 443.244 L 408.888 444.495 L 407.248 453.615 L 401.336 452.945 L 398.861 457.131 L 400.762 457.794 L 400.33 459.113 L 391.184 464.278 L 390.744 466.525 L 390.744 466.525 L 386.784 465.054 L 385.621 461.242 L 380.125 461.625 L 366.392 470.904 L 360.688 477.506 L 357.421 476.182 L 354.266 477.137 L 347.166 482.887 L 341.292 496.027 L 340.897 509.348 L 341.636 518.477 L 345.551 519.897 L 347.054 524.221 L 343.25 524.972 L 341.033 522.202 L 334.27 522.634 L 331.314 525.381 L 326.092 526.188 L 326.05 529.732 L 318.17 529.76 L 316.132 526.781 L 308.818 524.282 L 304.612 525.089 L 298.841 529.312 L 295.424 523.442 L 286.888 521.076 L 287.274 517.669 L 289.62 516.215 L 286.747 515.726 L 287.154 514.226 L 277.115 512.185 L 274.778 515.012 L 271.428 508.471 L 263.669 509.068 L 259.924 504.579 L 253.568 504.533 L 244.514 500.438 L 241.869 504.86 L 243.14 510.036 L 232.62 510.058 L 230.03 508.189 L 227.302 511.038 L 222.395 507.469 L 212.722 509.991 L 208.433 504.037 L 202.102 501.133 L 202.102 501.133 L 203.161 492.326 L 207.649 489.7 L 207.109 486.166 L 210.252 482.436 L 212.307 482.606 L 212.087 479.996 L 214.403 477.287 L 213.203 475.531 L 216.354 472.977 L 215.092 467.335 L 212.331 469.3 L 212.39 466.326 L 214.362 465.813 L 211.124 459.542 L 205.225 459.508 L 203.527 457.469 L 204.768 452.385 L 207.06 450.661 L 205.735 446.599 L 207.11 446.495 L 207.404 443.151 L 205.192 441.475 L 207.683 439.08 L 211.158 439.7 L 213.628 436.493 L 215.413 438.235 L 214.259 439.666 L 217.58 441.555 L 217.439 437.804 L 220.395 435.482 L 221.628 437.138 L 224.717 434.308 L 227.606 436.109 L 239.757 430.929 L 242.696 434.153 L 248.317 429.161 L 247.952 427.288 L 252.307 427.617 L 250.617 424.958 L 252.83 424.583 L 254.657 419.762 L 251.282 417.704 L 252.403 413.602 L 254.279 415.679 L 259.261 414.493 L 255.965 404.211 L 261.055 402.509 L 262.865 396.9 L 269.819 392.814 L 269.092 389.568 L 274.975 384.708 L 273.671 377.313 L 278.881 374.849 L 282.862 375.686 L 289.949 382.12 L 294.345 378.911 L 295.993 380.39 L 300.692 379.01 L 300.692 379.01 L 301.925 384.982 L 305.267 389.923 L 303.523 395.282 L 306.77 399.918 L 307.082 398.04 L 310.395 396.923 L 312.774 398.546 L 318.237 397.953 L 321.405 393.92 L 323.253 386.593 L 328.749 381.01 L 330.239 385.998 L 333.835 384.918 L 338.904 398.314 L 343.952 384.229 L 345.118 383.207 L 347.622 385.607 L 349.697 381.343 L 351.52 381.852 L 355.065 379.028 L 359.852 388.88 L 364.099 387.743 L 364.302 384.843 L 366.814 384.831 L 367.341 387.585 L 370.529 387.043 L 376.017 392.751 L 377.163 401.233 L 384.051 412.184 L 383.183 417.178 L 386.579 416.16 L 391.864 420.299 L 394.733 416.062 L 397.461 415.587 L 397.61 418.825 L 399.366 419.241 L 399.997 416.05 L 402.16 415.743 L 408.142 419.977 L 408.142 419.977 Z " fill="rgb(204,204,204)" vector-effect="non-scaling-stroke" stroke-width="0.5" stroke="rgb(255,255,255)" stroke-linejoin="miter" stroke-linecap="butt" stroke-miterlimit="4"/><path d=" M 386.886 69.697 L 390.792 66.487 L 389.538 62.375 L 386.558 62.331 L 389.879 53.366 L 387.961 52.258 L 386.936 54.279 L 382.24 47.731 L 377.15 49.808 L 370.732 48.238 L 369.088 51.228 L 367.021 47.043 L 367.087 41.411 L 364.924 38.848 L 360.44 39.42 L 361.196 37.057 L 359.365 36.432 L 355.268 39.167 L 351.76 37.005 L 349.593 28.299 L 350.481 25.45 L 347.604 23.914 L 345.943 19.672 L 337.707 22.167 L 335.793 26.078 L 330.94 23.815 L 328.188 18.33 L 324.551 18.192 L 323.068 15.753 L 322.683 11.153 L 324.41 9.333 L 320.752 0 L 287.544 9.53 L 284.074 13.359 L 280.745 14.336 L 282.094 18.755 L 279.977 23.848 L 280.549 34.08 L 280.977 36.1 L 279.636 45.063 L 282.546 47.238 L 279.686 47.589 L 278.935 52.705 L 285.211 58.802 L 278.336 57.593 L 272.325 66.81 L 272.325 66.81 L 275.281 66.436 L 275.426 68.402 L 286.204 78.229 L 289.271 86.206 L 287.748 86.142 L 285.245 90.529 L 287.839 90.529 L 285.593 93.766 L 285.552 97.72 L 287.723 100.547 L 286.436 102.741 L 289.462 102.748 L 286.291 108.887 L 290.023 117.35 L 289.404 119.157 L 288.109 117.489 L 286.087 117.978 L 285.855 120.07 L 285.855 120.07 L 287.96 123.631 L 291.31 124.346 L 298.23 123.612 L 301.514 121.427 L 305.234 124.391 L 307.223 123.39 L 307.82 125.169 L 311.171 122.94 L 318.502 127.991 L 321.08 126.839 L 322.367 129.659 L 324.422 127.852 L 328.615 130.847 L 331.704 128.585 L 333.514 130.253 L 338.367 128.907 L 339.147 130.203 L 342.428 129.312 L 342.568 127.301 L 345.408 127.991 L 347.566 131.529 L 346.596 133.922 L 350.635 138.551 L 352.3 137.927 L 353.296 140.485 L 354.902 139.213 L 355.538 142.765 L 358.784 144.922 L 359.784 143.998 L 359.784 143.998 L 367.78 133.796 L 366.655 131.972 L 363.937 132.363 L 366.137 129.824 L 364.588 127.143 L 365.477 125.194 L 370.724 124.656 L 366.801 121.243 L 366.443 114.849 L 371.948 112.13 L 374.996 112.86 L 375.179 110.61 L 378.014 108.925 L 382.701 111.882 L 384.42 98.429 L 382.161 95.178 L 385.964 94.469 L 386.429 91.591 L 391.561 86.533 L 389.742 85.059 L 391.701 79.392 L 390.817 73.574 L 390.817 73.574 L 389.314 73.741 L 386.886 69.697 Z " fill="rgb(204,204,204)" vector-effect="non-scaling-stroke" stroke-width="0.5" stroke="rgb(255,255,255)" stroke-linejoin="miter" stroke-linecap="butt" stroke-miterlimit="4"/><path d=" M 285.552 97.72 L 285.552 97.72 L 285.594 93.765 L 287.84 90.528 L 285.245 90.528 L 287.748 86.141 L 289.271 86.205 L 286.203 78.228 L 275.426 68.401 L 275.281 66.434 L 272.325 66.808 L 272.325 66.808 L 260.124 75.194 L 239.466 80.161 L 223.703 89.356 L 217.824 102.172 L 221.947 105.995 L 227.361 106.148 L 226.892 107.51 L 220.387 109.279 L 211.524 115.894 L 205.874 116.941 L 198.742 113.614 L 183.747 112.604 L 175.029 109.521 L 170.487 110.004 L 168.777 112.921 L 167.154 111.727 L 165.203 113.506 L 166.652 108.89 L 160.724 99.932 L 164.066 96.14 L 162.564 90.43 L 153.924 90.379 L 151.417 93.091 L 148.316 92.924 L 134.5 88.521 L 134.255 91.792 L 138.357 94.593 L 138.689 98.445 L 136.73 100.799 L 139.972 111.084 L 144.227 113.88 L 148.088 120.897 L 149.608 134.683 L 150.459 133.016 L 150.729 138.901 L 148.105 145.07 L 149.766 145.906 L 150.019 150.806 L 155 156.363 L 156.495 156.113 L 158.907 157.792 L 149.861 157.654 L 149.861 157.654 L 153.323 166.748 L 156.113 168.509 L 158.911 168.009 L 163.066 163.323 L 170.701 165.554 L 170.701 165.554 L 180.013 166.104 L 183.562 170.056 L 185.484 169.189 L 184.787 167.722 L 187.56 166.985 L 188.062 169.557 L 193.941 165.511 L 198.645 165.448 L 200.455 167.053 L 201.783 164.667 L 203.85 165.604 L 204.772 162.041 L 206.511 162.085 L 209.085 164.311 L 207.91 165.398 L 209.031 168.752 L 213.021 169.108 L 213.008 173.885 L 215.088 172.464 L 217.537 173.692 L 221.132 168.721 L 227.625 167.266 L 231 170.761 L 231.407 177.185 L 235.451 177.913 L 237.356 181.732 L 241.645 182.708 L 242.259 180.794 L 245.763 185.497 L 248.242 185.124 L 248.242 185.124 L 249.596 183.925 L 247.093 177.16 L 253.079 174.021 L 255.641 169.793 L 253.985 167.54 L 255.255 164.598 L 250.302 159.219 L 250.302 159.219 L 248.741 155.843 L 250.995 154.326 L 250.995 154.326 L 251.522 152.582 L 258.102 151.798 L 259.285 149.896 L 261.448 150.637 L 261.701 147.949 L 270.457 149.72 L 272.117 148.464 L 271.685 145.114 L 275.762 142.761 L 275.252 139.505 L 277.464 138.459 L 277.464 138.459 L 278.207 136.051 L 276.186 136.215 L 275.264 131.318 L 276.937 131.501 L 277.813 129.296 L 282.483 129.296 L 285.858 120.067 L 285.858 120.067 L 286.09 117.974 L 288.112 117.486 L 289.407 119.154 L 290.026 117.346 L 286.294 108.883 L 289.465 102.744 L 286.439 102.738 L 287.726 100.544 L 285.552 97.72 L 285.552 97.72 L 285.552 97.72 Z " fill="rgb(204,204,204)" vector-effect="non-scaling-stroke" stroke-width="0.5" stroke="rgb(255,255,255)" stroke-linejoin="miter" stroke-linecap="butt" stroke-miterlimit="4"/><path d=" M 121.443 256.703 L 123.079 257.85 L 122.485 259.901 L 125.599 261.471 L 125.902 264.786 L 123.473 260.938 L 119.645 258.918 L 119.363 256.885 L 121.443 256.703 L 121.443 256.703 Z  M 170.697 165.558 L 180.009 166.108 L 183.558 170.06 L 185.48 169.193 L 184.783 167.726 L 187.556 166.989 L 188.058 169.561 L 193.937 165.515 L 198.641 165.452 L 200.451 167.057 L 201.779 164.671 L 203.846 165.608 L 204.768 162.045 L 206.507 162.089 L 209.081 164.315 L 207.906 165.402 L 209.027 168.756 L 213.017 169.112 L 213.004 173.889 L 215.084 172.468 L 217.533 173.696 L 221.128 168.725 L 227.621 167.27 L 230.996 170.765 L 231.403 177.189 L 235.447 177.917 L 237.352 181.736 L 241.641 182.712 L 242.255 180.798 L 245.759 185.501 L 248.238 185.128 L 248.238 185.128 L 253.141 188.572 L 250.447 188.913 L 248.886 191.009 L 250.119 192.676 L 248.073 192.825 L 248.222 194.893 L 250.086 195.351 L 250.369 200.892 L 248.808 204.079 L 246.716 203.319 L 247.048 207.546 L 244.275 211.557 L 239.463 214.573 L 240.837 216.092 L 239.895 217.395 L 233.797 220.633 L 231.061 219.128 L 231.078 223.634 L 224.797 221.492 L 223.194 225.535 L 224.332 227.925 L 221.479 234.088 L 222.7 235.176 L 218.341 241.282 L 217.394 248.442 L 217.394 248.442 L 214.812 248.686 L 213.6 253.168 L 211.52 252.305 L 209.735 255.137 L 207.667 254.159 L 209.183 252.135 L 207.464 251.837 L 198.646 252.877 L 195.134 255.174 L 196.035 253.461 L 194.578 253.346 L 192.02 254.525 L 192.547 256.444 L 190.255 258.605 L 182.442 258.095 L 177.938 259.97 L 181.604 263.225 L 180.645 265.412 L 186.163 269.944 L 185.274 273.208 L 188.72 278.761 L 187.824 280.395 L 189.601 281.275 L 188.484 294.744 L 189.966 293.778 L 192.731 295.518 L 185.15 300.494 L 181.924 298.109 L 176.432 300.026 L 175.199 299.283 L 176.511 296.376 L 168.781 299.643 L 168.781 299.643 L 165.223 299.745 L 165.049 302.44 L 159.349 298.115 L 154.184 298.109 L 152.245 294.421 L 146.662 293.455 L 139.829 288.961 L 138.004 282 L 126.16 269.21 L 125.753 265.125 L 127.472 264.974 L 132.985 256.655 L 129.917 252.676 L 121.847 250.335 L 125.205 248.168 L 124.994 242.337 L 119.684 244.257 L 116.521 241.483 L 114.188 242.703 L 109.493 240.763 L 111.12 237.833 L 108.887 235.634 L 113.088 231.127 L 113.088 231.127 L 114.516 229.358 L 118.916 230.331 L 119.701 226.95 L 125.305 228.574 L 125.567 226.62 L 128.029 225.927 L 128.71 218.747 L 133.219 216.049 L 133.974 217.426 L 137.91 215.133 L 146.222 215.078 L 147.795 211.755 L 153.981 209.328 L 153.74 207.337 L 163.367 210.961 L 167.166 199.343 L 172.916 196.974 L 169.4 180.651 L 171.725 176.756 L 170.697 165.558 L 170.697 165.558 Z " fill="rgb(204,204,204)" vector-effect="non-scaling-stroke" stroke-width="0.5" stroke="rgb(255,255,255)" stroke-linejoin="miter" stroke-linecap="butt" stroke-miterlimit="4"/><path d=" M 436.874 480.46 L 438.206 475.898 L 435.52 472.139 L 432.173 473.999 L 424.763 474.215 L 421.446 468.507 L 415.576 468.25 L 416.942 469.851 L 415.365 470.084 L 415.88 471.302 L 417.656 472.447 L 415.913 474.062 L 405.351 472.208 L 405.7 468.695 L 403.321 466.98 L 390.746 466.525 L 390.746 466.525 L 391.186 464.278 L 400.332 459.113 L 400.764 457.794 L 398.863 457.131 L 401.338 452.945 L 407.25 453.615 L 408.89 444.495 L 407.819 443.244 L 416.23 436.196 L 413.822 431.789 L 411.087 430.879 L 411.132 424.775 L 408.144 419.977 L 408.144 419.977 L 408.194 416.538 L 413.923 417.504 L 415.185 422.461 L 425.186 417.827 L 427.204 419.567 L 429.629 417.405 L 429.023 422.201 L 437.447 423.234 L 438.605 426.644 L 441.594 428.719 L 445.185 427.952 L 447.684 424.566 L 449.403 425.709 L 451.197 424.284 L 451.205 420.196 L 447.942 417.925 L 448.826 416.346 L 443.177 416.104 L 440.57 413.957 L 440.1 411.045 L 443.368 410.35 L 441.703 406.761 L 448.18 408.367 L 450.251 406.581 L 447.474 404.167 L 449.384 397.909 L 455.466 397.816 L 457.168 395.663 L 455.86 394.732 L 457.026 391.639 L 462.178 391.581 L 463.39 390.351 L 462.112 388.993 L 464.943 387.197 L 466.554 388.34 L 469.771 385.522 L 474.479 386.246 L 476.31 384.962 L 478.979 386.071 L 477.655 377.662 L 472.694 376.644 L 474.404 370.522 L 478.046 370.363 L 479.354 373.469 L 482.932 374.535 L 485.398 371.172 L 490.393 371.19 L 490.393 371.19 L 492.149 376.491 L 495.088 376.819 L 495.365 383.187 L 500.04 386.404 L 503.033 385.721 L 506.633 387.979 L 505.695 389.979 L 508.859 396.135 L 504.13 396.49 L 504.346 399.84 L 499.684 405.067 L 503.54 410.785 L 501.231 411.265 L 501.007 414.687 L 505.959 422.011 L 513.453 423.996 L 520.498 428.95 L 534.073 425.519 L 534.957 433.16 L 526.298 442.907 L 527.742 448.091 L 519.792 452.111 L 518.82 452.455 L 512.24 455.504 L 510.779 459.287 L 509.807 460.195 L 507.325 462.238 L 504.179 461.839 L 501.21 468.282 L 495.153 468.618 L 493.962 472.881 L 488.083 477.185 L 493.169 477.503 L 491.08 483.128 L 487.526 481.903 L 484.837 484.075 L 480.191 484.443 L 479.339 487.736 L 471.991 486.116 L 470.675 491.11 L 468.184 490.991 L 469.392 488.143 L 465.112 488.206 L 461.023 485.577 L 459.367 486.836 L 462.132 488.789 L 457.167 489.814 L 455.693 488.744 L 456.328 486.116 L 451.629 484.506 L 451.247 482.453 L 448.565 482.073 L 447.83 483.582 L 444.986 480.49 L 436.874 480.46 L 436.874 480.46 Z " fill="rgb(204,204,204)" vector-effect="non-scaling-stroke" stroke-width="0.5" stroke="rgb(255,255,255)" stroke-linejoin="miter" stroke-linecap="butt" stroke-miterlimit="4"/></g></g></svg>